<svg viewBox="-16 -32 880 192" width="880" height="192" xmlns="http://www.w3.org/2000/svg"><desc>Generated with https://github.com/Platane/snk</desc><style>:root{--cb:#1b1f230a;--cs:blue;--ce:#161b22;--c0:#161b22;--c1:#01311f;--c2:#034525;--c3:#0f6d31;--c4:#00c647}.c{shape-rendering:geometricPrecision;fill:var(--ce);stroke-width:1px;stroke:var(--cb);animation:none 29100ms linear infinite;width:12px;height:12px}@keyframes c0{5.49%{fill:var(--c1)}5.51%,100%{fill:var(--ce)}}.c.c0{fill:var(--c1);animation-name:c0}@keyframes c1{80.75%{fill:var(--c2)}80.77%,100%{fill:var(--ce)}}.c.c1{fill:var(--c2);animation-name:c1}@keyframes c2{80.06%{fill:var(--c2)}80.08%,100%{fill:var(--ce)}}.c.c2{fill:var(--c2);animation-name:c2}@keyframes c3{7.55%{fill:var(--c1)}7.57%,100%{fill:var(--ce)}}.c.c3{fill:var(--c1);animation-name:c3}@keyframes c4{17.86%{fill:var(--c1)}17.88%,100%{fill:var(--ce)}}.c.c4{fill:var(--c1);animation-name:c4}@keyframes c5{9.27%{fill:var(--c1)}9.29%,100%{fill:var(--ce)}}.c.c5{fill:var(--c1);animation-name:c5}@keyframes c6{16.48%{fill:var(--c1)}16.5%,100%{fill:var(--ce)}}.c.c6{fill:var(--c1);animation-name:c6}@keyframes c7{10.3%{fill:var(--c1)}10.32%,100%{fill:var(--ce)}}.c.c7{fill:var(--c1);animation-name:c7}@keyframes c8{15.45%{fill:var(--c1)}15.47%,100%{fill:var(--ce)}}.c.c8{fill:var(--c1);animation-name:c8}@keyframes c9{12.7%{fill:var(--c1)}12.72%,100%{fill:var(--ce)}}.c.c9{fill:var(--c1);animation-name:c9}@keyframes ca{13.05%{fill:var(--c1)}13.07%,100%{fill:var(--ce)}}.c.ca{fill:var(--c1);animation-name:ca}@keyframes cb{13.39%{fill:var(--c1)}13.41%,100%{fill:var(--ce)}}.c.cb{fill:var(--c1);animation-name:cb}@keyframes cc{15.11%{fill:var(--c1)}15.13%,100%{fill:var(--ce)}}.c.cc{fill:var(--c1);animation-name:cc}@keyframes cd{12.36%{fill:var(--c1)}12.38%,100%{fill:var(--ce)}}.c.cd{fill:var(--c1);animation-name:cd}@keyframes ce{86.24%{fill:var(--c3)}86.26%,100%{fill:var(--ce)}}.c.ce{fill:var(--c3);animation-name:ce}@keyframes cf{13.74%{fill:var(--c1)}13.76%,100%{fill:var(--ce)}}.c.cf{fill:var(--c1);animation-name:cf}@keyframes cg{11.33%{fill:var(--c1)}11.35%,100%{fill:var(--ce)}}.c.cg{fill:var(--c1);animation-name:cg}@keyframes ch{11.67%{fill:var(--c1)}11.69%,100%{fill:var(--ce)}}.c.ch{fill:var(--c1);animation-name:ch}@keyframes ci{57.38%{fill:var(--c2)}57.4%,100%{fill:var(--ce)}}.c.ci{fill:var(--c2);animation-name:ci}@keyframes cj{14.42%{fill:var(--c1)}14.44%,100%{fill:var(--ce)}}.c.cj{fill:var(--c1);animation-name:cj}@keyframes ck{58.41%{fill:var(--c2)}58.43%,100%{fill:var(--ce)}}.c.ck{fill:var(--c2);animation-name:ck}@keyframes cl{84.87%{fill:var(--c3)}84.89%,100%{fill:var(--ce)}}.c.cl{fill:var(--c3);animation-name:cl}@keyframes cm{21.3%{fill:var(--c1)}21.32%,100%{fill:var(--ce)}}.c.cm{fill:var(--c1);animation-name:cm}@keyframes cn{20.95%{fill:var(--c1)}20.97%,100%{fill:var(--ce)}}.c.cn{fill:var(--c1);animation-name:cn}@keyframes co{87.62%{fill:var(--c3)}87.64%,100%{fill:var(--ce)}}.c.co{fill:var(--c3);animation-name:co}@keyframes cp{89.68%{fill:var(--c4)}89.7%,100%{fill:var(--ce)}}.c.cp{fill:var(--c4);animation-name:cp}@keyframes cq{56.35%{fill:var(--c2)}56.37%,100%{fill:var(--ce)}}.c.cq{fill:var(--c2);animation-name:cq}@keyframes cr{22.33%{fill:var(--c1)}22.35%,100%{fill:var(--ce)}}.c.cr{fill:var(--c1);animation-name:cr}@keyframes cs{21.98%{fill:var(--c1)}22%,100%{fill:var(--ce)}}.c.cs{fill:var(--c1);animation-name:cs}@keyframes ct{55.66%{fill:var(--c1)}55.68%,100%{fill:var(--ce)}}.c.ct{fill:var(--c1);animation-name:ct}@keyframes cu{23.01%{fill:var(--c1)}23.03%,100%{fill:var(--ce)}}.c.cu{fill:var(--c1);animation-name:cu}@keyframes cv{60.47%{fill:var(--c2)}60.49%,100%{fill:var(--ce)}}.c.cv{fill:var(--c2);animation-name:cv}@keyframes cw{54.97%{fill:var(--c1)}54.99%,100%{fill:var(--ce)}}.c.cw{fill:var(--c1);animation-name:cw}@keyframes cx{55.32%{fill:var(--c1)}55.34%,100%{fill:var(--ce)}}.c.cx{fill:var(--c1);animation-name:cx}@keyframes cy{23.7%{fill:var(--c1)}23.72%,100%{fill:var(--ce)}}.c.cy{fill:var(--c1);animation-name:cy}@keyframes cz{25.08%{fill:var(--c1)}25.1%,100%{fill:var(--ce)}}.c.cz{fill:var(--c1);animation-name:cz}@keyframes c10{24.73%{fill:var(--c1)}24.75%,100%{fill:var(--ce)}}.c.c10{fill:var(--c1);animation-name:c10}@keyframes c11{26.11%{fill:var(--c1)}26.13%,100%{fill:var(--ce)}}.c.c11{fill:var(--c1);animation-name:c11}@keyframes c12{26.79%{fill:var(--c1)}26.81%,100%{fill:var(--ce)}}.c.c12{fill:var(--c1);animation-name:c12}@keyframes c13{27.83%{fill:var(--c1)}27.85%,100%{fill:var(--ce)}}.c.c13{fill:var(--c1);animation-name:c13}@keyframes c14{27.14%{fill:var(--c1)}27.16%,100%{fill:var(--ce)}}.c.c14{fill:var(--c1);animation-name:c14}@keyframes c15{29.54%{fill:var(--c1)}29.56%,100%{fill:var(--ce)}}.c.c15{fill:var(--c1);animation-name:c15}@keyframes c16{31.95%{fill:var(--c1)}31.97%,100%{fill:var(--ce)}}.c.c16{fill:var(--c1);animation-name:c16}@keyframes c17{31.61%{fill:var(--c1)}31.63%,100%{fill:var(--ce)}}.c.c17{fill:var(--c1);animation-name:c17}@keyframes c18{30.57%{fill:var(--c1)}30.59%,100%{fill:var(--ce)}}.c.c18{fill:var(--c1);animation-name:c18}@keyframes c19{30.92%{fill:var(--c1)}30.94%,100%{fill:var(--ce)}}.c.c19{fill:var(--c1);animation-name:c19}@keyframes c1a{65.28%{fill:var(--c2)}65.3%,100%{fill:var(--ce)}}.c.c1a{fill:var(--c2);animation-name:c1a}@keyframes c1b{65.63%{fill:var(--c2)}65.65%,100%{fill:var(--ce)}}.c.c1b{fill:var(--c2);animation-name:c1b}@keyframes c1c{37.79%{fill:var(--c1)}37.81%,100%{fill:var(--ce)}}.c.c1c{fill:var(--c1);animation-name:c1c}@keyframes c1d{33.32%{fill:var(--c1)}33.34%,100%{fill:var(--ce)}}.c.c1d{fill:var(--c1);animation-name:c1d}@keyframes c1e{36.07%{fill:var(--c1)}36.09%,100%{fill:var(--ce)}}.c.c1e{fill:var(--c1);animation-name:c1e}@keyframes c1f{37.45%{fill:var(--c1)}37.47%,100%{fill:var(--ce)}}.c.c1f{fill:var(--c1);animation-name:c1f}@keyframes c1g{34.01%{fill:var(--c1)}34.03%,100%{fill:var(--ce)}}.c.c1g{fill:var(--c1);animation-name:c1g}@keyframes c1h{34.35%{fill:var(--c1)}34.37%,100%{fill:var(--ce)}}.c.c1h{fill:var(--c1);animation-name:c1h}@keyframes c1i{35.39%{fill:var(--c1)}35.41%,100%{fill:var(--ce)}}.c.c1i{fill:var(--c1);animation-name:c1i}@keyframes c1j{37.1%{fill:var(--c1)}37.12%,100%{fill:var(--ce)}}.c.c1j{fill:var(--c1);animation-name:c1j}@keyframes c1k{68.37%{fill:var(--c2)}68.39%,100%{fill:var(--ce)}}.c.c1k{fill:var(--c2);animation-name:c1k}@keyframes c1l{34.7%{fill:var(--c1)}34.72%,100%{fill:var(--ce)}}.c.c1l{fill:var(--c1);animation-name:c1l}@keyframes c1m{35.04%{fill:var(--c1)}35.06%,100%{fill:var(--ce)}}.c.c1m{fill:var(--c1);animation-name:c1m}@keyframes c1n{67%{fill:var(--c2)}67.02%,100%{fill:var(--ce)}}.c.c1n{fill:var(--c2);animation-name:c1n}@keyframes c1o{67.34%{fill:var(--c2)}67.36%,100%{fill:var(--ce)}}.c.c1o{fill:var(--c2);animation-name:c1o}@keyframes c1p{40.54%{fill:var(--c1)}40.56%,100%{fill:var(--ce)}}.c.c1p{fill:var(--c1);animation-name:c1p}@keyframes c1q{44.66%{fill:var(--c1)}44.68%,100%{fill:var(--ce)}}.c.c1q{fill:var(--c1);animation-name:c1q}@keyframes c1r{44.32%{fill:var(--c1)}44.34%,100%{fill:var(--ce)}}.c.c1r{fill:var(--c1);animation-name:c1r}@keyframes c1s{43.63%{fill:var(--c1)}43.65%,100%{fill:var(--ce)}}.c.c1s{fill:var(--c1);animation-name:c1s}@keyframes c1t{41.57%{fill:var(--c1)}41.59%,100%{fill:var(--ce)}}.c.c1t{fill:var(--c1);animation-name:c1t}@keyframes c1u{41.91%{fill:var(--c1)}41.93%,100%{fill:var(--ce)}}.c.c1u{fill:var(--c1);animation-name:c1u}@keyframes c1v{42.26%{fill:var(--c1)}42.28%,100%{fill:var(--ce)}}.c.c1v{fill:var(--c1);animation-name:c1v}@keyframes c1w{46.04%{fill:var(--c1)}46.06%,100%{fill:var(--ce)}}.c.c1w{fill:var(--c1);animation-name:c1w}.u{transform-origin:0 0;transform:scale(0,1);animation:none linear 29100ms infinite}@keyframes u0{5.49%{transform:scale(0.000,1)}5.51%,7.55%{transform:scale(0.019,1)}7.57%,9.27%{transform:scale(0.037,1)}9.29%,10.3%{transform:scale(0.056,1)}10.32%,11.33%{transform:scale(0.074,1)}11.35%,11.67%{transform:scale(0.093,1)}11.69%,12.36%{transform:scale(0.111,1)}12.38%,12.7%{transform:scale(0.130,1)}12.72%,13.05%{transform:scale(0.148,1)}13.07%,13.39%{transform:scale(0.167,1)}13.41%,13.74%{transform:scale(0.185,1)}13.76%,14.42%{transform:scale(0.204,1)}14.44%,15.11%{transform:scale(0.222,1)}15.13%,15.45%{transform:scale(0.241,1)}15.47%,16.48%{transform:scale(0.259,1)}16.5%,17.86%{transform:scale(0.278,1)}17.88%,20.95%{transform:scale(0.296,1)}20.97%,21.3%{transform:scale(0.315,1)}21.32%,21.98%{transform:scale(0.333,1)}22%,22.33%{transform:scale(0.352,1)}22.35%,23.01%{transform:scale(0.370,1)}23.03%,23.7%{transform:scale(0.389,1)}23.72%,24.73%{transform:scale(0.407,1)}24.75%,25.08%{transform:scale(0.426,1)}25.1%,26.11%{transform:scale(0.444,1)}26.13%,26.79%{transform:scale(0.463,1)}26.81%,27.14%{transform:scale(0.481,1)}27.16%,27.83%{transform:scale(0.500,1)}27.85%,29.54%{transform:scale(0.519,1)}29.56%,30.57%{transform:scale(0.537,1)}30.59%,30.92%{transform:scale(0.556,1)}30.94%,31.61%{transform:scale(0.574,1)}31.63%,31.95%{transform:scale(0.593,1)}31.97%,33.32%{transform:scale(0.611,1)}33.34%,34.01%{transform:scale(0.630,1)}34.03%,34.35%{transform:scale(0.648,1)}34.37%,34.7%{transform:scale(0.667,1)}34.72%,35.04%{transform:scale(0.685,1)}35.06%,35.39%{transform:scale(0.704,1)}35.41%,36.07%{transform:scale(0.722,1)}36.09%,37.1%{transform:scale(0.741,1)}37.12%,37.45%{transform:scale(0.759,1)}37.47%,37.79%{transform:scale(0.778,1)}37.81%,40.54%{transform:scale(0.796,1)}40.56%,41.57%{transform:scale(0.815,1)}41.59%,41.91%{transform:scale(0.833,1)}41.93%,42.26%{transform:scale(0.852,1)}42.28%,43.63%{transform:scale(0.870,1)}43.65%,44.32%{transform:scale(0.889,1)}44.34%,44.66%{transform:scale(0.907,1)}44.68%,46.04%{transform:scale(0.926,1)}46.06%,54.97%{transform:scale(0.944,1)}54.99%,55.32%{transform:scale(0.963,1)}55.34%,55.66%{transform:scale(0.981,1)}55.68%,100%{transform:scale(1.000,1)}}.u.u0{fill:var(--c1);animation-name:u0;transform-origin:0.0px 0}@keyframes u1{56.35%{transform:scale(0.000,1)}56.37%,57.38%{transform:scale(0.091,1)}57.4%,58.41%{transform:scale(0.182,1)}58.43%,60.47%{transform:scale(0.273,1)}60.49%,65.28%{transform:scale(0.364,1)}65.3%,65.63%{transform:scale(0.455,1)}65.65%,67%{transform:scale(0.545,1)}67.02%,67.34%{transform:scale(0.636,1)}67.36%,68.37%{transform:scale(0.727,1)}68.39%,80.06%{transform:scale(0.818,1)}80.08%,80.75%{transform:scale(0.909,1)}80.77%,100%{transform:scale(1.000,1)}}.u.u1{fill:var(--c2);animation-name:u1;transform-origin:663.7px 0}@keyframes u2{84.87%{transform:scale(0.000,1)}84.89%,86.24%{transform:scale(0.333,1)}86.26%,87.62%{transform:scale(0.667,1)}87.64%,100%{transform:scale(1.000,1)}}.u.u2{fill:var(--c3);animation-name:u2;transform-origin:798.8px 0}@keyframes u3{89.68%{transform:scale(0.000,1)}89.7%,100%{transform:scale(1.000,1)}}.u.u3{fill:var(--c4);animation-name:u3;transform-origin:835.7px 0}.s{shape-rendering:geometricPrecision;fill:var(--cs);animation:none linear 29100ms infinite}@keyframes s0{0%,99.66%{transform:translate(0px,-16px)}0.34%{transform:translate(0px,0px)}5.15%{transform:translate(224px,0px)}5.5%,80.41%{transform:translate(224px,16px)}5.84%{transform:translate(208px,16px)}6.53%{transform:translate(208px,48px)}7.22%{transform:translate(240px,48px)}7.56%{transform:translate(240px,32px)}8.93%{transform:translate(304px,32px)}9.28%{transform:translate(304px,16px)}11.34%,58.08%,76.63%{transform:translate(400px,16px)}11.68%{transform:translate(400px,32px)}12.03%{transform:translate(384px,32px)}12.37%,85.91%{transform:translate(384px,48px)}12.71%{transform:translate(368px,48px)}13.4%{transform:translate(368px,80px)}14.09%{transform:translate(400px,80px)}14.43%{transform:translate(400px,96px)}15.46%{transform:translate(352px,96px)}16.15%{transform:translate(352px,64px)}17.53%{transform:translate(288px,64px)}17.87%{transform:translate(288px,80px)}20.62%{transform:translate(416px,80px)}21.31%,85.22%{transform:translate(416px,48px)}21.99%{transform:translate(448px,48px)}22.68%{transform:translate(448px,16px)}23.37%{transform:translate(480px,16px)}23.71%,53.95%{transform:translate(480px,32px)}24.74%{transform:translate(528px,32px)}25.09%{transform:translate(528px,16px)}25.43%{transform:translate(544px,16px)}26.12%{transform:translate(544px,48px)}26.46%{transform:translate(560px,48px)}26.8%,28.18%{transform:translate(560px,64px)}27.15%{transform:translate(576px,64px)}27.49%{transform:translate(576px,80px)}27.84%{transform:translate(560px,80px)}29.21%{transform:translate(608px,64px)}29.55%{transform:translate(608px,80px)}29.9%{transform:translate(624px,80px)}30.58%{transform:translate(624px,48px)}30.93%{transform:translate(640px,48px)}31.27%{transform:translate(640px,32px)}31.62%{transform:translate(624px,32px)}31.96%{transform:translate(624px,16px)}33.68%{transform:translate(704px,16px)}34.36%,36.43%,69.42%{transform:translate(704px,48px)}34.71%{transform:translate(720px,48px)}35.05%,66.67%{transform:translate(720px,64px)}35.74%{transform:translate(688px,64px)}36.08%{transform:translate(688px,48px)}37.11%,39.18%{transform:translate(704px,80px)}37.8%{transform:translate(672px,80px)}38.14%{transform:translate(672px,96px)}38.49%{transform:translate(688px,96px)}38.83%{transform:translate(688px,80px)}39.52%{transform:translate(704px,64px)}41.58%{transform:translate(800px,64px)}41.92%{transform:translate(800px,80px)}42.27%{transform:translate(816px,80px)}43.3%{transform:translate(816px,32px)}44.33%{transform:translate(768px,32px)}44.67%{transform:translate(768px,16px)}46.05%{transform:translate(832px,16px)}46.39%{transform:translate(832px,32px)}54.3%{transform:translate(480px,48px)}54.64%{transform:translate(464px,48px)}55.33%{transform:translate(464px,80px)}55.67%{transform:translate(448px,80px)}56.01%{transform:translate(448px,64px)}56.36%{transform:translate(432px,64px)}56.7%{transform:translate(432px,48px)}57.39%,75.95%{transform:translate(400px,48px)}58.42%{transform:translate(416px,16px)}58.76%{transform:translate(416px,0px)}59.79%{transform:translate(464px,0px)}60.48%{transform:translate(464px,32px)}64.95%{transform:translate(672px,32px)}65.64%{transform:translate(672px,64px)}67.01%{transform:translate(720px,80px)}67.35%{transform:translate(736px,80px)}67.7%{transform:translate(736px,96px)}68.38%{transform:translate(704px,96px)}80.76%{transform:translate(224px,32px)}84.88%{transform:translate(416px,32px)}86.25%{transform:translate(384px,64px)}86.94%{transform:translate(416px,64px)}87.63%{transform:translate(416px,96px)}87.97%{transform:translate(432px,96px)}89.69%{transform:translate(432px,16px)}97.25%{transform:translate(80px,16px)}97.59%{transform:translate(80px,0px)}97.94%{transform:translate(64px,0px)}98.28%{transform:translate(64px,-16px)}}.s.s0{transform:translate(0px,-16px);animation-name:s0}@keyframes s1{0%,99.66%{transform:translate(16px,-16px)}0.34%{transform:translate(0px,-16px)}0.69%{transform:translate(0px,0px)}5.5%{transform:translate(224px,0px)}5.84%,80.76%{transform:translate(224px,16px)}6.19%{transform:translate(208px,16px)}6.87%{transform:translate(208px,48px)}7.56%{transform:translate(240px,48px)}7.9%{transform:translate(240px,32px)}9.28%{transform:translate(304px,32px)}9.62%{transform:translate(304px,16px)}11.68%,58.42%,76.98%{transform:translate(400px,16px)}12.03%{transform:translate(400px,32px)}12.37%{transform:translate(384px,32px)}12.71%,86.25%{transform:translate(384px,48px)}13.06%{transform:translate(368px,48px)}13.75%{transform:translate(368px,80px)}14.43%{transform:translate(400px,80px)}14.78%{transform:translate(400px,96px)}15.81%{transform:translate(352px,96px)}16.49%{transform:translate(352px,64px)}17.87%{transform:translate(288px,64px)}18.21%{transform:translate(288px,80px)}20.96%{transform:translate(416px,80px)}21.65%,85.57%{transform:translate(416px,48px)}22.34%{transform:translate(448px,48px)}23.02%{transform:translate(448px,16px)}23.71%{transform:translate(480px,16px)}24.05%,54.3%{transform:translate(480px,32px)}25.09%{transform:translate(528px,32px)}25.43%{transform:translate(528px,16px)}25.77%{transform:translate(544px,16px)}26.46%{transform:translate(544px,48px)}26.8%{transform:translate(560px,48px)}27.15%,28.52%{transform:translate(560px,64px)}27.49%{transform:translate(576px,64px)}27.84%{transform:translate(576px,80px)}28.18%{transform:translate(560px,80px)}29.55%{transform:translate(608px,64px)}29.9%{transform:translate(608px,80px)}30.24%{transform:translate(624px,80px)}30.93%{transform:translate(624px,48px)}31.27%{transform:translate(640px,48px)}31.62%{transform:translate(640px,32px)}31.96%{transform:translate(624px,32px)}32.3%{transform:translate(624px,16px)}34.02%{transform:translate(704px,16px)}34.71%,36.77%,69.76%{transform:translate(704px,48px)}35.05%{transform:translate(720px,48px)}35.4%,67.01%{transform:translate(720px,64px)}36.08%{transform:translate(688px,64px)}36.43%{transform:translate(688px,48px)}37.46%,39.52%{transform:translate(704px,80px)}38.14%{transform:translate(672px,80px)}38.49%{transform:translate(672px,96px)}38.83%{transform:translate(688px,96px)}39.18%{transform:translate(688px,80px)}39.86%{transform:translate(704px,64px)}41.92%{transform:translate(800px,64px)}42.27%{transform:translate(800px,80px)}42.61%{transform:translate(816px,80px)}43.64%{transform:translate(816px,32px)}44.67%{transform:translate(768px,32px)}45.02%{transform:translate(768px,16px)}46.39%{transform:translate(832px,16px)}46.74%{transform:translate(832px,32px)}54.64%{transform:translate(480px,48px)}54.98%{transform:translate(464px,48px)}55.67%{transform:translate(464px,80px)}56.01%{transform:translate(448px,80px)}56.36%{transform:translate(448px,64px)}56.7%{transform:translate(432px,64px)}57.04%{transform:translate(432px,48px)}57.73%,76.29%{transform:translate(400px,48px)}58.76%{transform:translate(416px,16px)}59.11%{transform:translate(416px,0px)}60.14%{transform:translate(464px,0px)}60.82%{transform:translate(464px,32px)}65.29%{transform:translate(672px,32px)}65.98%{transform:translate(672px,64px)}67.35%{transform:translate(720px,80px)}67.7%{transform:translate(736px,80px)}68.04%{transform:translate(736px,96px)}68.73%{transform:translate(704px,96px)}81.1%{transform:translate(224px,32px)}85.22%{transform:translate(416px,32px)}86.6%{transform:translate(384px,64px)}87.29%{transform:translate(416px,64px)}87.97%{transform:translate(416px,96px)}88.32%{transform:translate(432px,96px)}90.03%{transform:translate(432px,16px)}97.59%{transform:translate(80px,16px)}97.94%{transform:translate(80px,0px)}98.28%{transform:translate(64px,0px)}98.63%{transform:translate(64px,-16px)}}.s.s1{transform:translate(16px,-16px);animation-name:s1}@keyframes s2{0%,99.66%{transform:translate(32px,-16px)}0.69%{transform:translate(0px,-16px)}1.03%{transform:translate(0px,0px)}5.84%{transform:translate(224px,0px)}6.19%,81.1%{transform:translate(224px,16px)}6.53%{transform:translate(208px,16px)}7.22%{transform:translate(208px,48px)}7.9%{transform:translate(240px,48px)}8.25%{transform:translate(240px,32px)}9.62%{transform:translate(304px,32px)}9.97%{transform:translate(304px,16px)}12.03%,58.76%,77.32%{transform:translate(400px,16px)}12.37%{transform:translate(400px,32px)}12.71%{transform:translate(384px,32px)}13.06%,86.6%{transform:translate(384px,48px)}13.4%{transform:translate(368px,48px)}14.09%{transform:translate(368px,80px)}14.78%{transform:translate(400px,80px)}15.12%{transform:translate(400px,96px)}16.15%{transform:translate(352px,96px)}16.84%{transform:translate(352px,64px)}18.21%{transform:translate(288px,64px)}18.56%{transform:translate(288px,80px)}21.31%{transform:translate(416px,80px)}21.99%,85.91%{transform:translate(416px,48px)}22.68%{transform:translate(448px,48px)}23.37%{transform:translate(448px,16px)}24.05%{transform:translate(480px,16px)}24.4%,54.64%{transform:translate(480px,32px)}25.43%{transform:translate(528px,32px)}25.77%{transform:translate(528px,16px)}26.12%{transform:translate(544px,16px)}26.8%{transform:translate(544px,48px)}27.15%{transform:translate(560px,48px)}27.49%,28.87%{transform:translate(560px,64px)}27.84%{transform:translate(576px,64px)}28.18%{transform:translate(576px,80px)}28.52%{transform:translate(560px,80px)}29.9%{transform:translate(608px,64px)}30.24%{transform:translate(608px,80px)}30.58%{transform:translate(624px,80px)}31.27%{transform:translate(624px,48px)}31.62%{transform:translate(640px,48px)}31.96%{transform:translate(640px,32px)}32.3%{transform:translate(624px,32px)}32.65%{transform:translate(624px,16px)}34.36%{transform:translate(704px,16px)}35.05%,37.11%,70.1%{transform:translate(704px,48px)}35.4%{transform:translate(720px,48px)}35.74%,67.35%{transform:translate(720px,64px)}36.43%{transform:translate(688px,64px)}36.77%{transform:translate(688px,48px)}37.8%,39.86%{transform:translate(704px,80px)}38.49%{transform:translate(672px,80px)}38.83%{transform:translate(672px,96px)}39.18%{transform:translate(688px,96px)}39.52%{transform:translate(688px,80px)}40.21%{transform:translate(704px,64px)}42.27%{transform:translate(800px,64px)}42.61%{transform:translate(800px,80px)}42.96%{transform:translate(816px,80px)}43.99%{transform:translate(816px,32px)}45.02%{transform:translate(768px,32px)}45.36%{transform:translate(768px,16px)}46.74%{transform:translate(832px,16px)}47.08%{transform:translate(832px,32px)}54.98%{transform:translate(480px,48px)}55.33%{transform:translate(464px,48px)}56.01%{transform:translate(464px,80px)}56.36%{transform:translate(448px,80px)}56.7%{transform:translate(448px,64px)}57.04%{transform:translate(432px,64px)}57.39%{transform:translate(432px,48px)}58.08%,76.63%{transform:translate(400px,48px)}59.11%{transform:translate(416px,16px)}59.45%{transform:translate(416px,0px)}60.48%{transform:translate(464px,0px)}61.17%{transform:translate(464px,32px)}65.64%{transform:translate(672px,32px)}66.32%{transform:translate(672px,64px)}67.7%{transform:translate(720px,80px)}68.04%{transform:translate(736px,80px)}68.38%{transform:translate(736px,96px)}69.07%{transform:translate(704px,96px)}81.44%{transform:translate(224px,32px)}85.57%{transform:translate(416px,32px)}86.94%{transform:translate(384px,64px)}87.63%{transform:translate(416px,64px)}88.32%{transform:translate(416px,96px)}88.66%{transform:translate(432px,96px)}90.38%{transform:translate(432px,16px)}97.94%{transform:translate(80px,16px)}98.28%{transform:translate(80px,0px)}98.63%{transform:translate(64px,0px)}98.97%{transform:translate(64px,-16px)}}.s.s2{transform:translate(32px,-16px);animation-name:s2}@keyframes s3{0%,99.66%{transform:translate(48px,-16px)}1.03%{transform:translate(0px,-16px)}1.37%{transform:translate(0px,0px)}6.19%{transform:translate(224px,0px)}6.53%,81.44%{transform:translate(224px,16px)}6.87%{transform:translate(208px,16px)}7.56%{transform:translate(208px,48px)}8.25%{transform:translate(240px,48px)}8.59%{transform:translate(240px,32px)}9.97%{transform:translate(304px,32px)}10.31%{transform:translate(304px,16px)}12.37%,59.11%,77.66%{transform:translate(400px,16px)}12.71%{transform:translate(400px,32px)}13.06%{transform:translate(384px,32px)}13.4%,86.94%{transform:translate(384px,48px)}13.75%{transform:translate(368px,48px)}14.43%{transform:translate(368px,80px)}15.12%{transform:translate(400px,80px)}15.46%{transform:translate(400px,96px)}16.49%{transform:translate(352px,96px)}17.18%{transform:translate(352px,64px)}18.56%{transform:translate(288px,64px)}18.9%{transform:translate(288px,80px)}21.65%{transform:translate(416px,80px)}22.34%,86.25%{transform:translate(416px,48px)}23.02%{transform:translate(448px,48px)}23.71%{transform:translate(448px,16px)}24.4%{transform:translate(480px,16px)}24.74%,54.98%{transform:translate(480px,32px)}25.77%{transform:translate(528px,32px)}26.12%{transform:translate(528px,16px)}26.46%{transform:translate(544px,16px)}27.15%{transform:translate(544px,48px)}27.49%{transform:translate(560px,48px)}27.84%,29.21%{transform:translate(560px,64px)}28.18%{transform:translate(576px,64px)}28.52%{transform:translate(576px,80px)}28.87%{transform:translate(560px,80px)}30.24%{transform:translate(608px,64px)}30.58%{transform:translate(608px,80px)}30.93%{transform:translate(624px,80px)}31.62%{transform:translate(624px,48px)}31.96%{transform:translate(640px,48px)}32.3%{transform:translate(640px,32px)}32.65%{transform:translate(624px,32px)}32.99%{transform:translate(624px,16px)}34.71%{transform:translate(704px,16px)}35.4%,37.46%,70.45%{transform:translate(704px,48px)}35.74%{transform:translate(720px,48px)}36.08%,67.7%{transform:translate(720px,64px)}36.77%{transform:translate(688px,64px)}37.11%{transform:translate(688px,48px)}38.14%,40.21%{transform:translate(704px,80px)}38.83%{transform:translate(672px,80px)}39.18%{transform:translate(672px,96px)}39.52%{transform:translate(688px,96px)}39.86%{transform:translate(688px,80px)}40.55%{transform:translate(704px,64px)}42.61%{transform:translate(800px,64px)}42.96%{transform:translate(800px,80px)}43.3%{transform:translate(816px,80px)}44.33%{transform:translate(816px,32px)}45.36%{transform:translate(768px,32px)}45.7%{transform:translate(768px,16px)}47.08%{transform:translate(832px,16px)}47.42%{transform:translate(832px,32px)}55.33%{transform:translate(480px,48px)}55.67%{transform:translate(464px,48px)}56.36%{transform:translate(464px,80px)}56.7%{transform:translate(448px,80px)}57.04%{transform:translate(448px,64px)}57.39%{transform:translate(432px,64px)}57.73%{transform:translate(432px,48px)}58.42%,76.98%{transform:translate(400px,48px)}59.45%{transform:translate(416px,16px)}59.79%{transform:translate(416px,0px)}60.82%{transform:translate(464px,0px)}61.51%{transform:translate(464px,32px)}65.98%{transform:translate(672px,32px)}66.67%{transform:translate(672px,64px)}68.04%{transform:translate(720px,80px)}68.38%{transform:translate(736px,80px)}68.73%{transform:translate(736px,96px)}69.42%{transform:translate(704px,96px)}81.79%{transform:translate(224px,32px)}85.91%{transform:translate(416px,32px)}87.29%{transform:translate(384px,64px)}87.97%{transform:translate(416px,64px)}88.66%{transform:translate(416px,96px)}89%{transform:translate(432px,96px)}90.72%{transform:translate(432px,16px)}98.28%{transform:translate(80px,16px)}98.63%{transform:translate(80px,0px)}98.97%{transform:translate(64px,0px)}99.31%{transform:translate(64px,-16px)}}.s.s3{transform:translate(48px,-16px);animation-name:s3}</style><rect class="c" x="2" y="2" rx="2" ry="2"/><rect class="c" x="2" y="18" rx="2" ry="2"/><rect class="c" x="2" y="34" rx="2" ry="2"/><rect class="c" x="2" y="50" rx="2" ry="2"/><rect class="c" x="2" y="66" rx="2" ry="2"/><rect class="c" x="2" y="82" rx="2" ry="2"/><rect class="c" x="2" y="98" rx="2" ry="2"/><rect class="c" x="18" y="2" rx="2" ry="2"/><rect class="c" x="18" y="18" rx="2" ry="2"/><rect class="c" x="18" y="34" rx="2" ry="2"/><rect class="c" x="18" y="50" rx="2" ry="2"/><rect class="c" x="18" y="66" rx="2" ry="2"/><rect class="c" x="18" y="82" rx="2" ry="2"/><rect class="c" x="18" y="98" rx="2" ry="2"/><rect class="c" x="34" y="2" rx="2" ry="2"/><rect class="c" x="34" y="18" rx="2" ry="2"/><rect class="c" x="34" y="34" rx="2" ry="2"/><rect class="c" x="34" y="50" rx="2" ry="2"/><rect class="c" x="34" y="66" rx="2" ry="2"/><rect class="c" x="34" y="82" rx="2" ry="2"/><rect class="c" x="34" y="98" rx="2" ry="2"/><rect class="c" x="50" y="2" rx="2" ry="2"/><rect class="c" x="50" y="18" rx="2" ry="2"/><rect class="c" x="50" y="34" rx="2" ry="2"/><rect class="c" x="50" y="50" rx="2" ry="2"/><rect class="c" x="50" y="66" rx="2" ry="2"/><rect class="c" x="50" y="82" rx="2" ry="2"/><rect class="c" x="50" y="98" rx="2" ry="2"/><rect class="c" x="66" y="2" rx="2" ry="2"/><rect class="c" x="66" y="18" rx="2" ry="2"/><rect class="c" x="66" y="34" rx="2" ry="2"/><rect class="c" x="66" y="50" rx="2" ry="2"/><rect class="c" x="66" y="66" rx="2" ry="2"/><rect class="c" x="66" y="82" rx="2" ry="2"/><rect class="c" x="66" y="98" rx="2" ry="2"/><rect class="c" x="82" y="2" rx="2" ry="2"/><rect class="c" x="82" y="18" rx="2" ry="2"/><rect class="c" x="82" y="34" rx="2" ry="2"/><rect class="c" x="82" y="50" rx="2" ry="2"/><rect class="c" x="82" y="66" rx="2" ry="2"/><rect class="c" x="82" y="82" rx="2" ry="2"/><rect class="c" x="82" y="98" rx="2" ry="2"/><rect class="c" x="98" y="2" rx="2" ry="2"/><rect class="c" x="98" y="18" rx="2" ry="2"/><rect class="c" x="98" y="34" rx="2" ry="2"/><rect class="c" x="98" y="50" rx="2" ry="2"/><rect class="c" x="98" y="66" rx="2" ry="2"/><rect class="c" x="98" y="82" rx="2" ry="2"/><rect class="c" x="98" y="98" rx="2" ry="2"/><rect class="c" x="114" y="2" rx="2" ry="2"/><rect class="c" x="114" y="18" rx="2" ry="2"/><rect class="c" x="114" y="34" rx="2" ry="2"/><rect class="c" x="114" y="50" rx="2" ry="2"/><rect class="c" x="114" y="66" rx="2" ry="2"/><rect class="c" x="114" y="82" rx="2" ry="2"/><rect class="c" x="114" y="98" rx="2" ry="2"/><rect class="c" x="130" y="2" rx="2" ry="2"/><rect class="c" x="130" y="18" rx="2" ry="2"/><rect class="c" x="130" y="34" rx="2" ry="2"/><rect class="c" x="130" y="50" rx="2" ry="2"/><rect class="c" x="130" y="66" rx="2" ry="2"/><rect class="c" x="130" y="82" rx="2" ry="2"/><rect class="c" x="130" y="98" rx="2" ry="2"/><rect class="c" x="146" y="2" rx="2" ry="2"/><rect class="c" x="146" y="18" rx="2" ry="2"/><rect class="c" x="146" y="34" rx="2" ry="2"/><rect class="c" x="146" y="50" rx="2" ry="2"/><rect class="c" x="146" y="66" rx="2" ry="2"/><rect class="c" x="146" y="82" rx="2" ry="2"/><rect class="c" x="146" y="98" rx="2" ry="2"/><rect class="c" x="162" y="2" rx="2" ry="2"/><rect class="c" x="162" y="18" rx="2" ry="2"/><rect class="c" x="162" y="34" rx="2" ry="2"/><rect class="c" x="162" y="50" rx="2" ry="2"/><rect class="c" x="162" y="66" rx="2" ry="2"/><rect class="c" x="162" y="82" rx="2" ry="2"/><rect class="c" x="162" y="98" rx="2" ry="2"/><rect class="c" x="178" y="2" rx="2" ry="2"/><rect class="c" x="178" y="18" rx="2" ry="2"/><rect class="c" x="178" y="34" rx="2" ry="2"/><rect class="c" x="178" y="50" rx="2" ry="2"/><rect class="c" x="178" y="66" rx="2" ry="2"/><rect class="c" x="178" y="82" rx="2" ry="2"/><rect class="c" x="178" y="98" rx="2" ry="2"/><rect class="c" x="194" y="2" rx="2" ry="2"/><rect class="c" x="194" y="18" rx="2" ry="2"/><rect class="c" x="194" y="34" rx="2" ry="2"/><rect class="c" x="194" y="50" rx="2" ry="2"/><rect class="c" x="194" y="66" rx="2" ry="2"/><rect class="c" x="194" y="82" rx="2" ry="2"/><rect class="c" x="194" y="98" rx="2" ry="2"/><rect class="c" x="210" y="2" rx="2" ry="2"/><rect class="c" x="210" y="18" rx="2" ry="2"/><rect class="c" x="210" y="34" rx="2" ry="2"/><rect class="c" x="210" y="50" rx="2" ry="2"/><rect class="c" x="210" y="66" rx="2" ry="2"/><rect class="c" x="210" y="82" rx="2" ry="2"/><rect class="c" x="210" y="98" rx="2" ry="2"/><rect class="c" x="226" y="2" rx="2" ry="2"/><rect class="c c0" x="226" y="18" rx="2" ry="2"/><rect class="c c1" x="226" y="34" rx="2" ry="2"/><rect class="c" x="226" y="50" rx="2" ry="2"/><rect class="c" x="226" y="66" rx="2" ry="2"/><rect class="c" x="226" y="82" rx="2" ry="2"/><rect class="c" x="226" y="98" rx="2" ry="2"/><rect class="c" x="242" y="2" rx="2" ry="2"/><rect class="c c2" x="242" y="18" rx="2" ry="2"/><rect class="c c3" x="242" y="34" rx="2" ry="2"/><rect class="c" x="242" y="50" rx="2" ry="2"/><rect class="c" x="242" y="66" rx="2" ry="2"/><rect class="c" x="242" y="82" rx="2" ry="2"/><rect class="c" x="242" y="98" rx="2" ry="2"/><rect class="c" x="258" y="2" rx="2" ry="2"/><rect class="c" x="258" y="18" rx="2" ry="2"/><rect class="c" x="258" y="34" rx="2" ry="2"/><rect class="c" x="258" y="50" rx="2" ry="2"/><rect class="c" x="258" y="66" rx="2" ry="2"/><rect class="c" x="258" y="82" rx="2" ry="2"/><rect class="c" x="258" y="98" rx="2" ry="2"/><rect class="c" x="274" y="2" rx="2" ry="2"/><rect class="c" x="274" y="18" rx="2" ry="2"/><rect class="c" x="274" y="34" rx="2" ry="2"/><rect class="c" x="274" y="50" rx="2" ry="2"/><rect class="c" x="274" y="66" rx="2" ry="2"/><rect class="c" x="274" y="82" rx="2" ry="2"/><rect class="c" x="274" y="98" rx="2" ry="2"/><rect class="c" x="290" y="2" rx="2" ry="2"/><rect class="c" x="290" y="18" rx="2" ry="2"/><rect class="c" x="290" y="34" rx="2" ry="2"/><rect class="c" x="290" y="50" rx="2" ry="2"/><rect class="c" x="290" y="66" rx="2" ry="2"/><rect class="c c4" x="290" y="82" rx="2" ry="2"/><rect class="c" x="290" y="98" rx="2" ry="2"/><rect class="c" x="306" y="2" rx="2" ry="2"/><rect class="c c5" x="306" y="18" rx="2" ry="2"/><rect class="c" x="306" y="34" rx="2" ry="2"/><rect class="c" x="306" y="50" rx="2" ry="2"/><rect class="c" x="306" y="66" rx="2" ry="2"/><rect class="c" x="306" y="82" rx="2" ry="2"/><rect class="c" x="306" y="98" rx="2" ry="2"/><rect class="c" x="322" y="2" rx="2" ry="2"/><rect class="c" x="322" y="18" rx="2" ry="2"/><rect class="c" x="322" y="34" rx="2" ry="2"/><rect class="c" x="322" y="50" rx="2" ry="2"/><rect class="c" x="322" y="66" rx="2" ry="2"/><rect class="c" x="322" y="82" rx="2" ry="2"/><rect class="c" x="322" y="98" rx="2" ry="2"/><rect class="c" x="338" y="2" rx="2" ry="2"/><rect class="c" x="338" y="18" rx="2" ry="2"/><rect class="c" x="338" y="34" rx="2" ry="2"/><rect class="c" x="338" y="50" rx="2" ry="2"/><rect class="c c6" x="338" y="66" rx="2" ry="2"/><rect class="c" x="338" y="82" rx="2" ry="2"/><rect class="c" x="338" y="98" rx="2" ry="2"/><rect class="c" x="354" y="2" rx="2" ry="2"/><rect class="c c7" x="354" y="18" rx="2" ry="2"/><rect class="c" x="354" y="34" rx="2" ry="2"/><rect class="c" x="354" y="50" rx="2" ry="2"/><rect class="c" x="354" y="66" rx="2" ry="2"/><rect class="c" x="354" y="82" rx="2" ry="2"/><rect class="c c8" x="354" y="98" rx="2" ry="2"/><rect class="c" x="370" y="2" rx="2" ry="2"/><rect class="c" x="370" y="18" rx="2" ry="2"/><rect class="c" x="370" y="34" rx="2" ry="2"/><rect class="c c9" x="370" y="50" rx="2" ry="2"/><rect class="c ca" x="370" y="66" rx="2" ry="2"/><rect class="c cb" x="370" y="82" rx="2" ry="2"/><rect class="c cc" x="370" y="98" rx="2" ry="2"/><rect class="c" x="386" y="2" rx="2" ry="2"/><rect class="c" x="386" y="18" rx="2" ry="2"/><rect class="c" x="386" y="34" rx="2" ry="2"/><rect class="c cd" x="386" y="50" rx="2" ry="2"/><rect class="c ce" x="386" y="66" rx="2" ry="2"/><rect class="c cf" x="386" y="82" rx="2" ry="2"/><rect class="c" x="386" y="98" rx="2" ry="2"/><rect class="c" x="402" y="2" rx="2" ry="2"/><rect class="c cg" x="402" y="18" rx="2" ry="2"/><rect class="c ch" x="402" y="34" rx="2" ry="2"/><rect class="c ci" x="402" y="50" rx="2" ry="2"/><rect class="c" x="402" y="66" rx="2" ry="2"/><rect class="c" x="402" y="82" rx="2" ry="2"/><rect class="c cj" x="402" y="98" rx="2" ry="2"/><rect class="c" x="418" y="2" rx="2" ry="2"/><rect class="c ck" x="418" y="18" rx="2" ry="2"/><rect class="c cl" x="418" y="34" rx="2" ry="2"/><rect class="c cm" x="418" y="50" rx="2" ry="2"/><rect class="c cn" x="418" y="66" rx="2" ry="2"/><rect class="c" x="418" y="82" rx="2" ry="2"/><rect class="c co" x="418" y="98" rx="2" ry="2"/><rect class="c" x="434" y="2" rx="2" ry="2"/><rect class="c cp" x="434" y="18" rx="2" ry="2"/><rect class="c" x="434" y="34" rx="2" ry="2"/><rect class="c" x="434" y="50" rx="2" ry="2"/><rect class="c cq" x="434" y="66" rx="2" ry="2"/><rect class="c" x="434" y="82" rx="2" ry="2"/><rect class="c" x="434" y="98" rx="2" ry="2"/><rect class="c" x="450" y="2" rx="2" ry="2"/><rect class="c" x="450" y="18" rx="2" ry="2"/><rect class="c cr" x="450" y="34" rx="2" ry="2"/><rect class="c cs" x="450" y="50" rx="2" ry="2"/><rect class="c" x="450" y="66" rx="2" ry="2"/><rect class="c ct" x="450" y="82" rx="2" ry="2"/><rect class="c" x="450" y="98" rx="2" ry="2"/><rect class="c" x="466" y="2" rx="2" ry="2"/><rect class="c cu" x="466" y="18" rx="2" ry="2"/><rect class="c cv" x="466" y="34" rx="2" ry="2"/><rect class="c" x="466" y="50" rx="2" ry="2"/><rect class="c cw" x="466" y="66" rx="2" ry="2"/><rect class="c cx" x="466" y="82" rx="2" ry="2"/><rect class="c" x="466" y="98" rx="2" ry="2"/><rect class="c" x="482" y="2" rx="2" ry="2"/><rect class="c" x="482" y="18" rx="2" ry="2"/><rect class="c cy" x="482" y="34" rx="2" ry="2"/><rect class="c" x="482" y="50" rx="2" ry="2"/><rect class="c" x="482" y="66" rx="2" ry="2"/><rect class="c" x="482" y="82" rx="2" ry="2"/><rect class="c" x="482" y="98" rx="2" ry="2"/><rect class="c" x="498" y="2" rx="2" ry="2"/><rect class="c" x="498" y="18" rx="2" ry="2"/><rect class="c" x="498" y="34" rx="2" ry="2"/><rect class="c" x="498" y="50" rx="2" ry="2"/><rect class="c" x="498" y="66" rx="2" ry="2"/><rect class="c" x="498" y="82" rx="2" ry="2"/><rect class="c" x="498" y="98" rx="2" ry="2"/><rect class="c" x="514" y="2" rx="2" ry="2"/><rect class="c" x="514" y="18" rx="2" ry="2"/><rect class="c" x="514" y="34" rx="2" ry="2"/><rect class="c" x="514" y="50" rx="2" ry="2"/><rect class="c" x="514" y="66" rx="2" ry="2"/><rect class="c" x="514" y="82" rx="2" ry="2"/><rect class="c" x="514" y="98" rx="2" ry="2"/><rect class="c" x="530" y="2" rx="2" ry="2"/><rect class="c cz" x="530" y="18" rx="2" ry="2"/><rect class="c c10" x="530" y="34" rx="2" ry="2"/><rect class="c" x="530" y="50" rx="2" ry="2"/><rect class="c" x="530" y="66" rx="2" ry="2"/><rect class="c" x="530" y="82" rx="2" ry="2"/><rect class="c" x="530" y="98" rx="2" ry="2"/><rect class="c" x="546" y="2" rx="2" ry="2"/><rect class="c" x="546" y="18" rx="2" ry="2"/><rect class="c" x="546" y="34" rx="2" ry="2"/><rect class="c c11" x="546" y="50" rx="2" ry="2"/><rect class="c" x="546" y="66" rx="2" ry="2"/><rect class="c" x="546" y="82" rx="2" ry="2"/><rect class="c" x="546" y="98" rx="2" ry="2"/><rect class="c" x="562" y="2" rx="2" ry="2"/><rect class="c" x="562" y="18" rx="2" ry="2"/><rect class="c" x="562" y="34" rx="2" ry="2"/><rect class="c" x="562" y="50" rx="2" ry="2"/><rect class="c c12" x="562" y="66" rx="2" ry="2"/><rect class="c c13" x="562" y="82" rx="2" ry="2"/><rect class="c" x="562" y="98" rx="2" ry="2"/><rect class="c" x="578" y="2" rx="2" ry="2"/><rect class="c" x="578" y="18" rx="2" ry="2"/><rect class="c" x="578" y="34" rx="2" ry="2"/><rect class="c" x="578" y="50" rx="2" ry="2"/><rect class="c c14" x="578" y="66" rx="2" ry="2"/><rect class="c" x="578" y="82" rx="2" ry="2"/><rect class="c" x="578" y="98" rx="2" ry="2"/><rect class="c" x="594" y="2" rx="2" ry="2"/><rect class="c" x="594" y="18" rx="2" ry="2"/><rect class="c" x="594" y="34" rx="2" ry="2"/><rect class="c" x="594" y="50" rx="2" ry="2"/><rect class="c" x="594" y="66" rx="2" ry="2"/><rect class="c" x="594" y="82" rx="2" ry="2"/><rect class="c" x="594" y="98" rx="2" ry="2"/><rect class="c" x="610" y="2" rx="2" ry="2"/><rect class="c" x="610" y="18" rx="2" ry="2"/><rect class="c" x="610" y="34" rx="2" ry="2"/><rect class="c" x="610" y="50" rx="2" ry="2"/><rect class="c" x="610" y="66" rx="2" ry="2"/><rect class="c c15" x="610" y="82" rx="2" ry="2"/><rect class="c" x="610" y="98" rx="2" ry="2"/><rect class="c" x="626" y="2" rx="2" ry="2"/><rect class="c c16" x="626" y="18" rx="2" ry="2"/><rect class="c c17" x="626" y="34" rx="2" ry="2"/><rect class="c c18" x="626" y="50" rx="2" ry="2"/><rect class="c" x="626" y="66" rx="2" ry="2"/><rect class="c" x="626" y="82" rx="2" ry="2"/><rect class="c" x="626" y="98" rx="2" ry="2"/><rect class="c" x="642" y="2" rx="2" ry="2"/><rect class="c" x="642" y="18" rx="2" ry="2"/><rect class="c" x="642" y="34" rx="2" ry="2"/><rect class="c c19" x="642" y="50" rx="2" ry="2"/><rect class="c" x="642" y="66" rx="2" ry="2"/><rect class="c" x="642" y="82" rx="2" ry="2"/><rect class="c" x="642" y="98" rx="2" ry="2"/><rect class="c" x="658" y="2" rx="2" ry="2"/><rect class="c" x="658" y="18" rx="2" ry="2"/><rect class="c" x="658" y="34" rx="2" ry="2"/><rect class="c" x="658" y="50" rx="2" ry="2"/><rect class="c" x="658" y="66" rx="2" ry="2"/><rect class="c" x="658" y="82" rx="2" ry="2"/><rect class="c" x="658" y="98" rx="2" ry="2"/><rect class="c" x="674" y="2" rx="2" ry="2"/><rect class="c" x="674" y="18" rx="2" ry="2"/><rect class="c" x="674" y="34" rx="2" ry="2"/><rect class="c c1a" x="674" y="50" rx="2" ry="2"/><rect class="c c1b" x="674" y="66" rx="2" ry="2"/><rect class="c c1c" x="674" y="82" rx="2" ry="2"/><rect class="c" x="674" y="98" rx="2" ry="2"/><rect class="c" x="690" y="2" rx="2" ry="2"/><rect class="c c1d" x="690" y="18" rx="2" ry="2"/><rect class="c" x="690" y="34" rx="2" ry="2"/><rect class="c c1e" x="690" y="50" rx="2" ry="2"/><rect class="c" x="690" y="66" rx="2" ry="2"/><rect class="c c1f" x="690" y="82" rx="2" ry="2"/><rect class="c" x="690" y="98" rx="2" ry="2"/><rect class="c" x="706" y="2" rx="2" ry="2"/><rect class="c" x="706" y="18" rx="2" ry="2"/><rect class="c c1g" x="706" y="34" rx="2" ry="2"/><rect class="c c1h" x="706" y="50" rx="2" ry="2"/><rect class="c c1i" x="706" y="66" rx="2" ry="2"/><rect class="c c1j" x="706" y="82" rx="2" ry="2"/><rect class="c c1k" x="706" y="98" rx="2" ry="2"/><rect class="c" x="722" y="2" rx="2" ry="2"/><rect class="c" x="722" y="18" rx="2" ry="2"/><rect class="c" x="722" y="34" rx="2" ry="2"/><rect class="c c1l" x="722" y="50" rx="2" ry="2"/><rect class="c c1m" x="722" y="66" rx="2" ry="2"/><rect class="c c1n" x="722" y="82" rx="2" ry="2"/><rect class="c" x="722" y="98" rx="2" ry="2"/><rect class="c" x="738" y="2" rx="2" ry="2"/><rect class="c" x="738" y="18" rx="2" ry="2"/><rect class="c" x="738" y="34" rx="2" ry="2"/><rect class="c" x="738" y="50" rx="2" ry="2"/><rect class="c" x="738" y="66" rx="2" ry="2"/><rect class="c c1o" x="738" y="82" rx="2" ry="2"/><rect class="c" x="738" y="98" rx="2" ry="2"/><rect class="c" x="754" y="2" rx="2" ry="2"/><rect class="c" x="754" y="18" rx="2" ry="2"/><rect class="c" x="754" y="34" rx="2" ry="2"/><rect class="c" x="754" y="50" rx="2" ry="2"/><rect class="c c1p" x="754" y="66" rx="2" ry="2"/><rect class="c" x="754" y="82" rx="2" ry="2"/><rect class="c" x="754" y="98" rx="2" ry="2"/><rect class="c" x="770" y="2" rx="2" ry="2"/><rect class="c c1q" x="770" y="18" rx="2" ry="2"/><rect class="c c1r" x="770" y="34" rx="2" ry="2"/><rect class="c" x="770" y="50" rx="2" ry="2"/><rect class="c" x="770" y="66" rx="2" ry="2"/><rect class="c" x="770" y="82" rx="2" ry="2"/><rect class="c" x="770" y="98" rx="2" ry="2"/><rect class="c" x="786" y="2" rx="2" ry="2"/><rect class="c" x="786" y="18" rx="2" ry="2"/><rect class="c" x="786" y="34" rx="2" ry="2"/><rect class="c" x="786" y="50" rx="2" ry="2"/><rect class="c" x="786" y="66" rx="2" ry="2"/><rect class="c" x="786" y="82" rx="2" ry="2"/><rect class="c" x="786" y="98" rx="2" ry="2"/><rect class="c" x="802" y="2" rx="2" ry="2"/><rect class="c" x="802" y="18" rx="2" ry="2"/><rect class="c c1s" x="802" y="34" rx="2" ry="2"/><rect class="c" x="802" y="50" rx="2" ry="2"/><rect class="c c1t" x="802" y="66" rx="2" ry="2"/><rect class="c c1u" x="802" y="82" rx="2" ry="2"/><rect class="c" x="802" y="98" rx="2" ry="2"/><rect class="c" x="818" y="2" rx="2" ry="2"/><rect class="c" x="818" y="18" rx="2" ry="2"/><rect class="c" x="818" y="34" rx="2" ry="2"/><rect class="c" x="818" y="50" rx="2" ry="2"/><rect class="c" x="818" y="66" rx="2" ry="2"/><rect class="c c1v" x="818" y="82" rx="2" ry="2"/><rect class="c" x="818" y="98" rx="2" ry="2"/><rect class="c" x="834" y="2" rx="2" ry="2"/><rect class="c c1w" x="834" y="18" rx="2" ry="2"/><rect class="u u0" height="12" width="664.3" x="0.0" y="144"/><rect class="u u1" height="12" width="135.8" x="663.7" y="144"/><rect class="u u2" height="12" width="37.5" x="798.8" y="144"/><rect class="u u3" height="12" width="12.9" x="835.7" y="144"/><rect class="s s0" x="0.8" y="0.8" width="14.4" height="14.4" rx="4.5" ry="4.5"/><rect class="s s1" x="1.8" y="1.8" width="12.3" height="12.3" rx="4.1" ry="4.1"/><rect class="s s2" x="2.6" y="2.6" width="10.8" height="10.8" rx="3.6" ry="3.6"/><rect class="s s3" x="3.0" y="3.0" width="9.9" height="9.9" rx="3.3" ry="3.3"/></svg>