<svg viewBox="-16 -32 880 192" width="880" height="192" xmlns="http://www.w3.org/2000/svg"><desc>Generated with https://github.com/Platane/snk</desc><style>:root{--cb:#1b1f230a;--cs:blue;--ce:#161b22;--c0:#161b22;--c1:#01311f;--c2:#034525;--c3:#0f6d31;--c4:#00c647}.c{shape-rendering:geometricPrecision;fill:var(--ce);stroke-width:1px;stroke:var(--cb);animation:none 35900ms linear infinite;width:12px;height:12px}@keyframes c0{4.17%{fill:var(--c1)}4.19%,100%{fill:var(--ce)}}.c.c0{fill:var(--c1);animation-name:c0}@keyframes c1{68.51%{fill:var(--c2)}68.53%,100%{fill:var(--ce)}}.c.c1{fill:var(--c2);animation-name:c1}@keyframes c2{67.96%{fill:var(--c2)}67.98%,100%{fill:var(--ce)}}.c.c2{fill:var(--c2);animation-name:c2}@keyframes c3{5.84%{fill:var(--c1)}5.86%,100%{fill:var(--ce)}}.c.c3{fill:var(--c1);animation-name:c3}@keyframes c4{14.2%{fill:var(--c1)}14.22%,100%{fill:var(--ce)}}.c.c4{fill:var(--c1);animation-name:c4}@keyframes c5{7.23%{fill:var(--c1)}7.25%,100%{fill:var(--ce)}}.c.c5{fill:var(--c1);animation-name:c5}@keyframes c6{13.08%{fill:var(--c1)}13.1%,100%{fill:var(--ce)}}.c.c6{fill:var(--c1);animation-name:c6}@keyframes c7{8.07%{fill:var(--c1)}8.09%,100%{fill:var(--ce)}}.c.c7{fill:var(--c1);animation-name:c7}@keyframes c8{12.25%{fill:var(--c1)}12.27%,100%{fill:var(--ce)}}.c.c8{fill:var(--c1);animation-name:c8}@keyframes c9{10.02%{fill:var(--c1)}10.04%,100%{fill:var(--ce)}}.c.c9{fill:var(--c1);animation-name:c9}@keyframes ca{10.3%{fill:var(--c1)}10.32%,100%{fill:var(--ce)}}.c.ca{fill:var(--c1);animation-name:ca}@keyframes cb{10.57%{fill:var(--c1)}10.59%,100%{fill:var(--ce)}}.c.cb{fill:var(--c1);animation-name:cb}@keyframes cc{11.97%{fill:var(--c1)}11.99%,100%{fill:var(--ce)}}.c.cc{fill:var(--c1);animation-name:cc}@keyframes cd{9.74%{fill:var(--c1)}9.76%,100%{fill:var(--ce)}}.c.cd{fill:var(--c1);animation-name:cd}@keyframes ce{72.97%{fill:var(--c3)}72.99%,100%{fill:var(--ce)}}.c.ce{fill:var(--c3);animation-name:ce}@keyframes cf{10.85%{fill:var(--c1)}10.87%,100%{fill:var(--ce)}}.c.cf{fill:var(--c1);animation-name:cf}@keyframes cg{8.9%{fill:var(--c1)}8.92%,100%{fill:var(--ce)}}.c.cg{fill:var(--c1);animation-name:cg}@keyframes ch{9.18%{fill:var(--c1)}9.2%,100%{fill:var(--ce)}}.c.ch{fill:var(--c1);animation-name:ch}@keyframes ci{44.56%{fill:var(--c2)}44.58%,100%{fill:var(--ce)}}.c.ci{fill:var(--c2);animation-name:ci}@keyframes cj{11.41%{fill:var(--c1)}11.43%,100%{fill:var(--ce)}}.c.cj{fill:var(--c1);animation-name:cj}@keyframes ck{45.39%{fill:var(--c2)}45.41%,100%{fill:var(--ce)}}.c.ck{fill:var(--c2);animation-name:ck}@keyframes cl{71.86%{fill:var(--c3)}71.88%,100%{fill:var(--ce)}}.c.cl{fill:var(--c3);animation-name:cl}@keyframes cm{16.98%{fill:var(--c1)}17%,100%{fill:var(--ce)}}.c.cm{fill:var(--c1);animation-name:cm}@keyframes cn{16.7%{fill:var(--c1)}16.72%,100%{fill:var(--ce)}}.c.cn{fill:var(--c1);animation-name:cn}@keyframes co{74.08%{fill:var(--c3)}74.1%,100%{fill:var(--ce)}}.c.co{fill:var(--c3);animation-name:co}@keyframes cp{75.76%{fill:var(--c4)}75.78%,100%{fill:var(--ce)}}.c.cp{fill:var(--c4);animation-name:cp}@keyframes cq{43.72%{fill:var(--c2)}43.74%,100%{fill:var(--ce)}}.c.cq{fill:var(--c2);animation-name:cq}@keyframes cr{17.82%{fill:var(--c1)}17.84%,100%{fill:var(--ce)}}.c.cr{fill:var(--c1);animation-name:cr}@keyframes cs{17.54%{fill:var(--c1)}17.56%,100%{fill:var(--ce)}}.c.cs{fill:var(--c1);animation-name:cs}@keyframes ct{43.17%{fill:var(--c1)}43.19%,100%{fill:var(--ce)}}.c.ct{fill:var(--c1);animation-name:ct}@keyframes cu{18.37%{fill:var(--c1)}18.39%,100%{fill:var(--ce)}}.c.cu{fill:var(--c1);animation-name:cu}@keyframes cv{47.07%{fill:var(--c2)}47.09%,100%{fill:var(--ce)}}.c.cv{fill:var(--c2);animation-name:cv}@keyframes cw{42.61%{fill:var(--c1)}42.63%,100%{fill:var(--ce)}}.c.cw{fill:var(--c1);animation-name:cw}@keyframes cx{42.89%{fill:var(--c1)}42.91%,100%{fill:var(--ce)}}.c.cx{fill:var(--c1);animation-name:cx}@keyframes cy{18.93%{fill:var(--c1)}18.95%,100%{fill:var(--ce)}}.c.cy{fill:var(--c1);animation-name:cy}@keyframes cz{20.05%{fill:var(--c1)}20.07%,100%{fill:var(--ce)}}.c.cz{fill:var(--c1);animation-name:cz}@keyframes c10{19.77%{fill:var(--c1)}19.79%,100%{fill:var(--ce)}}.c.c10{fill:var(--c1);animation-name:c10}@keyframes c11{20.88%{fill:var(--c1)}20.9%,100%{fill:var(--ce)}}.c.c11{fill:var(--c1);animation-name:c11}@keyframes c12{21.44%{fill:var(--c1)}21.46%,100%{fill:var(--ce)}}.c.c12{fill:var(--c1);animation-name:c12}@keyframes c13{22.27%{fill:var(--c1)}22.29%,100%{fill:var(--ce)}}.c.c13{fill:var(--c1);animation-name:c13}@keyframes c14{21.72%{fill:var(--c1)}21.74%,100%{fill:var(--ce)}}.c.c14{fill:var(--c1);animation-name:c14}@keyframes c15{23.67%{fill:var(--c1)}23.69%,100%{fill:var(--ce)}}.c.c15{fill:var(--c1);animation-name:c15}@keyframes c16{25.62%{fill:var(--c1)}25.64%,100%{fill:var(--ce)}}.c.c16{fill:var(--c1);animation-name:c16}@keyframes c17{25.34%{fill:var(--c1)}25.36%,100%{fill:var(--ce)}}.c.c17{fill:var(--c1);animation-name:c17}@keyframes c18{24.5%{fill:var(--c1)}24.52%,100%{fill:var(--ce)}}.c.c18{fill:var(--c1);animation-name:c18}@keyframes c19{24.78%{fill:var(--c1)}24.8%,100%{fill:var(--ce)}}.c.c19{fill:var(--c1);animation-name:c19}@keyframes c1a{50.96%{fill:var(--c2)}50.98%,100%{fill:var(--ce)}}.c.c1a{fill:var(--c2);animation-name:c1a}@keyframes c1b{51.24%{fill:var(--c2)}51.26%,100%{fill:var(--ce)}}.c.c1b{fill:var(--c2);animation-name:c1b}@keyframes c1c{30.35%{fill:var(--c1)}30.37%,100%{fill:var(--ce)}}.c.c1c{fill:var(--c1);animation-name:c1c}@keyframes c1d{26.73%{fill:var(--c1)}26.75%,100%{fill:var(--ce)}}.c.c1d{fill:var(--c1);animation-name:c1d}@keyframes c1e{28.96%{fill:var(--c1)}28.98%,100%{fill:var(--ce)}}.c.c1e{fill:var(--c1);animation-name:c1e}@keyframes c1f{30.07%{fill:var(--c1)}30.09%,100%{fill:var(--ce)}}.c.c1f{fill:var(--c1);animation-name:c1f}@keyframes c1g{27.29%{fill:var(--c1)}27.31%,100%{fill:var(--ce)}}.c.c1g{fill:var(--c1);animation-name:c1g}@keyframes c1h{27.57%{fill:var(--c1)}27.59%,100%{fill:var(--ce)}}.c.c1h{fill:var(--c1);animation-name:c1h}@keyframes c1i{28.4%{fill:var(--c1)}28.42%,100%{fill:var(--ce)}}.c.c1i{fill:var(--c1);animation-name:c1i}@keyframes c1j{29.8%{fill:var(--c1)}29.82%,100%{fill:var(--ce)}}.c.c1j{fill:var(--c1);animation-name:c1j}@keyframes c1k{53.47%{fill:var(--c2)}53.49%,100%{fill:var(--ce)}}.c.c1k{fill:var(--c2);animation-name:c1k}@keyframes c1l{27.85%{fill:var(--c1)}27.87%,100%{fill:var(--ce)}}.c.c1l{fill:var(--c1);animation-name:c1l}@keyframes c1m{28.12%{fill:var(--c1)}28.14%,100%{fill:var(--ce)}}.c.c1m{fill:var(--c1);animation-name:c1m}@keyframes c1n{52.36%{fill:var(--c2)}52.38%,100%{fill:var(--ce)}}.c.c1n{fill:var(--c2);animation-name:c1n}@keyframes c1o{52.64%{fill:var(--c2)}52.66%,100%{fill:var(--ce)}}.c.c1o{fill:var(--c2);animation-name:c1o}@keyframes c1p{32.58%{fill:var(--c1)}32.6%,100%{fill:var(--ce)}}.c.c1p{fill:var(--c1);animation-name:c1p}@keyframes c1q{36.48%{fill:var(--c1)}36.5%,100%{fill:var(--ce)}}.c.c1q{fill:var(--c1);animation-name:c1q}@keyframes c1r{36.2%{fill:var(--c1)}36.22%,100%{fill:var(--ce)}}.c.c1r{fill:var(--c1);animation-name:c1r}@keyframes c1s{35.64%{fill:var(--c1)}35.66%,100%{fill:var(--ce)}}.c.c1s{fill:var(--c1);animation-name:c1s}@keyframes c1t{33.42%{fill:var(--c1)}33.44%,100%{fill:var(--ce)}}.c.c1t{fill:var(--c1);animation-name:c1t}@keyframes c1u{33.69%{fill:var(--c1)}33.71%,100%{fill:var(--ce)}}.c.c1u{fill:var(--c1);animation-name:c1u}@keyframes c1v{33.97%{fill:var(--c1)}33.99%,100%{fill:var(--ce)}}.c.c1v{fill:var(--c1);animation-name:c1v}@keyframes c1w{57.09%{fill:var(--c2)}57.11%,100%{fill:var(--ce)}}.c.c1w{fill:var(--c2);animation-name:c1w}@keyframes c1x{34.81%{fill:var(--c1)}34.83%,100%{fill:var(--ce)}}.c.c1x{fill:var(--c1);animation-name:c1x}@keyframes c1y{83.56%{fill:var(--c4)}83.58%,100%{fill:var(--ce)}}.c.c1y{fill:var(--c4);animation-name:c1y}@keyframes c1z{83.83%{fill:var(--c4)}83.85%,100%{fill:var(--ce)}}.c.c1z{fill:var(--c4);animation-name:c1z}.u{transform-origin:0 0;transform:scale(0,1);animation:none linear 35900ms infinite}@keyframes u0{4.17%{transform:scale(0.000,1)}4.19%,5.84%{transform:scale(0.019,1)}5.86%,7.23%{transform:scale(0.037,1)}7.25%,8.07%{transform:scale(0.056,1)}8.09%,8.9%{transform:scale(0.074,1)}8.92%,9.18%{transform:scale(0.093,1)}9.2%,9.74%{transform:scale(0.111,1)}9.76%,10.02%{transform:scale(0.130,1)}10.04%,10.3%{transform:scale(0.148,1)}10.32%,10.57%{transform:scale(0.167,1)}10.59%,10.85%{transform:scale(0.185,1)}10.87%,11.41%{transform:scale(0.204,1)}11.43%,11.97%{transform:scale(0.222,1)}11.99%,12.25%{transform:scale(0.241,1)}12.27%,13.08%{transform:scale(0.259,1)}13.1%,14.2%{transform:scale(0.278,1)}14.22%,16.7%{transform:scale(0.296,1)}16.72%,16.98%{transform:scale(0.315,1)}17%,17.54%{transform:scale(0.333,1)}17.56%,17.82%{transform:scale(0.352,1)}17.84%,18.37%{transform:scale(0.370,1)}18.39%,18.93%{transform:scale(0.389,1)}18.95%,19.77%{transform:scale(0.407,1)}19.79%,20.05%{transform:scale(0.426,1)}20.07%,20.88%{transform:scale(0.444,1)}20.9%,21.44%{transform:scale(0.463,1)}21.46%,21.72%{transform:scale(0.481,1)}21.74%,22.27%{transform:scale(0.500,1)}22.29%,23.67%{transform:scale(0.519,1)}23.69%,24.5%{transform:scale(0.537,1)}24.52%,24.78%{transform:scale(0.556,1)}24.8%,25.34%{transform:scale(0.574,1)}25.36%,25.62%{transform:scale(0.593,1)}25.64%,26.73%{transform:scale(0.611,1)}26.75%,27.29%{transform:scale(0.630,1)}27.31%,27.57%{transform:scale(0.648,1)}27.59%,27.85%{transform:scale(0.667,1)}27.87%,28.12%{transform:scale(0.685,1)}28.14%,28.4%{transform:scale(0.704,1)}28.42%,28.96%{transform:scale(0.722,1)}28.98%,29.8%{transform:scale(0.741,1)}29.82%,30.07%{transform:scale(0.759,1)}30.09%,30.35%{transform:scale(0.778,1)}30.37%,32.58%{transform:scale(0.796,1)}32.6%,33.42%{transform:scale(0.815,1)}33.44%,33.69%{transform:scale(0.833,1)}33.71%,33.97%{transform:scale(0.852,1)}33.99%,34.81%{transform:scale(0.870,1)}34.83%,35.64%{transform:scale(0.889,1)}35.66%,36.2%{transform:scale(0.907,1)}36.22%,36.48%{transform:scale(0.926,1)}36.5%,42.61%{transform:scale(0.944,1)}42.63%,42.89%{transform:scale(0.963,1)}42.91%,43.17%{transform:scale(0.981,1)}43.19%,100%{transform:scale(1.000,1)}}.u.u0{fill:var(--c1);animation-name:u0;transform-origin:0.0px 0}@keyframes u1{43.72%{transform:scale(0.000,1)}43.74%,44.56%{transform:scale(0.083,1)}44.58%,45.39%{transform:scale(0.167,1)}45.41%,47.07%{transform:scale(0.250,1)}47.09%,50.96%{transform:scale(0.333,1)}50.98%,51.24%{transform:scale(0.417,1)}51.26%,52.36%{transform:scale(0.500,1)}52.38%,52.64%{transform:scale(0.583,1)}52.66%,53.47%{transform:scale(0.667,1)}53.49%,57.09%{transform:scale(0.750,1)}57.11%,67.96%{transform:scale(0.833,1)}67.98%,68.51%{transform:scale(0.917,1)}68.53%,100%{transform:scale(1.000,1)}}.u.u1{fill:var(--c2);animation-name:u1;transform-origin:636.0px 0}@keyframes u2{71.86%{transform:scale(0.000,1)}71.88%,72.97%{transform:scale(0.333,1)}72.99%,74.08%{transform:scale(0.667,1)}74.1%,100%{transform:scale(1.000,1)}}.u.u2{fill:var(--c3);animation-name:u2;transform-origin:777.3px 0}@keyframes u3{75.76%{transform:scale(0.000,1)}75.78%,83.56%{transform:scale(0.333,1)}83.58%,83.83%{transform:scale(0.667,1)}83.85%,100%{transform:scale(1.000,1)}}.u.u3{fill:var(--c4);animation-name:u3;transform-origin:812.7px 0}.s{shape-rendering:geometricPrecision;fill:var(--cs);animation:none linear 35900ms infinite}@keyframes s0{0%,99.72%{transform:translate(0px,-16px)}0.28%{transform:translate(0px,0px)}3.9%{transform:translate(208px,0px)}4.18%,68.25%{transform:translate(208px,16px)}4.46%{transform:translate(192px,16px)}5.01%{transform:translate(192px,48px)}5.57%{transform:translate(224px,48px)}5.85%{transform:translate(224px,32px)}6.96%{transform:translate(288px,32px)}7.24%{transform:translate(288px,16px)}8.91%,45.13%{transform:translate(384px,16px)}9.19%{transform:translate(384px,32px)}9.47%{transform:translate(368px,32px)}9.75%,72.7%{transform:translate(368px,48px)}10.03%{transform:translate(352px,48px)}10.58%{transform:translate(352px,80px)}11.14%{transform:translate(384px,80px)}11.42%{transform:translate(384px,96px)}12.26%{transform:translate(336px,96px)}12.81%{transform:translate(336px,64px)}13.93%{transform:translate(272px,64px)}14.21%{transform:translate(272px,80px)}16.43%{transform:translate(400px,80px)}16.99%,72.14%{transform:translate(400px,48px)}17.55%{transform:translate(432px,48px)}18.11%{transform:translate(432px,16px)}18.66%,41.5%{transform:translate(464px,16px)}18.94%{transform:translate(464px,32px)}19.78%{transform:translate(512px,32px)}20.06%{transform:translate(512px,16px)}20.33%{transform:translate(528px,16px)}20.89%{transform:translate(528px,48px)}21.17%{transform:translate(544px,48px)}21.45%,22.56%{transform:translate(544px,64px)}21.73%{transform:translate(560px,64px)}22.01%{transform:translate(560px,80px)}22.28%{transform:translate(544px,80px)}23.4%{transform:translate(592px,64px)}23.68%{transform:translate(592px,80px)}23.96%{transform:translate(608px,80px)}24.51%{transform:translate(608px,48px)}24.79%{transform:translate(624px,48px)}25.07%{transform:translate(624px,32px)}25.35%{transform:translate(608px,32px)}25.63%{transform:translate(608px,16px)}27.02%{transform:translate(688px,16px)}27.58%,29.25%{transform:translate(688px,48px)}27.86%{transform:translate(704px,48px)}28.13%,52.09%{transform:translate(704px,64px)}28.69%{transform:translate(672px,64px)}28.97%{transform:translate(672px,48px)}29.81%,31.48%,53.76%{transform:translate(688px,80px)}30.36%{transform:translate(656px,80px)}30.64%{transform:translate(656px,96px)}30.92%{transform:translate(672px,96px)}31.2%{transform:translate(672px,80px)}31.75%{transform:translate(688px,64px)}33.43%{transform:translate(784px,64px)}33.7%{transform:translate(784px,80px)}33.98%,55.71%{transform:translate(800px,80px)}34.54%,56.27%{transform:translate(800px,48px)}34.82%,56.55%{transform:translate(816px,48px)}35.1%{transform:translate(816px,32px)}36.21%{transform:translate(752px,32px)}36.49%{transform:translate(752px,16px)}42.06%{transform:translate(464px,48px)}42.34%{transform:translate(448px,48px)}42.9%{transform:translate(448px,80px)}43.18%{transform:translate(432px,80px)}43.45%{transform:translate(432px,64px)}43.73%{transform:translate(416px,64px)}44.01%{transform:translate(416px,48px)}44.57%{transform:translate(384px,48px)}45.4%{transform:translate(400px,16px)}45.68%{transform:translate(400px,0px)}46.52%{transform:translate(448px,0px)}47.08%{transform:translate(448px,32px)}50.7%{transform:translate(656px,32px)}51.25%{transform:translate(656px,64px)}52.37%{transform:translate(704px,80px)}52.65%{transform:translate(720px,80px)}52.92%{transform:translate(720px,96px)}53.48%{transform:translate(688px,96px)}57.38%{transform:translate(816px,0px)}67.69%{transform:translate(224px,0px)}67.97%{transform:translate(224px,16px)}68.52%{transform:translate(208px,32px)}71.87%{transform:translate(400px,32px)}72.98%{transform:translate(368px,64px)}73.54%{transform:translate(400px,64px)}74.09%{transform:translate(400px,96px)}74.37%{transform:translate(416px,96px)}75.77%{transform:translate(416px,16px)}82.73%{transform:translate(816px,16px)}83.84%{transform:translate(816px,80px)}96.66%{transform:translate(80px,80px)}97.21%{transform:translate(80px,48px)}97.77%{transform:translate(48px,48px)}98.89%{transform:translate(48px,-16px)}}.s.s0{transform:translate(0px,-16px);animation-name:s0}@keyframes s1{0%,99.72%{transform:translate(16px,-16px)}0.28%{transform:translate(0px,-16px)}0.56%{transform:translate(0px,0px)}4.18%{transform:translate(208px,0px)}4.46%,68.52%{transform:translate(208px,16px)}4.74%{transform:translate(192px,16px)}5.29%{transform:translate(192px,48px)}5.85%{transform:translate(224px,48px)}6.13%{transform:translate(224px,32px)}7.24%{transform:translate(288px,32px)}7.52%{transform:translate(288px,16px)}9.19%,45.4%{transform:translate(384px,16px)}9.47%{transform:translate(384px,32px)}9.75%{transform:translate(368px,32px)}10.03%,72.98%{transform:translate(368px,48px)}10.31%{transform:translate(352px,48px)}10.86%{transform:translate(352px,80px)}11.42%{transform:translate(384px,80px)}11.7%{transform:translate(384px,96px)}12.53%{transform:translate(336px,96px)}13.09%{transform:translate(336px,64px)}14.21%{transform:translate(272px,64px)}14.48%{transform:translate(272px,80px)}16.71%{transform:translate(400px,80px)}17.27%,72.42%{transform:translate(400px,48px)}17.83%{transform:translate(432px,48px)}18.38%{transform:translate(432px,16px)}18.94%,41.78%{transform:translate(464px,16px)}19.22%{transform:translate(464px,32px)}20.06%{transform:translate(512px,32px)}20.33%{transform:translate(512px,16px)}20.61%{transform:translate(528px,16px)}21.17%{transform:translate(528px,48px)}21.45%{transform:translate(544px,48px)}21.73%,22.84%{transform:translate(544px,64px)}22.01%{transform:translate(560px,64px)}22.28%{transform:translate(560px,80px)}22.56%{transform:translate(544px,80px)}23.68%{transform:translate(592px,64px)}23.96%{transform:translate(592px,80px)}24.23%{transform:translate(608px,80px)}24.79%{transform:translate(608px,48px)}25.07%{transform:translate(624px,48px)}25.35%{transform:translate(624px,32px)}25.63%{transform:translate(608px,32px)}25.91%{transform:translate(608px,16px)}27.3%{transform:translate(688px,16px)}27.86%,29.53%{transform:translate(688px,48px)}28.13%{transform:translate(704px,48px)}28.41%,52.37%{transform:translate(704px,64px)}28.97%{transform:translate(672px,64px)}29.25%{transform:translate(672px,48px)}30.08%,31.75%,54.04%{transform:translate(688px,80px)}30.64%{transform:translate(656px,80px)}30.92%{transform:translate(656px,96px)}31.2%{transform:translate(672px,96px)}31.48%{transform:translate(672px,80px)}32.03%{transform:translate(688px,64px)}33.7%{transform:translate(784px,64px)}33.98%{transform:translate(784px,80px)}34.26%,55.99%{transform:translate(800px,80px)}34.82%,56.55%{transform:translate(800px,48px)}35.1%,56.82%{transform:translate(816px,48px)}35.38%{transform:translate(816px,32px)}36.49%{transform:translate(752px,32px)}36.77%{transform:translate(752px,16px)}42.34%{transform:translate(464px,48px)}42.62%{transform:translate(448px,48px)}43.18%{transform:translate(448px,80px)}43.45%{transform:translate(432px,80px)}43.73%{transform:translate(432px,64px)}44.01%{transform:translate(416px,64px)}44.29%{transform:translate(416px,48px)}44.85%{transform:translate(384px,48px)}45.68%{transform:translate(400px,16px)}45.96%{transform:translate(400px,0px)}46.8%{transform:translate(448px,0px)}47.35%{transform:translate(448px,32px)}50.97%{transform:translate(656px,32px)}51.53%{transform:translate(656px,64px)}52.65%{transform:translate(704px,80px)}52.92%{transform:translate(720px,80px)}53.2%{transform:translate(720px,96px)}53.76%{transform:translate(688px,96px)}57.66%{transform:translate(816px,0px)}67.97%{transform:translate(224px,0px)}68.25%{transform:translate(224px,16px)}68.8%{transform:translate(208px,32px)}72.14%{transform:translate(400px,32px)}73.26%{transform:translate(368px,64px)}73.82%{transform:translate(400px,64px)}74.37%{transform:translate(400px,96px)}74.65%{transform:translate(416px,96px)}76.04%{transform:translate(416px,16px)}83.01%{transform:translate(816px,16px)}84.12%{transform:translate(816px,80px)}96.94%{transform:translate(80px,80px)}97.49%{transform:translate(80px,48px)}98.05%{transform:translate(48px,48px)}99.16%{transform:translate(48px,-16px)}}.s.s1{transform:translate(16px,-16px);animation-name:s1}@keyframes s2{0%,99.72%{transform:translate(32px,-16px)}0.56%{transform:translate(0px,-16px)}0.84%{transform:translate(0px,0px)}4.46%{transform:translate(208px,0px)}4.74%,68.8%{transform:translate(208px,16px)}5.01%{transform:translate(192px,16px)}5.57%{transform:translate(192px,48px)}6.13%{transform:translate(224px,48px)}6.41%{transform:translate(224px,32px)}7.52%{transform:translate(288px,32px)}7.8%{transform:translate(288px,16px)}9.47%,45.68%{transform:translate(384px,16px)}9.75%{transform:translate(384px,32px)}10.03%{transform:translate(368px,32px)}10.31%,73.26%{transform:translate(368px,48px)}10.58%{transform:translate(352px,48px)}11.14%{transform:translate(352px,80px)}11.7%{transform:translate(384px,80px)}11.98%{transform:translate(384px,96px)}12.81%{transform:translate(336px,96px)}13.37%{transform:translate(336px,64px)}14.48%{transform:translate(272px,64px)}14.76%{transform:translate(272px,80px)}16.99%{transform:translate(400px,80px)}17.55%,72.7%{transform:translate(400px,48px)}18.11%{transform:translate(432px,48px)}18.66%{transform:translate(432px,16px)}19.22%,42.06%{transform:translate(464px,16px)}19.5%{transform:translate(464px,32px)}20.33%{transform:translate(512px,32px)}20.61%{transform:translate(512px,16px)}20.89%{transform:translate(528px,16px)}21.45%{transform:translate(528px,48px)}21.73%{transform:translate(544px,48px)}22.01%,23.12%{transform:translate(544px,64px)}22.28%{transform:translate(560px,64px)}22.56%{transform:translate(560px,80px)}22.84%{transform:translate(544px,80px)}23.96%{transform:translate(592px,64px)}24.23%{transform:translate(592px,80px)}24.51%{transform:translate(608px,80px)}25.07%{transform:translate(608px,48px)}25.35%{transform:translate(624px,48px)}25.63%{transform:translate(624px,32px)}25.91%{transform:translate(608px,32px)}26.18%{transform:translate(608px,16px)}27.58%{transform:translate(688px,16px)}28.13%,29.81%{transform:translate(688px,48px)}28.41%{transform:translate(704px,48px)}28.69%,52.65%{transform:translate(704px,64px)}29.25%{transform:translate(672px,64px)}29.53%{transform:translate(672px,48px)}30.36%,32.03%,54.32%{transform:translate(688px,80px)}30.92%{transform:translate(656px,80px)}31.2%{transform:translate(656px,96px)}31.48%{transform:translate(672px,96px)}31.75%{transform:translate(672px,80px)}32.31%{transform:translate(688px,64px)}33.98%{transform:translate(784px,64px)}34.26%{transform:translate(784px,80px)}34.54%,56.27%{transform:translate(800px,80px)}35.1%,56.82%{transform:translate(800px,48px)}35.38%,57.1%{transform:translate(816px,48px)}35.65%{transform:translate(816px,32px)}36.77%{transform:translate(752px,32px)}37.05%{transform:translate(752px,16px)}42.62%{transform:translate(464px,48px)}42.9%{transform:translate(448px,48px)}43.45%{transform:translate(448px,80px)}43.73%{transform:translate(432px,80px)}44.01%{transform:translate(432px,64px)}44.29%{transform:translate(416px,64px)}44.57%{transform:translate(416px,48px)}45.13%{transform:translate(384px,48px)}45.96%{transform:translate(400px,16px)}46.24%{transform:translate(400px,0px)}47.08%{transform:translate(448px,0px)}47.63%{transform:translate(448px,32px)}51.25%{transform:translate(656px,32px)}51.81%{transform:translate(656px,64px)}52.92%{transform:translate(704px,80px)}53.2%{transform:translate(720px,80px)}53.48%{transform:translate(720px,96px)}54.04%{transform:translate(688px,96px)}57.94%{transform:translate(816px,0px)}68.25%{transform:translate(224px,0px)}68.52%{transform:translate(224px,16px)}69.08%{transform:translate(208px,32px)}72.42%{transform:translate(400px,32px)}73.54%{transform:translate(368px,64px)}74.09%{transform:translate(400px,64px)}74.65%{transform:translate(400px,96px)}74.93%{transform:translate(416px,96px)}76.32%{transform:translate(416px,16px)}83.29%{transform:translate(816px,16px)}84.4%{transform:translate(816px,80px)}97.21%{transform:translate(80px,80px)}97.77%{transform:translate(80px,48px)}98.33%{transform:translate(48px,48px)}99.44%{transform:translate(48px,-16px)}}.s.s2{transform:translate(32px,-16px);animation-name:s2}@keyframes s3{0%,99.72%{transform:translate(48px,-16px)}0.84%{transform:translate(0px,-16px)}1.11%{transform:translate(0px,0px)}4.74%{transform:translate(208px,0px)}5.01%,69.08%{transform:translate(208px,16px)}5.29%{transform:translate(192px,16px)}5.85%{transform:translate(192px,48px)}6.41%{transform:translate(224px,48px)}6.69%{transform:translate(224px,32px)}7.8%{transform:translate(288px,32px)}8.08%{transform:translate(288px,16px)}9.75%,45.96%{transform:translate(384px,16px)}10.03%{transform:translate(384px,32px)}10.31%{transform:translate(368px,32px)}10.58%,73.54%{transform:translate(368px,48px)}10.86%{transform:translate(352px,48px)}11.42%{transform:translate(352px,80px)}11.98%{transform:translate(384px,80px)}12.26%{transform:translate(384px,96px)}13.09%{transform:translate(336px,96px)}13.65%{transform:translate(336px,64px)}14.76%{transform:translate(272px,64px)}15.04%{transform:translate(272px,80px)}17.27%{transform:translate(400px,80px)}17.83%,72.98%{transform:translate(400px,48px)}18.38%{transform:translate(432px,48px)}18.94%{transform:translate(432px,16px)}19.5%,42.34%{transform:translate(464px,16px)}19.78%{transform:translate(464px,32px)}20.61%{transform:translate(512px,32px)}20.89%{transform:translate(512px,16px)}21.17%{transform:translate(528px,16px)}21.73%{transform:translate(528px,48px)}22.01%{transform:translate(544px,48px)}22.28%,23.4%{transform:translate(544px,64px)}22.56%{transform:translate(560px,64px)}22.84%{transform:translate(560px,80px)}23.12%{transform:translate(544px,80px)}24.23%{transform:translate(592px,64px)}24.51%{transform:translate(592px,80px)}24.79%{transform:translate(608px,80px)}25.35%{transform:translate(608px,48px)}25.63%{transform:translate(624px,48px)}25.91%{transform:translate(624px,32px)}26.18%{transform:translate(608px,32px)}26.46%{transform:translate(608px,16px)}27.86%{transform:translate(688px,16px)}28.41%,30.08%{transform:translate(688px,48px)}28.69%{transform:translate(704px,48px)}28.97%,52.92%{transform:translate(704px,64px)}29.53%{transform:translate(672px,64px)}29.81%{transform:translate(672px,48px)}30.64%,32.31%,54.6%{transform:translate(688px,80px)}31.2%{transform:translate(656px,80px)}31.48%{transform:translate(656px,96px)}31.75%{transform:translate(672px,96px)}32.03%{transform:translate(672px,80px)}32.59%{transform:translate(688px,64px)}34.26%{transform:translate(784px,64px)}34.54%{transform:translate(784px,80px)}34.82%,56.55%{transform:translate(800px,80px)}35.38%,57.1%{transform:translate(800px,48px)}35.65%,57.38%{transform:translate(816px,48px)}35.93%{transform:translate(816px,32px)}37.05%{transform:translate(752px,32px)}37.33%{transform:translate(752px,16px)}42.9%{transform:translate(464px,48px)}43.18%{transform:translate(448px,48px)}43.73%{transform:translate(448px,80px)}44.01%{transform:translate(432px,80px)}44.29%{transform:translate(432px,64px)}44.57%{transform:translate(416px,64px)}44.85%{transform:translate(416px,48px)}45.4%{transform:translate(384px,48px)}46.24%{transform:translate(400px,16px)}46.52%{transform:translate(400px,0px)}47.35%{transform:translate(448px,0px)}47.91%{transform:translate(448px,32px)}51.53%{transform:translate(656px,32px)}52.09%{transform:translate(656px,64px)}53.2%{transform:translate(704px,80px)}53.48%{transform:translate(720px,80px)}53.76%{transform:translate(720px,96px)}54.32%{transform:translate(688px,96px)}58.22%{transform:translate(816px,0px)}68.52%{transform:translate(224px,0px)}68.8%{transform:translate(224px,16px)}69.36%{transform:translate(208px,32px)}72.7%{transform:translate(400px,32px)}73.82%{transform:translate(368px,64px)}74.37%{transform:translate(400px,64px)}74.93%{transform:translate(400px,96px)}75.21%{transform:translate(416px,96px)}76.6%{transform:translate(416px,16px)}83.57%{transform:translate(816px,16px)}84.68%{transform:translate(816px,80px)}97.49%{transform:translate(80px,80px)}98.05%{transform:translate(80px,48px)}98.61%{transform:translate(48px,48px)}}.s.s3{transform:translate(48px,-16px);animation-name:s3}</style><rect class="c" x="2" y="2" rx="2" ry="2"/><rect class="c" x="2" y="18" rx="2" ry="2"/><rect class="c" x="2" y="34" rx="2" ry="2"/><rect class="c" x="2" y="50" rx="2" ry="2"/><rect class="c" x="2" y="66" rx="2" ry="2"/><rect class="c" x="2" y="82" rx="2" ry="2"/><rect class="c" x="2" y="98" rx="2" ry="2"/><rect class="c" x="18" y="2" rx="2" ry="2"/><rect class="c" x="18" y="18" rx="2" ry="2"/><rect class="c" x="18" y="34" rx="2" ry="2"/><rect class="c" x="18" y="50" rx="2" ry="2"/><rect class="c" x="18" y="66" rx="2" ry="2"/><rect class="c" x="18" y="82" rx="2" ry="2"/><rect class="c" x="18" y="98" rx="2" ry="2"/><rect class="c" x="34" y="2" rx="2" ry="2"/><rect class="c" x="34" y="18" rx="2" ry="2"/><rect class="c" x="34" y="34" rx="2" ry="2"/><rect class="c" x="34" y="50" rx="2" ry="2"/><rect class="c" x="34" y="66" rx="2" ry="2"/><rect class="c" x="34" y="82" rx="2" ry="2"/><rect class="c" x="34" y="98" rx="2" ry="2"/><rect class="c" x="50" y="2" rx="2" ry="2"/><rect class="c" x="50" y="18" rx="2" ry="2"/><rect class="c" x="50" y="34" rx="2" ry="2"/><rect class="c" x="50" y="50" rx="2" ry="2"/><rect class="c" x="50" y="66" rx="2" ry="2"/><rect class="c" x="50" y="82" rx="2" ry="2"/><rect class="c" x="50" y="98" rx="2" ry="2"/><rect class="c" x="66" y="2" rx="2" ry="2"/><rect class="c" x="66" y="18" rx="2" ry="2"/><rect class="c" x="66" y="34" rx="2" ry="2"/><rect class="c" x="66" y="50" rx="2" ry="2"/><rect class="c" x="66" y="66" rx="2" ry="2"/><rect class="c" x="66" y="82" rx="2" ry="2"/><rect class="c" x="66" y="98" rx="2" ry="2"/><rect class="c" x="82" y="2" rx="2" ry="2"/><rect class="c" x="82" y="18" rx="2" ry="2"/><rect class="c" x="82" y="34" rx="2" ry="2"/><rect class="c" x="82" y="50" rx="2" ry="2"/><rect class="c" x="82" y="66" rx="2" ry="2"/><rect class="c" x="82" y="82" rx="2" ry="2"/><rect class="c" x="82" y="98" rx="2" ry="2"/><rect class="c" x="98" y="2" rx="2" ry="2"/><rect class="c" x="98" y="18" rx="2" ry="2"/><rect class="c" x="98" y="34" rx="2" ry="2"/><rect class="c" x="98" y="50" rx="2" ry="2"/><rect class="c" x="98" y="66" rx="2" ry="2"/><rect class="c" x="98" y="82" rx="2" ry="2"/><rect class="c" x="98" y="98" rx="2" ry="2"/><rect class="c" x="114" y="2" rx="2" ry="2"/><rect class="c" x="114" y="18" rx="2" ry="2"/><rect class="c" x="114" y="34" rx="2" ry="2"/><rect class="c" x="114" y="50" rx="2" ry="2"/><rect class="c" x="114" y="66" rx="2" ry="2"/><rect class="c" x="114" y="82" rx="2" ry="2"/><rect class="c" x="114" y="98" rx="2" ry="2"/><rect class="c" x="130" y="2" rx="2" ry="2"/><rect class="c" x="130" y="18" rx="2" ry="2"/><rect class="c" x="130" y="34" rx="2" ry="2"/><rect class="c" x="130" y="50" rx="2" ry="2"/><rect class="c" x="130" y="66" rx="2" ry="2"/><rect class="c" x="130" y="82" rx="2" ry="2"/><rect class="c" x="130" y="98" rx="2" ry="2"/><rect class="c" x="146" y="2" rx="2" ry="2"/><rect class="c" x="146" y="18" rx="2" ry="2"/><rect class="c" x="146" y="34" rx="2" ry="2"/><rect class="c" x="146" y="50" rx="2" ry="2"/><rect class="c" x="146" y="66" rx="2" ry="2"/><rect class="c" x="146" y="82" rx="2" ry="2"/><rect class="c" x="146" y="98" rx="2" ry="2"/><rect class="c" x="162" y="2" rx="2" ry="2"/><rect class="c" x="162" y="18" rx="2" ry="2"/><rect class="c" x="162" y="34" rx="2" ry="2"/><rect class="c" x="162" y="50" rx="2" ry="2"/><rect class="c" x="162" y="66" rx="2" ry="2"/><rect class="c" x="162" y="82" rx="2" ry="2"/><rect class="c" x="162" y="98" rx="2" ry="2"/><rect class="c" x="178" y="2" rx="2" ry="2"/><rect class="c" x="178" y="18" rx="2" ry="2"/><rect class="c" x="178" y="34" rx="2" ry="2"/><rect class="c" x="178" y="50" rx="2" ry="2"/><rect class="c" x="178" y="66" rx="2" ry="2"/><rect class="c" x="178" y="82" rx="2" ry="2"/><rect class="c" x="178" y="98" rx="2" ry="2"/><rect class="c" x="194" y="2" rx="2" ry="2"/><rect class="c" x="194" y="18" rx="2" ry="2"/><rect class="c" x="194" y="34" rx="2" ry="2"/><rect class="c" x="194" y="50" rx="2" ry="2"/><rect class="c" x="194" y="66" rx="2" ry="2"/><rect class="c" x="194" y="82" rx="2" ry="2"/><rect class="c" x="194" y="98" rx="2" ry="2"/><rect class="c" x="210" y="2" rx="2" ry="2"/><rect class="c c0" x="210" y="18" rx="2" ry="2"/><rect class="c c1" x="210" y="34" rx="2" ry="2"/><rect class="c" x="210" y="50" rx="2" ry="2"/><rect class="c" x="210" y="66" rx="2" ry="2"/><rect class="c" x="210" y="82" rx="2" ry="2"/><rect class="c" x="210" y="98" rx="2" ry="2"/><rect class="c" x="226" y="2" rx="2" ry="2"/><rect class="c c2" x="226" y="18" rx="2" ry="2"/><rect class="c c3" x="226" y="34" rx="2" ry="2"/><rect class="c" x="226" y="50" rx="2" ry="2"/><rect class="c" x="226" y="66" rx="2" ry="2"/><rect class="c" x="226" y="82" rx="2" ry="2"/><rect class="c" x="226" y="98" rx="2" ry="2"/><rect class="c" x="242" y="2" rx="2" ry="2"/><rect class="c" x="242" y="18" rx="2" ry="2"/><rect class="c" x="242" y="34" rx="2" ry="2"/><rect class="c" x="242" y="50" rx="2" ry="2"/><rect class="c" x="242" y="66" rx="2" ry="2"/><rect class="c" x="242" y="82" rx="2" ry="2"/><rect class="c" x="242" y="98" rx="2" ry="2"/><rect class="c" x="258" y="2" rx="2" ry="2"/><rect class="c" x="258" y="18" rx="2" ry="2"/><rect class="c" x="258" y="34" rx="2" ry="2"/><rect class="c" x="258" y="50" rx="2" ry="2"/><rect class="c" x="258" y="66" rx="2" ry="2"/><rect class="c" x="258" y="82" rx="2" ry="2"/><rect class="c" x="258" y="98" rx="2" ry="2"/><rect class="c" x="274" y="2" rx="2" ry="2"/><rect class="c" x="274" y="18" rx="2" ry="2"/><rect class="c" x="274" y="34" rx="2" ry="2"/><rect class="c" x="274" y="50" rx="2" ry="2"/><rect class="c" x="274" y="66" rx="2" ry="2"/><rect class="c c4" x="274" y="82" rx="2" ry="2"/><rect class="c" x="274" y="98" rx="2" ry="2"/><rect class="c" x="290" y="2" rx="2" ry="2"/><rect class="c c5" x="290" y="18" rx="2" ry="2"/><rect class="c" x="290" y="34" rx="2" ry="2"/><rect class="c" x="290" y="50" rx="2" ry="2"/><rect class="c" x="290" y="66" rx="2" ry="2"/><rect class="c" x="290" y="82" rx="2" ry="2"/><rect class="c" x="290" y="98" rx="2" ry="2"/><rect class="c" x="306" y="2" rx="2" ry="2"/><rect class="c" x="306" y="18" rx="2" ry="2"/><rect class="c" x="306" y="34" rx="2" ry="2"/><rect class="c" x="306" y="50" rx="2" ry="2"/><rect class="c" x="306" y="66" rx="2" ry="2"/><rect class="c" x="306" y="82" rx="2" ry="2"/><rect class="c" x="306" y="98" rx="2" ry="2"/><rect class="c" x="322" y="2" rx="2" ry="2"/><rect class="c" x="322" y="18" rx="2" ry="2"/><rect class="c" x="322" y="34" rx="2" ry="2"/><rect class="c" x="322" y="50" rx="2" ry="2"/><rect class="c c6" x="322" y="66" rx="2" ry="2"/><rect class="c" x="322" y="82" rx="2" ry="2"/><rect class="c" x="322" y="98" rx="2" ry="2"/><rect class="c" x="338" y="2" rx="2" ry="2"/><rect class="c c7" x="338" y="18" rx="2" ry="2"/><rect class="c" x="338" y="34" rx="2" ry="2"/><rect class="c" x="338" y="50" rx="2" ry="2"/><rect class="c" x="338" y="66" rx="2" ry="2"/><rect class="c" x="338" y="82" rx="2" ry="2"/><rect class="c c8" x="338" y="98" rx="2" ry="2"/><rect class="c" x="354" y="2" rx="2" ry="2"/><rect class="c" x="354" y="18" rx="2" ry="2"/><rect class="c" x="354" y="34" rx="2" ry="2"/><rect class="c c9" x="354" y="50" rx="2" ry="2"/><rect class="c ca" x="354" y="66" rx="2" ry="2"/><rect class="c cb" x="354" y="82" rx="2" ry="2"/><rect class="c cc" x="354" y="98" rx="2" ry="2"/><rect class="c" x="370" y="2" rx="2" ry="2"/><rect class="c" x="370" y="18" rx="2" ry="2"/><rect class="c" x="370" y="34" rx="2" ry="2"/><rect class="c cd" x="370" y="50" rx="2" ry="2"/><rect class="c ce" x="370" y="66" rx="2" ry="2"/><rect class="c cf" x="370" y="82" rx="2" ry="2"/><rect class="c" x="370" y="98" rx="2" ry="2"/><rect class="c" x="386" y="2" rx="2" ry="2"/><rect class="c cg" x="386" y="18" rx="2" ry="2"/><rect class="c ch" x="386" y="34" rx="2" ry="2"/><rect class="c ci" x="386" y="50" rx="2" ry="2"/><rect class="c" x="386" y="66" rx="2" ry="2"/><rect class="c" x="386" y="82" rx="2" ry="2"/><rect class="c cj" x="386" y="98" rx="2" ry="2"/><rect class="c" x="402" y="2" rx="2" ry="2"/><rect class="c ck" x="402" y="18" rx="2" ry="2"/><rect class="c cl" x="402" y="34" rx="2" ry="2"/><rect class="c cm" x="402" y="50" rx="2" ry="2"/><rect class="c cn" x="402" y="66" rx="2" ry="2"/><rect class="c" x="402" y="82" rx="2" ry="2"/><rect class="c co" x="402" y="98" rx="2" ry="2"/><rect class="c" x="418" y="2" rx="2" ry="2"/><rect class="c cp" x="418" y="18" rx="2" ry="2"/><rect class="c" x="418" y="34" rx="2" ry="2"/><rect class="c" x="418" y="50" rx="2" ry="2"/><rect class="c cq" x="418" y="66" rx="2" ry="2"/><rect class="c" x="418" y="82" rx="2" ry="2"/><rect class="c" x="418" y="98" rx="2" ry="2"/><rect class="c" x="434" y="2" rx="2" ry="2"/><rect class="c" x="434" y="18" rx="2" ry="2"/><rect class="c cr" x="434" y="34" rx="2" ry="2"/><rect class="c cs" x="434" y="50" rx="2" ry="2"/><rect class="c" x="434" y="66" rx="2" ry="2"/><rect class="c ct" x="434" y="82" rx="2" ry="2"/><rect class="c" x="434" y="98" rx="2" ry="2"/><rect class="c" x="450" y="2" rx="2" ry="2"/><rect class="c cu" x="450" y="18" rx="2" ry="2"/><rect class="c cv" x="450" y="34" rx="2" ry="2"/><rect class="c" x="450" y="50" rx="2" ry="2"/><rect class="c cw" x="450" y="66" rx="2" ry="2"/><rect class="c cx" x="450" y="82" rx="2" ry="2"/><rect class="c" x="450" y="98" rx="2" ry="2"/><rect class="c" x="466" y="2" rx="2" ry="2"/><rect class="c" x="466" y="18" rx="2" ry="2"/><rect class="c cy" x="466" y="34" rx="2" ry="2"/><rect class="c" x="466" y="50" rx="2" ry="2"/><rect class="c" x="466" y="66" rx="2" ry="2"/><rect class="c" x="466" y="82" rx="2" ry="2"/><rect class="c" x="466" y="98" rx="2" ry="2"/><rect class="c" x="482" y="2" rx="2" ry="2"/><rect class="c" x="482" y="18" rx="2" ry="2"/><rect class="c" x="482" y="34" rx="2" ry="2"/><rect class="c" x="482" y="50" rx="2" ry="2"/><rect class="c" x="482" y="66" rx="2" ry="2"/><rect class="c" x="482" y="82" rx="2" ry="2"/><rect class="c" x="482" y="98" rx="2" ry="2"/><rect class="c" x="498" y="2" rx="2" ry="2"/><rect class="c" x="498" y="18" rx="2" ry="2"/><rect class="c" x="498" y="34" rx="2" ry="2"/><rect class="c" x="498" y="50" rx="2" ry="2"/><rect class="c" x="498" y="66" rx="2" ry="2"/><rect class="c" x="498" y="82" rx="2" ry="2"/><rect class="c" x="498" y="98" rx="2" ry="2"/><rect class="c" x="514" y="2" rx="2" ry="2"/><rect class="c cz" x="514" y="18" rx="2" ry="2"/><rect class="c c10" x="514" y="34" rx="2" ry="2"/><rect class="c" x="514" y="50" rx="2" ry="2"/><rect class="c" x="514" y="66" rx="2" ry="2"/><rect class="c" x="514" y="82" rx="2" ry="2"/><rect class="c" x="514" y="98" rx="2" ry="2"/><rect class="c" x="530" y="2" rx="2" ry="2"/><rect class="c" x="530" y="18" rx="2" ry="2"/><rect class="c" x="530" y="34" rx="2" ry="2"/><rect class="c c11" x="530" y="50" rx="2" ry="2"/><rect class="c" x="530" y="66" rx="2" ry="2"/><rect class="c" x="530" y="82" rx="2" ry="2"/><rect class="c" x="530" y="98" rx="2" ry="2"/><rect class="c" x="546" y="2" rx="2" ry="2"/><rect class="c" x="546" y="18" rx="2" ry="2"/><rect class="c" x="546" y="34" rx="2" ry="2"/><rect class="c" x="546" y="50" rx="2" ry="2"/><rect class="c c12" x="546" y="66" rx="2" ry="2"/><rect class="c c13" x="546" y="82" rx="2" ry="2"/><rect class="c" x="546" y="98" rx="2" ry="2"/><rect class="c" x="562" y="2" rx="2" ry="2"/><rect class="c" x="562" y="18" rx="2" ry="2"/><rect class="c" x="562" y="34" rx="2" ry="2"/><rect class="c" x="562" y="50" rx="2" ry="2"/><rect class="c c14" x="562" y="66" rx="2" ry="2"/><rect class="c" x="562" y="82" rx="2" ry="2"/><rect class="c" x="562" y="98" rx="2" ry="2"/><rect class="c" x="578" y="2" rx="2" ry="2"/><rect class="c" x="578" y="18" rx="2" ry="2"/><rect class="c" x="578" y="34" rx="2" ry="2"/><rect class="c" x="578" y="50" rx="2" ry="2"/><rect class="c" x="578" y="66" rx="2" ry="2"/><rect class="c" x="578" y="82" rx="2" ry="2"/><rect class="c" x="578" y="98" rx="2" ry="2"/><rect class="c" x="594" y="2" rx="2" ry="2"/><rect class="c" x="594" y="18" rx="2" ry="2"/><rect class="c" x="594" y="34" rx="2" ry="2"/><rect class="c" x="594" y="50" rx="2" ry="2"/><rect class="c" x="594" y="66" rx="2" ry="2"/><rect class="c c15" x="594" y="82" rx="2" ry="2"/><rect class="c" x="594" y="98" rx="2" ry="2"/><rect class="c" x="610" y="2" rx="2" ry="2"/><rect class="c c16" x="610" y="18" rx="2" ry="2"/><rect class="c c17" x="610" y="34" rx="2" ry="2"/><rect class="c c18" x="610" y="50" rx="2" ry="2"/><rect class="c" x="610" y="66" rx="2" ry="2"/><rect class="c" x="610" y="82" rx="2" ry="2"/><rect class="c" x="610" y="98" rx="2" ry="2"/><rect class="c" x="626" y="2" rx="2" ry="2"/><rect class="c" x="626" y="18" rx="2" ry="2"/><rect class="c" x="626" y="34" rx="2" ry="2"/><rect class="c c19" x="626" y="50" rx="2" ry="2"/><rect class="c" x="626" y="66" rx="2" ry="2"/><rect class="c" x="626" y="82" rx="2" ry="2"/><rect class="c" x="626" y="98" rx="2" ry="2"/><rect class="c" x="642" y="2" rx="2" ry="2"/><rect class="c" x="642" y="18" rx="2" ry="2"/><rect class="c" x="642" y="34" rx="2" ry="2"/><rect class="c" x="642" y="50" rx="2" ry="2"/><rect class="c" x="642" y="66" rx="2" ry="2"/><rect class="c" x="642" y="82" rx="2" ry="2"/><rect class="c" x="642" y="98" rx="2" ry="2"/><rect class="c" x="658" y="2" rx="2" ry="2"/><rect class="c" x="658" y="18" rx="2" ry="2"/><rect class="c" x="658" y="34" rx="2" ry="2"/><rect class="c c1a" x="658" y="50" rx="2" ry="2"/><rect class="c c1b" x="658" y="66" rx="2" ry="2"/><rect class="c c1c" x="658" y="82" rx="2" ry="2"/><rect class="c" x="658" y="98" rx="2" ry="2"/><rect class="c" x="674" y="2" rx="2" ry="2"/><rect class="c c1d" x="674" y="18" rx="2" ry="2"/><rect class="c" x="674" y="34" rx="2" ry="2"/><rect class="c c1e" x="674" y="50" rx="2" ry="2"/><rect class="c" x="674" y="66" rx="2" ry="2"/><rect class="c c1f" x="674" y="82" rx="2" ry="2"/><rect class="c" x="674" y="98" rx="2" ry="2"/><rect class="c" x="690" y="2" rx="2" ry="2"/><rect class="c" x="690" y="18" rx="2" ry="2"/><rect class="c c1g" x="690" y="34" rx="2" ry="2"/><rect class="c c1h" x="690" y="50" rx="2" ry="2"/><rect class="c c1i" x="690" y="66" rx="2" ry="2"/><rect class="c c1j" x="690" y="82" rx="2" ry="2"/><rect class="c c1k" x="690" y="98" rx="2" ry="2"/><rect class="c" x="706" y="2" rx="2" ry="2"/><rect class="c" x="706" y="18" rx="2" ry="2"/><rect class="c" x="706" y="34" rx="2" ry="2"/><rect class="c c1l" x="706" y="50" rx="2" ry="2"/><rect class="c c1m" x="706" y="66" rx="2" ry="2"/><rect class="c c1n" x="706" y="82" rx="2" ry="2"/><rect class="c" x="706" y="98" rx="2" ry="2"/><rect class="c" x="722" y="2" rx="2" ry="2"/><rect class="c" x="722" y="18" rx="2" ry="2"/><rect class="c" x="722" y="34" rx="2" ry="2"/><rect class="c" x="722" y="50" rx="2" ry="2"/><rect class="c" x="722" y="66" rx="2" ry="2"/><rect class="c c1o" x="722" y="82" rx="2" ry="2"/><rect class="c" x="722" y="98" rx="2" ry="2"/><rect class="c" x="738" y="2" rx="2" ry="2"/><rect class="c" x="738" y="18" rx="2" ry="2"/><rect class="c" x="738" y="34" rx="2" ry="2"/><rect class="c" x="738" y="50" rx="2" ry="2"/><rect class="c c1p" x="738" y="66" rx="2" ry="2"/><rect class="c" x="738" y="82" rx="2" ry="2"/><rect class="c" x="738" y="98" rx="2" ry="2"/><rect class="c" x="754" y="2" rx="2" ry="2"/><rect class="c c1q" x="754" y="18" rx="2" ry="2"/><rect class="c c1r" x="754" y="34" rx="2" ry="2"/><rect class="c" x="754" y="50" rx="2" ry="2"/><rect class="c" x="754" y="66" rx="2" ry="2"/><rect class="c" x="754" y="82" rx="2" ry="2"/><rect class="c" x="754" y="98" rx="2" ry="2"/><rect class="c" x="770" y="2" rx="2" ry="2"/><rect class="c" x="770" y="18" rx="2" ry="2"/><rect class="c" x="770" y="34" rx="2" ry="2"/><rect class="c" x="770" y="50" rx="2" ry="2"/><rect class="c" x="770" y="66" rx="2" ry="2"/><rect class="c" x="770" y="82" rx="2" ry="2"/><rect class="c" x="770" y="98" rx="2" ry="2"/><rect class="c" x="786" y="2" rx="2" ry="2"/><rect class="c" x="786" y="18" rx="2" ry="2"/><rect class="c c1s" x="786" y="34" rx="2" ry="2"/><rect class="c" x="786" y="50" rx="2" ry="2"/><rect class="c c1t" x="786" y="66" rx="2" ry="2"/><rect class="c c1u" x="786" y="82" rx="2" ry="2"/><rect class="c" x="786" y="98" rx="2" ry="2"/><rect class="c" x="802" y="2" rx="2" ry="2"/><rect class="c" x="802" y="18" rx="2" ry="2"/><rect class="c" x="802" y="34" rx="2" ry="2"/><rect class="c" x="802" y="50" rx="2" ry="2"/><rect class="c" x="802" y="66" rx="2" ry="2"/><rect class="c c1v" x="802" y="82" rx="2" ry="2"/><rect class="c" x="802" y="98" rx="2" ry="2"/><rect class="c" x="818" y="2" rx="2" ry="2"/><rect class="c c1w" x="818" y="18" rx="2" ry="2"/><rect class="c" x="818" y="34" rx="2" ry="2"/><rect class="c c1x" x="818" y="50" rx="2" ry="2"/><rect class="c c1y" x="818" y="66" rx="2" ry="2"/><rect class="c c1z" x="818" y="82" rx="2" ry="2"/><rect class="c" x="818" y="98" rx="2" ry="2"/><rect class="c" x="834" y="2" rx="2" ry="2"/><rect class="c" x="834" y="18" rx="2" ry="2"/><rect class="u u0" height="12" width="636.6" x="0.0" y="144"/><rect class="u u1" height="12" width="141.9" x="636.0" y="144"/><rect class="u u2" height="12" width="35.9" x="777.3" y="144"/><rect class="u u3" height="12" width="35.9" x="812.7" y="144"/><rect class="s s0" x="0.8" y="0.8" width="14.4" height="14.4" rx="4.5" ry="4.5"/><rect class="s s1" x="1.8" y="1.8" width="12.3" height="12.3" rx="4.1" ry="4.1"/><rect class="s s2" x="2.6" y="2.6" width="10.8" height="10.8" rx="3.6" ry="3.6"/><rect class="s s3" x="3.0" y="3.0" width="9.9" height="9.9" rx="3.3" ry="3.3"/></svg>