<svg viewBox="-16 -32 880 192" width="880" height="192" xmlns="http://www.w3.org/2000/svg"><desc>Generated with https://github.com/Platane/snk</desc><style>:root{--cb:#1b1f230a;--cs:blue;--ce:#161b22;--c0:#161b22;--c1:#01311f;--c2:#034525;--c3:#0f6d31;--c4:#00c647}.c{shape-rendering:geometricPrecision;fill:var(--ce);stroke-width:1px;stroke:var(--cb);animation:none 26900ms linear infinite;width:12px;height:12px}@keyframes c0{8.54%{fill:var(--c1)}8.56%,100%{fill:var(--ce)}}.c.c0{fill:var(--c1);animation-name:c0}@keyframes c1{76.57%{fill:var(--c2)}76.59%,100%{fill:var(--ce)}}.c.c1{fill:var(--c2);animation-name:c1}@keyframes c2{75.83%{fill:var(--c2)}75.85%,100%{fill:var(--ce)}}.c.c2{fill:var(--c2);animation-name:c2}@keyframes c3{10.77%{fill:var(--c1)}10.79%,100%{fill:var(--ce)}}.c.c3{fill:var(--c1);animation-name:c3}@keyframes c4{21.92%{fill:var(--c1)}21.94%,100%{fill:var(--ce)}}.c.c4{fill:var(--c1);animation-name:c4}@keyframes c5{12.63%{fill:var(--c1)}12.65%,100%{fill:var(--ce)}}.c.c5{fill:var(--c1);animation-name:c5}@keyframes c6{20.44%{fill:var(--c1)}20.46%,100%{fill:var(--ce)}}.c.c6{fill:var(--c1);animation-name:c6}@keyframes c7{13.74%{fill:var(--c1)}13.76%,100%{fill:var(--ce)}}.c.c7{fill:var(--c1);animation-name:c7}@keyframes c8{19.32%{fill:var(--c1)}19.34%,100%{fill:var(--ce)}}.c.c8{fill:var(--c1);animation-name:c8}@keyframes c9{16.35%{fill:var(--c1)}16.37%,100%{fill:var(--ce)}}.c.c9{fill:var(--c1);animation-name:c9}@keyframes ca{16.72%{fill:var(--c1)}16.74%,100%{fill:var(--ce)}}.c.ca{fill:var(--c1);animation-name:ca}@keyframes cb{17.09%{fill:var(--c1)}17.11%,100%{fill:var(--ce)}}.c.cb{fill:var(--c1);animation-name:cb}@keyframes cc{18.95%{fill:var(--c1)}18.97%,100%{fill:var(--ce)}}.c.cc{fill:var(--c1);animation-name:cc}@keyframes cd{15.98%{fill:var(--c1)}16%,100%{fill:var(--ce)}}.c.cd{fill:var(--c1);animation-name:cd}@keyframes ce{82.52%{fill:var(--c3)}82.54%,100%{fill:var(--ce)}}.c.ce{fill:var(--c3);animation-name:ce}@keyframes cf{17.46%{fill:var(--c1)}17.48%,100%{fill:var(--ce)}}.c.cf{fill:var(--c1);animation-name:cf}@keyframes cg{14.86%{fill:var(--c1)}14.88%,100%{fill:var(--ce)}}.c.cg{fill:var(--c1);animation-name:cg}@keyframes ch{15.23%{fill:var(--c1)}15.25%,100%{fill:var(--ce)}}.c.ch{fill:var(--c1);animation-name:ch}@keyframes ci{52.78%{fill:var(--c2)}52.8%,100%{fill:var(--ce)}}.c.ci{fill:var(--c2);animation-name:ci}@keyframes cj{18.21%{fill:var(--c1)}18.23%,100%{fill:var(--ce)}}.c.cj{fill:var(--c1);animation-name:cj}@keyframes ck{53.89%{fill:var(--c2)}53.91%,100%{fill:var(--ce)}}.c.ck{fill:var(--c2);animation-name:ck}@keyframes cl{81.03%{fill:var(--c3)}81.05%,100%{fill:var(--ce)}}.c.cl{fill:var(--c3);animation-name:cl}@keyframes cm{25.64%{fill:var(--c1)}25.66%,100%{fill:var(--ce)}}.c.cm{fill:var(--c1);animation-name:cm}@keyframes cn{25.27%{fill:var(--c1)}25.29%,100%{fill:var(--ce)}}.c.cn{fill:var(--c1);animation-name:cn}@keyframes co{84%{fill:var(--c3)}84.02%,100%{fill:var(--ce)}}.c.co{fill:var(--c3);animation-name:co}@keyframes cp{86.24%{fill:var(--c4)}86.26%,100%{fill:var(--ce)}}.c.cp{fill:var(--c4);animation-name:cp}@keyframes cq{51.66%{fill:var(--c2)}51.68%,100%{fill:var(--ce)}}.c.cq{fill:var(--c2);animation-name:cq}@keyframes cr{26.76%{fill:var(--c1)}26.78%,100%{fill:var(--ce)}}.c.cr{fill:var(--c1);animation-name:cr}@keyframes cs{26.38%{fill:var(--c1)}26.4%,100%{fill:var(--ce)}}.c.cs{fill:var(--c1);animation-name:cs}@keyframes ct{50.92%{fill:var(--c1)}50.94%,100%{fill:var(--ce)}}.c.ct{fill:var(--c1);animation-name:ct}@keyframes cu{27.5%{fill:var(--c1)}27.52%,100%{fill:var(--ce)}}.c.cu{fill:var(--c1);animation-name:cu}@keyframes cv{56.12%{fill:var(--c2)}56.14%,100%{fill:var(--ce)}}.c.cv{fill:var(--c2);animation-name:cv}@keyframes cw{50.18%{fill:var(--c1)}50.2%,100%{fill:var(--ce)}}.c.cw{fill:var(--c1);animation-name:cw}@keyframes cx{49.8%{fill:var(--c1)}49.82%,100%{fill:var(--ce)}}.c.cx{fill:var(--c1);animation-name:cx}@keyframes cy{28.24%{fill:var(--c1)}28.26%,100%{fill:var(--ce)}}.c.cy{fill:var(--c1);animation-name:cy}@keyframes cz{29.73%{fill:var(--c1)}29.75%,100%{fill:var(--ce)}}.c.cz{fill:var(--c1);animation-name:cz}@keyframes c10{29.36%{fill:var(--c1)}29.38%,100%{fill:var(--ce)}}.c.c10{fill:var(--c1);animation-name:c10}@keyframes c11{30.85%{fill:var(--c1)}30.87%,100%{fill:var(--ce)}}.c.c11{fill:var(--c1);animation-name:c11}@keyframes c12{31.59%{fill:var(--c1)}31.61%,100%{fill:var(--ce)}}.c.c12{fill:var(--c1);animation-name:c12}@keyframes c13{32.7%{fill:var(--c1)}32.72%,100%{fill:var(--ce)}}.c.c13{fill:var(--c1);animation-name:c13}@keyframes c14{31.96%{fill:var(--c1)}31.98%,100%{fill:var(--ce)}}.c.c14{fill:var(--c1);animation-name:c14}@keyframes c15{34.56%{fill:var(--c1)}34.58%,100%{fill:var(--ce)}}.c.c15{fill:var(--c1);animation-name:c15}@keyframes c16{37.16%{fill:var(--c1)}37.18%,100%{fill:var(--ce)}}.c.c16{fill:var(--c1);animation-name:c16}@keyframes c17{36.79%{fill:var(--c1)}36.81%,100%{fill:var(--ce)}}.c.c17{fill:var(--c1);animation-name:c17}@keyframes c18{35.68%{fill:var(--c1)}35.7%,100%{fill:var(--ce)}}.c.c18{fill:var(--c1);animation-name:c18}@keyframes c19{36.05%{fill:var(--c1)}36.07%,100%{fill:var(--ce)}}.c.c19{fill:var(--c1);animation-name:c19}@keyframes c1a{61.33%{fill:var(--c2)}61.35%,100%{fill:var(--ce)}}.c.c1a{fill:var(--c2);animation-name:c1a}@keyframes c1b{61.7%{fill:var(--c2)}61.72%,100%{fill:var(--ce)}}.c.c1b{fill:var(--c2);animation-name:c1b}@keyframes c1c{44.97%{fill:var(--c1)}44.99%,100%{fill:var(--ce)}}.c.c1c{fill:var(--c1);animation-name:c1c}@keyframes c1d{38.65%{fill:var(--c1)}38.67%,100%{fill:var(--ce)}}.c.c1d{fill:var(--c1);animation-name:c1d}@keyframes c1e{41.63%{fill:var(--c1)}41.65%,100%{fill:var(--ce)}}.c.c1e{fill:var(--c1);animation-name:c1e}@keyframes c1f{44.6%{fill:var(--c1)}44.62%,100%{fill:var(--ce)}}.c.c1f{fill:var(--c1);animation-name:c1f}@keyframes c1g{39.4%{fill:var(--c1)}39.42%,100%{fill:var(--ce)}}.c.c1g{fill:var(--c1);animation-name:c1g}@keyframes c1h{39.77%{fill:var(--c1)}39.79%,100%{fill:var(--ce)}}.c.c1h{fill:var(--c1);animation-name:c1h}@keyframes c1i{40.88%{fill:var(--c1)}40.9%,100%{fill:var(--ce)}}.c.c1i{fill:var(--c1);animation-name:c1i}@keyframes c1j{42.74%{fill:var(--c1)}42.76%,100%{fill:var(--ce)}}.c.c1j{fill:var(--c1);animation-name:c1j}@keyframes c1k{63.19%{fill:var(--c2)}63.21%,100%{fill:var(--ce)}}.c.c1k{fill:var(--c2);animation-name:c1k}@keyframes c1l{40.14%{fill:var(--c1)}40.16%,100%{fill:var(--ce)}}.c.c1l{fill:var(--c1);animation-name:c1l}@keyframes c1m{40.51%{fill:var(--c1)}40.53%,100%{fill:var(--ce)}}.c.c1m{fill:var(--c1);animation-name:c1m}@keyframes c1n{43.11%{fill:var(--c1)}43.13%,100%{fill:var(--ce)}}.c.c1n{fill:var(--c1);animation-name:c1n}.u{transform-origin:0 0;transform:scale(0,1);animation:none linear 26900ms infinite}@keyframes u0{8.54%{transform:scale(0.000,1)}8.56%,10.77%{transform:scale(0.021,1)}10.79%,12.63%{transform:scale(0.043,1)}12.65%,13.74%{transform:scale(0.064,1)}13.76%,14.86%{transform:scale(0.085,1)}14.88%,15.23%{transform:scale(0.106,1)}15.25%,15.98%{transform:scale(0.128,1)}16%,16.35%{transform:scale(0.149,1)}16.37%,16.72%{transform:scale(0.170,1)}16.74%,17.09%{transform:scale(0.191,1)}17.11%,17.46%{transform:scale(0.213,1)}17.48%,18.21%{transform:scale(0.234,1)}18.23%,18.95%{transform:scale(0.255,1)}18.97%,19.32%{transform:scale(0.277,1)}19.34%,20.44%{transform:scale(0.298,1)}20.46%,21.92%{transform:scale(0.319,1)}21.94%,25.27%{transform:scale(0.340,1)}25.29%,25.64%{transform:scale(0.362,1)}25.66%,26.38%{transform:scale(0.383,1)}26.4%,26.76%{transform:scale(0.404,1)}26.78%,27.5%{transform:scale(0.426,1)}27.52%,28.24%{transform:scale(0.447,1)}28.26%,29.36%{transform:scale(0.468,1)}29.38%,29.73%{transform:scale(0.489,1)}29.75%,30.85%{transform:scale(0.511,1)}30.87%,31.59%{transform:scale(0.532,1)}31.61%,31.96%{transform:scale(0.553,1)}31.98%,32.7%{transform:scale(0.574,1)}32.72%,34.56%{transform:scale(0.596,1)}34.58%,35.68%{transform:scale(0.617,1)}35.7%,36.05%{transform:scale(0.638,1)}36.07%,36.79%{transform:scale(0.660,1)}36.81%,37.16%{transform:scale(0.681,1)}37.18%,38.65%{transform:scale(0.702,1)}38.67%,39.4%{transform:scale(0.723,1)}39.42%,39.77%{transform:scale(0.745,1)}39.79%,40.14%{transform:scale(0.766,1)}40.16%,40.51%{transform:scale(0.787,1)}40.53%,40.88%{transform:scale(0.809,1)}40.9%,41.63%{transform:scale(0.830,1)}41.65%,42.74%{transform:scale(0.851,1)}42.76%,43.11%{transform:scale(0.872,1)}43.13%,44.6%{transform:scale(0.894,1)}44.62%,44.97%{transform:scale(0.915,1)}44.99%,49.8%{transform:scale(0.936,1)}49.82%,50.18%{transform:scale(0.957,1)}50.2%,50.92%{transform:scale(0.979,1)}50.94%,100%{transform:scale(1.000,1)}}.u.u0{fill:var(--c1);animation-name:u0;transform-origin:0.0px 0}@keyframes u1{51.66%{transform:scale(0.000,1)}51.68%,52.78%{transform:scale(0.111,1)}52.8%,53.89%{transform:scale(0.222,1)}53.91%,56.12%{transform:scale(0.333,1)}56.14%,61.33%{transform:scale(0.444,1)}61.35%,61.7%{transform:scale(0.556,1)}61.72%,63.19%{transform:scale(0.667,1)}63.21%,75.83%{transform:scale(0.778,1)}75.85%,76.57%{transform:scale(0.889,1)}76.59%,100%{transform:scale(1.000,1)}}.u.u1{fill:var(--c2);animation-name:u1;transform-origin:664.3px 0}@keyframes u2{81.03%{transform:scale(0.000,1)}81.05%,82.52%{transform:scale(0.333,1)}82.54%,84%{transform:scale(0.667,1)}84.02%,100%{transform:scale(1.000,1)}}.u.u2{fill:var(--c3);animation-name:u2;transform-origin:791.5px 0}@keyframes u3{86.24%{transform:scale(0.000,1)}86.26%,100%{transform:scale(1.000,1)}}.u.u3{fill:var(--c4);animation-name:u3;transform-origin:833.9px 0}.s{shape-rendering:geometricPrecision;fill:var(--cs);animation:none linear 26900ms infinite}@keyframes s0{0%,99.63%{transform:translate(0px,-16px)}0.37%{transform:translate(0px,0px)}8.18%{transform:translate(336px,0px)}8.55%,76.21%{transform:translate(336px,16px)}8.92%{transform:translate(320px,16px)}9.67%{transform:translate(320px,48px)}10.41%{transform:translate(352px,48px)}10.78%{transform:translate(352px,32px)}12.27%{transform:translate(416px,32px)}12.64%{transform:translate(416px,16px)}14.87%,53.53%,72.12%{transform:translate(512px,16px)}15.24%{transform:translate(512px,32px)}15.61%{transform:translate(496px,32px)}15.99%,82.16%{transform:translate(496px,48px)}16.36%{transform:translate(480px,48px)}17.1%{transform:translate(480px,80px)}17.84%{transform:translate(512px,80px)}18.22%{transform:translate(512px,96px)}19.33%{transform:translate(464px,96px)}20.07%{transform:translate(464px,64px)}21.56%{transform:translate(400px,64px)}21.93%{transform:translate(400px,80px)}24.91%{transform:translate(528px,80px)}25.65%,81.41%{transform:translate(528px,48px)}26.39%{transform:translate(560px,48px)}27.14%{transform:translate(560px,16px)}27.88%{transform:translate(592px,16px)}28.25%{transform:translate(592px,32px)}29.37%{transform:translate(640px,32px)}29.74%{transform:translate(640px,16px)}30.11%{transform:translate(656px,16px)}30.86%{transform:translate(656px,48px)}31.23%{transform:translate(672px,48px)}31.6%,33.09%{transform:translate(672px,64px)}31.97%{transform:translate(688px,64px)}32.34%{transform:translate(688px,80px)}32.71%{transform:translate(672px,80px)}34.2%{transform:translate(720px,64px)}34.57%{transform:translate(720px,80px)}34.94%{transform:translate(736px,80px)}35.69%{transform:translate(736px,48px)}36.06%{transform:translate(752px,48px)}36.43%{transform:translate(752px,32px)}36.8%{transform:translate(736px,32px)}37.17%{transform:translate(736px,16px)}39.03%{transform:translate(816px,16px)}39.78%,42.01%{transform:translate(816px,48px)}40.15%{transform:translate(832px,48px)}40.52%,43.49%{transform:translate(832px,64px)}41.26%,44.24%{transform:translate(800px,64px)}41.64%,64.68%{transform:translate(800px,48px)}42.75%{transform:translate(816px,80px)}43.12%{transform:translate(832px,80px)}44.61%{transform:translate(800px,80px)}49.81%{transform:translate(576px,80px)}50.19%{transform:translate(576px,64px)}50.56%{transform:translate(560px,64px)}50.93%{transform:translate(560px,80px)}51.3%{transform:translate(544px,80px)}52.04%{transform:translate(544px,48px)}52.79%,71.38%{transform:translate(512px,48px)}53.9%{transform:translate(528px,16px)}54.28%{transform:translate(528px,0px)}55.39%{transform:translate(576px,0px)}56.13%{transform:translate(576px,32px)}60.97%{transform:translate(784px,32px)}61.71%{transform:translate(784px,64px)}62.45%{transform:translate(816px,64px)}63.2%{transform:translate(816px,96px)}63.57%{transform:translate(800px,96px)}76.58%{transform:translate(336px,32px)}81.04%{transform:translate(528px,32px)}82.53%{transform:translate(496px,64px)}83.27%{transform:translate(528px,64px)}84.01%{transform:translate(528px,96px)}84.39%{transform:translate(544px,96px)}86.25%{transform:translate(544px,16px)}97.03%{transform:translate(80px,16px)}97.77%{transform:translate(80px,-16px)}}.s.s0{transform:translate(0px,-16px);animation-name:s0}@keyframes s1{0%,99.63%{transform:translate(16px,-16px)}0.37%{transform:translate(0px,-16px)}0.74%{transform:translate(0px,0px)}8.55%{transform:translate(336px,0px)}8.92%,76.58%{transform:translate(336px,16px)}9.29%{transform:translate(320px,16px)}10.04%{transform:translate(320px,48px)}10.78%{transform:translate(352px,48px)}11.15%{transform:translate(352px,32px)}12.64%{transform:translate(416px,32px)}13.01%{transform:translate(416px,16px)}15.24%,53.9%,72.49%{transform:translate(512px,16px)}15.61%{transform:translate(512px,32px)}15.99%{transform:translate(496px,32px)}16.36%,82.53%{transform:translate(496px,48px)}16.73%{transform:translate(480px,48px)}17.47%{transform:translate(480px,80px)}18.22%{transform:translate(512px,80px)}18.59%{transform:translate(512px,96px)}19.7%{transform:translate(464px,96px)}20.45%{transform:translate(464px,64px)}21.93%{transform:translate(400px,64px)}22.3%{transform:translate(400px,80px)}25.28%{transform:translate(528px,80px)}26.02%,81.78%{transform:translate(528px,48px)}26.77%{transform:translate(560px,48px)}27.51%{transform:translate(560px,16px)}28.25%{transform:translate(592px,16px)}28.62%{transform:translate(592px,32px)}29.74%{transform:translate(640px,32px)}30.11%{transform:translate(640px,16px)}30.48%{transform:translate(656px,16px)}31.23%{transform:translate(656px,48px)}31.6%{transform:translate(672px,48px)}31.97%,33.46%{transform:translate(672px,64px)}32.34%{transform:translate(688px,64px)}32.71%{transform:translate(688px,80px)}33.09%{transform:translate(672px,80px)}34.57%{transform:translate(720px,64px)}34.94%{transform:translate(720px,80px)}35.32%{transform:translate(736px,80px)}36.06%{transform:translate(736px,48px)}36.43%{transform:translate(752px,48px)}36.8%{transform:translate(752px,32px)}37.17%{transform:translate(736px,32px)}37.55%{transform:translate(736px,16px)}39.41%{transform:translate(816px,16px)}40.15%,42.38%{transform:translate(816px,48px)}40.52%{transform:translate(832px,48px)}40.89%,43.87%{transform:translate(832px,64px)}41.64%,44.61%{transform:translate(800px,64px)}42.01%,65.06%{transform:translate(800px,48px)}43.12%{transform:translate(816px,80px)}43.49%{transform:translate(832px,80px)}44.98%{transform:translate(800px,80px)}50.19%{transform:translate(576px,80px)}50.56%{transform:translate(576px,64px)}50.93%{transform:translate(560px,64px)}51.3%{transform:translate(560px,80px)}51.67%{transform:translate(544px,80px)}52.42%{transform:translate(544px,48px)}53.16%,71.75%{transform:translate(512px,48px)}54.28%{transform:translate(528px,16px)}54.65%{transform:translate(528px,0px)}55.76%{transform:translate(576px,0px)}56.51%{transform:translate(576px,32px)}61.34%{transform:translate(784px,32px)}62.08%{transform:translate(784px,64px)}62.83%{transform:translate(816px,64px)}63.57%{transform:translate(816px,96px)}63.94%{transform:translate(800px,96px)}76.95%{transform:translate(336px,32px)}81.41%{transform:translate(528px,32px)}82.9%{transform:translate(496px,64px)}83.64%{transform:translate(528px,64px)}84.39%{transform:translate(528px,96px)}84.76%{transform:translate(544px,96px)}86.62%{transform:translate(544px,16px)}97.4%{transform:translate(80px,16px)}98.14%{transform:translate(80px,-16px)}}.s.s1{transform:translate(16px,-16px);animation-name:s1}@keyframes s2{0%,99.63%{transform:translate(32px,-16px)}0.74%{transform:translate(0px,-16px)}1.12%{transform:translate(0px,0px)}8.92%{transform:translate(336px,0px)}9.29%,76.95%{transform:translate(336px,16px)}9.67%{transform:translate(320px,16px)}10.41%{transform:translate(320px,48px)}11.15%{transform:translate(352px,48px)}11.52%{transform:translate(352px,32px)}13.01%{transform:translate(416px,32px)}13.38%{transform:translate(416px,16px)}15.61%,54.28%,72.86%{transform:translate(512px,16px)}15.99%{transform:translate(512px,32px)}16.36%{transform:translate(496px,32px)}16.73%,82.9%{transform:translate(496px,48px)}17.1%{transform:translate(480px,48px)}17.84%{transform:translate(480px,80px)}18.59%{transform:translate(512px,80px)}18.96%{transform:translate(512px,96px)}20.07%{transform:translate(464px,96px)}20.82%{transform:translate(464px,64px)}22.3%{transform:translate(400px,64px)}22.68%{transform:translate(400px,80px)}25.65%{transform:translate(528px,80px)}26.39%,82.16%{transform:translate(528px,48px)}27.14%{transform:translate(560px,48px)}27.88%{transform:translate(560px,16px)}28.62%{transform:translate(592px,16px)}29%{transform:translate(592px,32px)}30.11%{transform:translate(640px,32px)}30.48%{transform:translate(640px,16px)}30.86%{transform:translate(656px,16px)}31.6%{transform:translate(656px,48px)}31.97%{transform:translate(672px,48px)}32.34%,33.83%{transform:translate(672px,64px)}32.71%{transform:translate(688px,64px)}33.09%{transform:translate(688px,80px)}33.46%{transform:translate(672px,80px)}34.94%{transform:translate(720px,64px)}35.32%{transform:translate(720px,80px)}35.69%{transform:translate(736px,80px)}36.43%{transform:translate(736px,48px)}36.8%{transform:translate(752px,48px)}37.17%{transform:translate(752px,32px)}37.55%{transform:translate(736px,32px)}37.92%{transform:translate(736px,16px)}39.78%{transform:translate(816px,16px)}40.52%,42.75%{transform:translate(816px,48px)}40.89%{transform:translate(832px,48px)}41.26%,44.24%{transform:translate(832px,64px)}42.01%,44.98%{transform:translate(800px,64px)}42.38%,65.43%{transform:translate(800px,48px)}43.49%{transform:translate(816px,80px)}43.87%{transform:translate(832px,80px)}45.35%{transform:translate(800px,80px)}50.56%{transform:translate(576px,80px)}50.93%{transform:translate(576px,64px)}51.3%{transform:translate(560px,64px)}51.67%{transform:translate(560px,80px)}52.04%{transform:translate(544px,80px)}52.79%{transform:translate(544px,48px)}53.53%,72.12%{transform:translate(512px,48px)}54.65%{transform:translate(528px,16px)}55.02%{transform:translate(528px,0px)}56.13%{transform:translate(576px,0px)}56.88%{transform:translate(576px,32px)}61.71%{transform:translate(784px,32px)}62.45%{transform:translate(784px,64px)}63.2%{transform:translate(816px,64px)}63.94%{transform:translate(816px,96px)}64.31%{transform:translate(800px,96px)}77.32%{transform:translate(336px,32px)}81.78%{transform:translate(528px,32px)}83.27%{transform:translate(496px,64px)}84.01%{transform:translate(528px,64px)}84.76%{transform:translate(528px,96px)}85.13%{transform:translate(544px,96px)}86.99%{transform:translate(544px,16px)}97.77%{transform:translate(80px,16px)}98.51%{transform:translate(80px,-16px)}}.s.s2{transform:translate(32px,-16px);animation-name:s2}@keyframes s3{0%,99.63%{transform:translate(48px,-16px)}1.12%{transform:translate(0px,-16px)}1.49%{transform:translate(0px,0px)}9.29%{transform:translate(336px,0px)}9.67%,77.32%{transform:translate(336px,16px)}10.04%{transform:translate(320px,16px)}10.78%{transform:translate(320px,48px)}11.52%{transform:translate(352px,48px)}11.9%{transform:translate(352px,32px)}13.38%{transform:translate(416px,32px)}13.75%{transform:translate(416px,16px)}15.99%,54.65%,73.23%{transform:translate(512px,16px)}16.36%{transform:translate(512px,32px)}16.73%{transform:translate(496px,32px)}17.1%,83.27%{transform:translate(496px,48px)}17.47%{transform:translate(480px,48px)}18.22%{transform:translate(480px,80px)}18.96%{transform:translate(512px,80px)}19.33%{transform:translate(512px,96px)}20.45%{transform:translate(464px,96px)}21.19%{transform:translate(464px,64px)}22.68%{transform:translate(400px,64px)}23.05%{transform:translate(400px,80px)}26.02%{transform:translate(528px,80px)}26.77%,82.53%{transform:translate(528px,48px)}27.51%{transform:translate(560px,48px)}28.25%{transform:translate(560px,16px)}29%{transform:translate(592px,16px)}29.37%{transform:translate(592px,32px)}30.48%{transform:translate(640px,32px)}30.86%{transform:translate(640px,16px)}31.23%{transform:translate(656px,16px)}31.97%{transform:translate(656px,48px)}32.34%{transform:translate(672px,48px)}32.71%,34.2%{transform:translate(672px,64px)}33.09%{transform:translate(688px,64px)}33.46%{transform:translate(688px,80px)}33.83%{transform:translate(672px,80px)}35.32%{transform:translate(720px,64px)}35.69%{transform:translate(720px,80px)}36.06%{transform:translate(736px,80px)}36.8%{transform:translate(736px,48px)}37.17%{transform:translate(752px,48px)}37.55%{transform:translate(752px,32px)}37.92%{transform:translate(736px,32px)}38.29%{transform:translate(736px,16px)}40.15%{transform:translate(816px,16px)}40.89%,43.12%{transform:translate(816px,48px)}41.26%{transform:translate(832px,48px)}41.64%,44.61%{transform:translate(832px,64px)}42.38%,45.35%{transform:translate(800px,64px)}42.75%,65.8%{transform:translate(800px,48px)}43.87%{transform:translate(816px,80px)}44.24%{transform:translate(832px,80px)}45.72%{transform:translate(800px,80px)}50.93%{transform:translate(576px,80px)}51.3%{transform:translate(576px,64px)}51.67%{transform:translate(560px,64px)}52.04%{transform:translate(560px,80px)}52.42%{transform:translate(544px,80px)}53.16%{transform:translate(544px,48px)}53.9%,72.49%{transform:translate(512px,48px)}55.02%{transform:translate(528px,16px)}55.39%{transform:translate(528px,0px)}56.51%{transform:translate(576px,0px)}57.25%{transform:translate(576px,32px)}62.08%{transform:translate(784px,32px)}62.83%{transform:translate(784px,64px)}63.57%{transform:translate(816px,64px)}64.31%{transform:translate(816px,96px)}64.68%{transform:translate(800px,96px)}77.7%{transform:translate(336px,32px)}82.16%{transform:translate(528px,32px)}83.64%{transform:translate(496px,64px)}84.39%{transform:translate(528px,64px)}85.13%{transform:translate(528px,96px)}85.5%{transform:translate(544px,96px)}87.36%{transform:translate(544px,16px)}98.14%{transform:translate(80px,16px)}98.88%{transform:translate(80px,-16px)}}.s.s3{transform:translate(48px,-16px);animation-name:s3}</style><rect class="c" x="2" y="2" rx="2" ry="2"/><rect class="c" x="2" y="18" rx="2" ry="2"/><rect class="c" x="2" y="34" rx="2" ry="2"/><rect class="c" x="2" y="50" rx="2" ry="2"/><rect class="c" x="2" y="66" rx="2" ry="2"/><rect class="c" x="2" y="82" rx="2" ry="2"/><rect class="c" x="2" y="98" rx="2" ry="2"/><rect class="c" x="18" y="2" rx="2" ry="2"/><rect class="c" x="18" y="18" rx="2" ry="2"/><rect class="c" x="18" y="34" rx="2" ry="2"/><rect class="c" x="18" y="50" rx="2" ry="2"/><rect class="c" x="18" y="66" rx="2" ry="2"/><rect class="c" x="18" y="82" rx="2" ry="2"/><rect class="c" x="18" y="98" rx="2" ry="2"/><rect class="c" x="34" y="2" rx="2" ry="2"/><rect class="c" x="34" y="18" rx="2" ry="2"/><rect class="c" x="34" y="34" rx="2" ry="2"/><rect class="c" x="34" y="50" rx="2" ry="2"/><rect class="c" x="34" y="66" rx="2" ry="2"/><rect class="c" x="34" y="82" rx="2" ry="2"/><rect class="c" x="34" y="98" rx="2" ry="2"/><rect class="c" x="50" y="2" rx="2" ry="2"/><rect class="c" x="50" y="18" rx="2" ry="2"/><rect class="c" x="50" y="34" rx="2" ry="2"/><rect class="c" x="50" y="50" rx="2" ry="2"/><rect class="c" x="50" y="66" rx="2" ry="2"/><rect class="c" x="50" y="82" rx="2" ry="2"/><rect class="c" x="50" y="98" rx="2" ry="2"/><rect class="c" x="66" y="2" rx="2" ry="2"/><rect class="c" x="66" y="18" rx="2" ry="2"/><rect class="c" x="66" y="34" rx="2" ry="2"/><rect class="c" x="66" y="50" rx="2" ry="2"/><rect class="c" x="66" y="66" rx="2" ry="2"/><rect class="c" x="66" y="82" rx="2" ry="2"/><rect class="c" x="66" y="98" rx="2" ry="2"/><rect class="c" x="82" y="2" rx="2" ry="2"/><rect class="c" x="82" y="18" rx="2" ry="2"/><rect class="c" x="82" y="34" rx="2" ry="2"/><rect class="c" x="82" y="50" rx="2" ry="2"/><rect class="c" x="82" y="66" rx="2" ry="2"/><rect class="c" x="82" y="82" rx="2" ry="2"/><rect class="c" x="82" y="98" rx="2" ry="2"/><rect class="c" x="98" y="2" rx="2" ry="2"/><rect class="c" x="98" y="18" rx="2" ry="2"/><rect class="c" x="98" y="34" rx="2" ry="2"/><rect class="c" x="98" y="50" rx="2" ry="2"/><rect class="c" x="98" y="66" rx="2" ry="2"/><rect class="c" x="98" y="82" rx="2" ry="2"/><rect class="c" x="98" y="98" rx="2" ry="2"/><rect class="c" x="114" y="2" rx="2" ry="2"/><rect class="c" x="114" y="18" rx="2" ry="2"/><rect class="c" x="114" y="34" rx="2" ry="2"/><rect class="c" x="114" y="50" rx="2" ry="2"/><rect class="c" x="114" y="66" rx="2" ry="2"/><rect class="c" x="114" y="82" rx="2" ry="2"/><rect class="c" x="114" y="98" rx="2" ry="2"/><rect class="c" x="130" y="2" rx="2" ry="2"/><rect class="c" x="130" y="18" rx="2" ry="2"/><rect class="c" x="130" y="34" rx="2" ry="2"/><rect class="c" x="130" y="50" rx="2" ry="2"/><rect class="c" x="130" y="66" rx="2" ry="2"/><rect class="c" x="130" y="82" rx="2" ry="2"/><rect class="c" x="130" y="98" rx="2" ry="2"/><rect class="c" x="146" y="2" rx="2" ry="2"/><rect class="c" x="146" y="18" rx="2" ry="2"/><rect class="c" x="146" y="34" rx="2" ry="2"/><rect class="c" x="146" y="50" rx="2" ry="2"/><rect class="c" x="146" y="66" rx="2" ry="2"/><rect class="c" x="146" y="82" rx="2" ry="2"/><rect class="c" x="146" y="98" rx="2" ry="2"/><rect class="c" x="162" y="2" rx="2" ry="2"/><rect class="c" x="162" y="18" rx="2" ry="2"/><rect class="c" x="162" y="34" rx="2" ry="2"/><rect class="c" x="162" y="50" rx="2" ry="2"/><rect class="c" x="162" y="66" rx="2" ry="2"/><rect class="c" x="162" y="82" rx="2" ry="2"/><rect class="c" x="162" y="98" rx="2" ry="2"/><rect class="c" x="178" y="2" rx="2" ry="2"/><rect class="c" x="178" y="18" rx="2" ry="2"/><rect class="c" x="178" y="34" rx="2" ry="2"/><rect class="c" x="178" y="50" rx="2" ry="2"/><rect class="c" x="178" y="66" rx="2" ry="2"/><rect class="c" x="178" y="82" rx="2" ry="2"/><rect class="c" x="178" y="98" rx="2" ry="2"/><rect class="c" x="194" y="2" rx="2" ry="2"/><rect class="c" x="194" y="18" rx="2" ry="2"/><rect class="c" x="194" y="34" rx="2" ry="2"/><rect class="c" x="194" y="50" rx="2" ry="2"/><rect class="c" x="194" y="66" rx="2" ry="2"/><rect class="c" x="194" y="82" rx="2" ry="2"/><rect class="c" x="194" y="98" rx="2" ry="2"/><rect class="c" x="210" y="2" rx="2" ry="2"/><rect class="c" x="210" y="18" rx="2" ry="2"/><rect class="c" x="210" y="34" rx="2" ry="2"/><rect class="c" x="210" y="50" rx="2" ry="2"/><rect class="c" x="210" y="66" rx="2" ry="2"/><rect class="c" x="210" y="82" rx="2" ry="2"/><rect class="c" x="210" y="98" rx="2" ry="2"/><rect class="c" x="226" y="2" rx="2" ry="2"/><rect class="c" x="226" y="18" rx="2" ry="2"/><rect class="c" x="226" y="34" rx="2" ry="2"/><rect class="c" x="226" y="50" rx="2" ry="2"/><rect class="c" x="226" y="66" rx="2" ry="2"/><rect class="c" x="226" y="82" rx="2" ry="2"/><rect class="c" x="226" y="98" rx="2" ry="2"/><rect class="c" x="242" y="2" rx="2" ry="2"/><rect class="c" x="242" y="18" rx="2" ry="2"/><rect class="c" x="242" y="34" rx="2" ry="2"/><rect class="c" x="242" y="50" rx="2" ry="2"/><rect class="c" x="242" y="66" rx="2" ry="2"/><rect class="c" x="242" y="82" rx="2" ry="2"/><rect class="c" x="242" y="98" rx="2" ry="2"/><rect class="c" x="258" y="2" rx="2" ry="2"/><rect class="c" x="258" y="18" rx="2" ry="2"/><rect class="c" x="258" y="34" rx="2" ry="2"/><rect class="c" x="258" y="50" rx="2" ry="2"/><rect class="c" x="258" y="66" rx="2" ry="2"/><rect class="c" x="258" y="82" rx="2" ry="2"/><rect class="c" x="258" y="98" rx="2" ry="2"/><rect class="c" x="274" y="2" rx="2" ry="2"/><rect class="c" x="274" y="18" rx="2" ry="2"/><rect class="c" x="274" y="34" rx="2" ry="2"/><rect class="c" x="274" y="50" rx="2" ry="2"/><rect class="c" x="274" y="66" rx="2" ry="2"/><rect class="c" x="274" y="82" rx="2" ry="2"/><rect class="c" x="274" y="98" rx="2" ry="2"/><rect class="c" x="290" y="2" rx="2" ry="2"/><rect class="c" x="290" y="18" rx="2" ry="2"/><rect class="c" x="290" y="34" rx="2" ry="2"/><rect class="c" x="290" y="50" rx="2" ry="2"/><rect class="c" x="290" y="66" rx="2" ry="2"/><rect class="c" x="290" y="82" rx="2" ry="2"/><rect class="c" x="290" y="98" rx="2" ry="2"/><rect class="c" x="306" y="2" rx="2" ry="2"/><rect class="c" x="306" y="18" rx="2" ry="2"/><rect class="c" x="306" y="34" rx="2" ry="2"/><rect class="c" x="306" y="50" rx="2" ry="2"/><rect class="c" x="306" y="66" rx="2" ry="2"/><rect class="c" x="306" y="82" rx="2" ry="2"/><rect class="c" x="306" y="98" rx="2" ry="2"/><rect class="c" x="322" y="2" rx="2" ry="2"/><rect class="c" x="322" y="18" rx="2" ry="2"/><rect class="c" x="322" y="34" rx="2" ry="2"/><rect class="c" x="322" y="50" rx="2" ry="2"/><rect class="c" x="322" y="66" rx="2" ry="2"/><rect class="c" x="322" y="82" rx="2" ry="2"/><rect class="c" x="322" y="98" rx="2" ry="2"/><rect class="c" x="338" y="2" rx="2" ry="2"/><rect class="c c0" x="338" y="18" rx="2" ry="2"/><rect class="c c1" x="338" y="34" rx="2" ry="2"/><rect class="c" x="338" y="50" rx="2" ry="2"/><rect class="c" x="338" y="66" rx="2" ry="2"/><rect class="c" x="338" y="82" rx="2" ry="2"/><rect class="c" x="338" y="98" rx="2" ry="2"/><rect class="c" x="354" y="2" rx="2" ry="2"/><rect class="c c2" x="354" y="18" rx="2" ry="2"/><rect class="c c3" x="354" y="34" rx="2" ry="2"/><rect class="c" x="354" y="50" rx="2" ry="2"/><rect class="c" x="354" y="66" rx="2" ry="2"/><rect class="c" x="354" y="82" rx="2" ry="2"/><rect class="c" x="354" y="98" rx="2" ry="2"/><rect class="c" x="370" y="2" rx="2" ry="2"/><rect class="c" x="370" y="18" rx="2" ry="2"/><rect class="c" x="370" y="34" rx="2" ry="2"/><rect class="c" x="370" y="50" rx="2" ry="2"/><rect class="c" x="370" y="66" rx="2" ry="2"/><rect class="c" x="370" y="82" rx="2" ry="2"/><rect class="c" x="370" y="98" rx="2" ry="2"/><rect class="c" x="386" y="2" rx="2" ry="2"/><rect class="c" x="386" y="18" rx="2" ry="2"/><rect class="c" x="386" y="34" rx="2" ry="2"/><rect class="c" x="386" y="50" rx="2" ry="2"/><rect class="c" x="386" y="66" rx="2" ry="2"/><rect class="c" x="386" y="82" rx="2" ry="2"/><rect class="c" x="386" y="98" rx="2" ry="2"/><rect class="c" x="402" y="2" rx="2" ry="2"/><rect class="c" x="402" y="18" rx="2" ry="2"/><rect class="c" x="402" y="34" rx="2" ry="2"/><rect class="c" x="402" y="50" rx="2" ry="2"/><rect class="c" x="402" y="66" rx="2" ry="2"/><rect class="c c4" x="402" y="82" rx="2" ry="2"/><rect class="c" x="402" y="98" rx="2" ry="2"/><rect class="c" x="418" y="2" rx="2" ry="2"/><rect class="c c5" x="418" y="18" rx="2" ry="2"/><rect class="c" x="418" y="34" rx="2" ry="2"/><rect class="c" x="418" y="50" rx="2" ry="2"/><rect class="c" x="418" y="66" rx="2" ry="2"/><rect class="c" x="418" y="82" rx="2" ry="2"/><rect class="c" x="418" y="98" rx="2" ry="2"/><rect class="c" x="434" y="2" rx="2" ry="2"/><rect class="c" x="434" y="18" rx="2" ry="2"/><rect class="c" x="434" y="34" rx="2" ry="2"/><rect class="c" x="434" y="50" rx="2" ry="2"/><rect class="c" x="434" y="66" rx="2" ry="2"/><rect class="c" x="434" y="82" rx="2" ry="2"/><rect class="c" x="434" y="98" rx="2" ry="2"/><rect class="c" x="450" y="2" rx="2" ry="2"/><rect class="c" x="450" y="18" rx="2" ry="2"/><rect class="c" x="450" y="34" rx="2" ry="2"/><rect class="c" x="450" y="50" rx="2" ry="2"/><rect class="c c6" x="450" y="66" rx="2" ry="2"/><rect class="c" x="450" y="82" rx="2" ry="2"/><rect class="c" x="450" y="98" rx="2" ry="2"/><rect class="c" x="466" y="2" rx="2" ry="2"/><rect class="c c7" x="466" y="18" rx="2" ry="2"/><rect class="c" x="466" y="34" rx="2" ry="2"/><rect class="c" x="466" y="50" rx="2" ry="2"/><rect class="c" x="466" y="66" rx="2" ry="2"/><rect class="c" x="466" y="82" rx="2" ry="2"/><rect class="c c8" x="466" y="98" rx="2" ry="2"/><rect class="c" x="482" y="2" rx="2" ry="2"/><rect class="c" x="482" y="18" rx="2" ry="2"/><rect class="c" x="482" y="34" rx="2" ry="2"/><rect class="c c9" x="482" y="50" rx="2" ry="2"/><rect class="c ca" x="482" y="66" rx="2" ry="2"/><rect class="c cb" x="482" y="82" rx="2" ry="2"/><rect class="c cc" x="482" y="98" rx="2" ry="2"/><rect class="c" x="498" y="2" rx="2" ry="2"/><rect class="c" x="498" y="18" rx="2" ry="2"/><rect class="c" x="498" y="34" rx="2" ry="2"/><rect class="c cd" x="498" y="50" rx="2" ry="2"/><rect class="c ce" x="498" y="66" rx="2" ry="2"/><rect class="c cf" x="498" y="82" rx="2" ry="2"/><rect class="c" x="498" y="98" rx="2" ry="2"/><rect class="c" x="514" y="2" rx="2" ry="2"/><rect class="c cg" x="514" y="18" rx="2" ry="2"/><rect class="c ch" x="514" y="34" rx="2" ry="2"/><rect class="c ci" x="514" y="50" rx="2" ry="2"/><rect class="c" x="514" y="66" rx="2" ry="2"/><rect class="c" x="514" y="82" rx="2" ry="2"/><rect class="c cj" x="514" y="98" rx="2" ry="2"/><rect class="c" x="530" y="2" rx="2" ry="2"/><rect class="c ck" x="530" y="18" rx="2" ry="2"/><rect class="c cl" x="530" y="34" rx="2" ry="2"/><rect class="c cm" x="530" y="50" rx="2" ry="2"/><rect class="c cn" x="530" y="66" rx="2" ry="2"/><rect class="c" x="530" y="82" rx="2" ry="2"/><rect class="c co" x="530" y="98" rx="2" ry="2"/><rect class="c" x="546" y="2" rx="2" ry="2"/><rect class="c cp" x="546" y="18" rx="2" ry="2"/><rect class="c" x="546" y="34" rx="2" ry="2"/><rect class="c" x="546" y="50" rx="2" ry="2"/><rect class="c cq" x="546" y="66" rx="2" ry="2"/><rect class="c" x="546" y="82" rx="2" ry="2"/><rect class="c" x="546" y="98" rx="2" ry="2"/><rect class="c" x="562" y="2" rx="2" ry="2"/><rect class="c" x="562" y="18" rx="2" ry="2"/><rect class="c cr" x="562" y="34" rx="2" ry="2"/><rect class="c cs" x="562" y="50" rx="2" ry="2"/><rect class="c" x="562" y="66" rx="2" ry="2"/><rect class="c ct" x="562" y="82" rx="2" ry="2"/><rect class="c" x="562" y="98" rx="2" ry="2"/><rect class="c" x="578" y="2" rx="2" ry="2"/><rect class="c cu" x="578" y="18" rx="2" ry="2"/><rect class="c cv" x="578" y="34" rx="2" ry="2"/><rect class="c" x="578" y="50" rx="2" ry="2"/><rect class="c cw" x="578" y="66" rx="2" ry="2"/><rect class="c cx" x="578" y="82" rx="2" ry="2"/><rect class="c" x="578" y="98" rx="2" ry="2"/><rect class="c" x="594" y="2" rx="2" ry="2"/><rect class="c" x="594" y="18" rx="2" ry="2"/><rect class="c cy" x="594" y="34" rx="2" ry="2"/><rect class="c" x="594" y="50" rx="2" ry="2"/><rect class="c" x="594" y="66" rx="2" ry="2"/><rect class="c" x="594" y="82" rx="2" ry="2"/><rect class="c" x="594" y="98" rx="2" ry="2"/><rect class="c" x="610" y="2" rx="2" ry="2"/><rect class="c" x="610" y="18" rx="2" ry="2"/><rect class="c" x="610" y="34" rx="2" ry="2"/><rect class="c" x="610" y="50" rx="2" ry="2"/><rect class="c" x="610" y="66" rx="2" ry="2"/><rect class="c" x="610" y="82" rx="2" ry="2"/><rect class="c" x="610" y="98" rx="2" ry="2"/><rect class="c" x="626" y="2" rx="2" ry="2"/><rect class="c" x="626" y="18" rx="2" ry="2"/><rect class="c" x="626" y="34" rx="2" ry="2"/><rect class="c" x="626" y="50" rx="2" ry="2"/><rect class="c" x="626" y="66" rx="2" ry="2"/><rect class="c" x="626" y="82" rx="2" ry="2"/><rect class="c" x="626" y="98" rx="2" ry="2"/><rect class="c" x="642" y="2" rx="2" ry="2"/><rect class="c cz" x="642" y="18" rx="2" ry="2"/><rect class="c c10" x="642" y="34" rx="2" ry="2"/><rect class="c" x="642" y="50" rx="2" ry="2"/><rect class="c" x="642" y="66" rx="2" ry="2"/><rect class="c" x="642" y="82" rx="2" ry="2"/><rect class="c" x="642" y="98" rx="2" ry="2"/><rect class="c" x="658" y="2" rx="2" ry="2"/><rect class="c" x="658" y="18" rx="2" ry="2"/><rect class="c" x="658" y="34" rx="2" ry="2"/><rect class="c c11" x="658" y="50" rx="2" ry="2"/><rect class="c" x="658" y="66" rx="2" ry="2"/><rect class="c" x="658" y="82" rx="2" ry="2"/><rect class="c" x="658" y="98" rx="2" ry="2"/><rect class="c" x="674" y="2" rx="2" ry="2"/><rect class="c" x="674" y="18" rx="2" ry="2"/><rect class="c" x="674" y="34" rx="2" ry="2"/><rect class="c" x="674" y="50" rx="2" ry="2"/><rect class="c c12" x="674" y="66" rx="2" ry="2"/><rect class="c c13" x="674" y="82" rx="2" ry="2"/><rect class="c" x="674" y="98" rx="2" ry="2"/><rect class="c" x="690" y="2" rx="2" ry="2"/><rect class="c" x="690" y="18" rx="2" ry="2"/><rect class="c" x="690" y="34" rx="2" ry="2"/><rect class="c" x="690" y="50" rx="2" ry="2"/><rect class="c c14" x="690" y="66" rx="2" ry="2"/><rect class="c" x="690" y="82" rx="2" ry="2"/><rect class="c" x="690" y="98" rx="2" ry="2"/><rect class="c" x="706" y="2" rx="2" ry="2"/><rect class="c" x="706" y="18" rx="2" ry="2"/><rect class="c" x="706" y="34" rx="2" ry="2"/><rect class="c" x="706" y="50" rx="2" ry="2"/><rect class="c" x="706" y="66" rx="2" ry="2"/><rect class="c" x="706" y="82" rx="2" ry="2"/><rect class="c" x="706" y="98" rx="2" ry="2"/><rect class="c" x="722" y="2" rx="2" ry="2"/><rect class="c" x="722" y="18" rx="2" ry="2"/><rect class="c" x="722" y="34" rx="2" ry="2"/><rect class="c" x="722" y="50" rx="2" ry="2"/><rect class="c" x="722" y="66" rx="2" ry="2"/><rect class="c c15" x="722" y="82" rx="2" ry="2"/><rect class="c" x="722" y="98" rx="2" ry="2"/><rect class="c" x="738" y="2" rx="2" ry="2"/><rect class="c c16" x="738" y="18" rx="2" ry="2"/><rect class="c c17" x="738" y="34" rx="2" ry="2"/><rect class="c c18" x="738" y="50" rx="2" ry="2"/><rect class="c" x="738" y="66" rx="2" ry="2"/><rect class="c" x="738" y="82" rx="2" ry="2"/><rect class="c" x="738" y="98" rx="2" ry="2"/><rect class="c" x="754" y="2" rx="2" ry="2"/><rect class="c" x="754" y="18" rx="2" ry="2"/><rect class="c" x="754" y="34" rx="2" ry="2"/><rect class="c c19" x="754" y="50" rx="2" ry="2"/><rect class="c" x="754" y="66" rx="2" ry="2"/><rect class="c" x="754" y="82" rx="2" ry="2"/><rect class="c" x="754" y="98" rx="2" ry="2"/><rect class="c" x="770" y="2" rx="2" ry="2"/><rect class="c" x="770" y="18" rx="2" ry="2"/><rect class="c" x="770" y="34" rx="2" ry="2"/><rect class="c" x="770" y="50" rx="2" ry="2"/><rect class="c" x="770" y="66" rx="2" ry="2"/><rect class="c" x="770" y="82" rx="2" ry="2"/><rect class="c" x="770" y="98" rx="2" ry="2"/><rect class="c" x="786" y="2" rx="2" ry="2"/><rect class="c" x="786" y="18" rx="2" ry="2"/><rect class="c" x="786" y="34" rx="2" ry="2"/><rect class="c c1a" x="786" y="50" rx="2" ry="2"/><rect class="c c1b" x="786" y="66" rx="2" ry="2"/><rect class="c c1c" x="786" y="82" rx="2" ry="2"/><rect class="c" x="786" y="98" rx="2" ry="2"/><rect class="c" x="802" y="2" rx="2" ry="2"/><rect class="c c1d" x="802" y="18" rx="2" ry="2"/><rect class="c" x="802" y="34" rx="2" ry="2"/><rect class="c c1e" x="802" y="50" rx="2" ry="2"/><rect class="c" x="802" y="66" rx="2" ry="2"/><rect class="c c1f" x="802" y="82" rx="2" ry="2"/><rect class="c" x="802" y="98" rx="2" ry="2"/><rect class="c" x="818" y="2" rx="2" ry="2"/><rect class="c" x="818" y="18" rx="2" ry="2"/><rect class="c c1g" x="818" y="34" rx="2" ry="2"/><rect class="c c1h" x="818" y="50" rx="2" ry="2"/><rect class="c c1i" x="818" y="66" rx="2" ry="2"/><rect class="c c1j" x="818" y="82" rx="2" ry="2"/><rect class="c c1k" x="818" y="98" rx="2" ry="2"/><rect class="c" x="834" y="2" rx="2" ry="2"/><rect class="c" x="834" y="18" rx="2" ry="2"/><rect class="c" x="834" y="34" rx="2" ry="2"/><rect class="c c1l" x="834" y="50" rx="2" ry="2"/><rect class="c c1m" x="834" y="66" rx="2" ry="2"/><rect class="c c1n" x="834" y="82" rx="2" ry="2"/><rect class="u u0" height="12" width="664.9" x="0.0" y="144"/><rect class="u u1" height="12" width="127.8" x="664.3" y="144"/><rect class="u u2" height="12" width="43.0" x="791.5" y="144"/><rect class="u u3" height="12" width="14.7" x="833.9" y="144"/><rect class="s s0" x="0.8" y="0.8" width="14.4" height="14.4" rx="4.5" ry="4.5"/><rect class="s s1" x="1.8" y="1.8" width="12.3" height="12.3" rx="4.1" ry="4.1"/><rect class="s s2" x="2.6" y="2.6" width="10.8" height="10.8" rx="3.6" ry="3.6"/><rect class="s s3" x="3.0" y="3.0" width="9.9" height="9.9" rx="3.3" ry="3.3"/></svg>