<svg viewBox="-16 -32 880 192" width="880" height="192" xmlns="http://www.w3.org/2000/svg"><desc>Generated with https://github.com/Platane/snk</desc><style>:root{--cb:#1b1f230a;--cs:blue;--ce:#161b22;--c0:#161b22;--c1:#01311f;--c2:#034525;--c3:#0f6d31;--c4:#00c647}.c{shape-rendering:geometricPrecision;fill:var(--ce);stroke-width:1px;stroke:var(--cb);animation:none 34500ms linear infinite;width:12px;height:12px}@keyframes c0{4.05%{fill:var(--c1)}4.07%,100%{fill:var(--ce)}}.c.c0{fill:var(--c1);animation-name:c0}@keyframes c1{4.92%{fill:var(--c1)}4.94%,100%{fill:var(--ce)}}.c.c1{fill:var(--c1);animation-name:c1}@keyframes c2{4.34%{fill:var(--c1)}4.36%,100%{fill:var(--ce)}}.c.c2{fill:var(--c1);animation-name:c2}@keyframes c3{4.63%{fill:var(--c1)}4.65%,100%{fill:var(--ce)}}.c.c3{fill:var(--c1);animation-name:c3}@keyframes c4{15.06%{fill:var(--c1)}15.08%,100%{fill:var(--ce)}}.c.c4{fill:var(--c1);animation-name:c4}@keyframes c5{6.66%{fill:var(--c1)}6.68%,100%{fill:var(--ce)}}.c.c5{fill:var(--c1);animation-name:c5}@keyframes c6{13.9%{fill:var(--c1)}13.92%,100%{fill:var(--ce)}}.c.c6{fill:var(--c1);animation-name:c6}@keyframes c7{7.53%{fill:var(--c1)}7.55%,100%{fill:var(--ce)}}.c.c7{fill:var(--c1);animation-name:c7}@keyframes c8{13.03%{fill:var(--c1)}13.05%,100%{fill:var(--ce)}}.c.c8{fill:var(--c1);animation-name:c8}@keyframes c9{10.71%{fill:var(--c1)}10.73%,100%{fill:var(--ce)}}.c.c9{fill:var(--c1);animation-name:c9}@keyframes ca{11%{fill:var(--c1)}11.02%,100%{fill:var(--ce)}}.c.ca{fill:var(--c1);animation-name:ca}@keyframes cb{11.29%{fill:var(--c1)}11.31%,100%{fill:var(--ce)}}.c.cb{fill:var(--c1);animation-name:cb}@keyframes cc{12.74%{fill:var(--c1)}12.76%,100%{fill:var(--ce)}}.c.cc{fill:var(--c1);animation-name:cc}@keyframes cd{10.42%{fill:var(--c1)}10.44%,100%{fill:var(--ce)}}.c.cd{fill:var(--c1);animation-name:cd}@keyframes ce{70.42%{fill:var(--c2)}70.44%,100%{fill:var(--ce)}}.c.ce{fill:var(--c2);animation-name:ce}@keyframes cf{11.58%{fill:var(--c1)}11.6%,100%{fill:var(--ce)}}.c.cf{fill:var(--c1);animation-name:cf}@keyframes cg{8.4%{fill:var(--c1)}8.42%,100%{fill:var(--ce)}}.c.cg{fill:var(--c1);animation-name:cg}@keyframes ch{9.85%{fill:var(--c1)}9.87%,100%{fill:var(--ce)}}.c.ch{fill:var(--c1);animation-name:ch}@keyframes ci{68.69%{fill:var(--c2)}68.71%,100%{fill:var(--ce)}}.c.ci{fill:var(--c2);animation-name:ci}@keyframes cj{12.16%{fill:var(--c1)}12.18%,100%{fill:var(--ce)}}.c.cj{fill:var(--c1);animation-name:cj}@keyframes ck{8.69%{fill:var(--c1)}8.71%,100%{fill:var(--ce)}}.c.ck{fill:var(--c1);animation-name:ck}@keyframes cl{69.27%{fill:var(--c2)}69.29%,100%{fill:var(--ce)}}.c.cl{fill:var(--c2);animation-name:cl}@keyframes cm{22.6%{fill:var(--c1)}22.62%,100%{fill:var(--ce)}}.c.cm{fill:var(--c1);animation-name:cm}@keyframes cn{17.67%{fill:var(--c1)}17.69%,100%{fill:var(--ce)}}.c.cn{fill:var(--c1);animation-name:cn}@keyframes co{67.53%{fill:var(--c2)}67.55%,100%{fill:var(--ce)}}.c.co{fill:var(--c2);animation-name:co}@keyframes cp{72.16%{fill:var(--c3)}72.18%,100%{fill:var(--ce)}}.c.cp{fill:var(--c3);animation-name:cp}@keyframes cq{17.96%{fill:var(--c1)}17.98%,100%{fill:var(--ce)}}.c.cq{fill:var(--c1);animation-name:cq}@keyframes cr{18.83%{fill:var(--c1)}18.85%,100%{fill:var(--ce)}}.c.cr{fill:var(--c1);animation-name:cr}@keyframes cs{18.54%{fill:var(--c1)}18.56%,100%{fill:var(--ce)}}.c.cs{fill:var(--c1);animation-name:cs}@keyframes ct{21.44%{fill:var(--c1)}21.46%,100%{fill:var(--ce)}}.c.ct{fill:var(--c1);animation-name:ct}@keyframes cu{19.99%{fill:var(--c1)}20.01%,100%{fill:var(--ce)}}.c.cu{fill:var(--c1);animation-name:cu}@keyframes cv{19.12%{fill:var(--c1)}19.14%,100%{fill:var(--ce)}}.c.cv{fill:var(--c1);animation-name:cv}@keyframes cw{20.86%{fill:var(--c1)}20.88%,100%{fill:var(--ce)}}.c.cw{fill:var(--c1);animation-name:cw}@keyframes cx{21.15%{fill:var(--c1)}21.17%,100%{fill:var(--ce)}}.c.cx{fill:var(--c1);animation-name:cx}@keyframes cy{19.41%{fill:var(--c1)}19.43%,100%{fill:var(--ce)}}.c.cy{fill:var(--c1);animation-name:cy}@keyframes cz{28.11%{fill:var(--c1)}28.13%,100%{fill:var(--ce)}}.c.cz{fill:var(--c1);animation-name:cz}@keyframes c10{27.82%{fill:var(--c1)}27.84%,100%{fill:var(--ce)}}.c.c10{fill:var(--c1);animation-name:c10}@keyframes c11{27.24%{fill:var(--c1)}27.26%,100%{fill:var(--ce)}}.c.c11{fill:var(--c1);animation-name:c11}@keyframes c12{25.5%{fill:var(--c1)}25.52%,100%{fill:var(--ce)}}.c.c12{fill:var(--c1);animation-name:c12}@keyframes c13{26.37%{fill:var(--c1)}26.39%,100%{fill:var(--ce)}}.c.c13{fill:var(--c1);animation-name:c13}@keyframes c14{25.79%{fill:var(--c1)}25.81%,100%{fill:var(--ce)}}.c.c14{fill:var(--c1);animation-name:c14}@keyframes c15{50.42%{fill:var(--c1)}50.44%,100%{fill:var(--ce)}}.c.c15{fill:var(--c1);animation-name:c15}@keyframes c16{29.85%{fill:var(--c1)}29.87%,100%{fill:var(--ce)}}.c.c16{fill:var(--c1);animation-name:c16}@keyframes c17{30.13%{fill:var(--c1)}30.15%,100%{fill:var(--ce)}}.c.c17{fill:var(--c1);animation-name:c17}@keyframes c18{30.42%{fill:var(--c1)}30.44%,100%{fill:var(--ce)}}.c.c18{fill:var(--c1);animation-name:c18}@keyframes c19{30.71%{fill:var(--c1)}30.73%,100%{fill:var(--ce)}}.c.c19{fill:var(--c1);animation-name:c19}@keyframes c1a{31.29%{fill:var(--c1)}31.31%,100%{fill:var(--ce)}}.c.c1a{fill:var(--c1);animation-name:c1a}@keyframes c1b{33.32%{fill:var(--c1)}33.34%,100%{fill:var(--ce)}}.c.c1b{fill:var(--c1);animation-name:c1b}@keyframes c1c{33.61%{fill:var(--c1)}33.63%,100%{fill:var(--ce)}}.c.c1c{fill:var(--c1);animation-name:c1c}@keyframes c1d{47.24%{fill:var(--c1)}47.26%,100%{fill:var(--ce)}}.c.c1d{fill:var(--c1);animation-name:c1d}@keyframes c1e{31.58%{fill:var(--c1)}31.6%,100%{fill:var(--ce)}}.c.c1e{fill:var(--c1);animation-name:c1e}@keyframes c1f{33.9%{fill:var(--c1)}33.92%,100%{fill:var(--ce)}}.c.c1f{fill:var(--c1);animation-name:c1f}@keyframes c1g{47.82%{fill:var(--c1)}47.84%,100%{fill:var(--ce)}}.c.c1g{fill:var(--c1);animation-name:c1g}@keyframes c1h{31.87%{fill:var(--c1)}31.89%,100%{fill:var(--ce)}}.c.c1h{fill:var(--c1);animation-name:c1h}@keyframes c1i{32.74%{fill:var(--c1)}32.76%,100%{fill:var(--ce)}}.c.c1i{fill:var(--c1);animation-name:c1i}@keyframes c1j{34.19%{fill:var(--c1)}34.21%,100%{fill:var(--ce)}}.c.c1j{fill:var(--c1);animation-name:c1j}@keyframes c1k{34.48%{fill:var(--c1)}34.5%,100%{fill:var(--ce)}}.c.c1k{fill:var(--c1);animation-name:c1k}@keyframes c1l{32.16%{fill:var(--c1)}32.18%,100%{fill:var(--ce)}}.c.c1l{fill:var(--c1);animation-name:c1l}@keyframes c1m{32.45%{fill:var(--c1)}32.47%,100%{fill:var(--ce)}}.c.c1m{fill:var(--c1);animation-name:c1m}@keyframes c1n{61.73%{fill:var(--c2)}61.75%,100%{fill:var(--ce)}}.c.c1n{fill:var(--c2);animation-name:c1n}@keyframes c1o{35.35%{fill:var(--c1)}35.37%,100%{fill:var(--ce)}}.c.c1o{fill:var(--c1);animation-name:c1o}@keyframes c1p{35.93%{fill:var(--c1)}35.95%,100%{fill:var(--ce)}}.c.c1p{fill:var(--c1);animation-name:c1p}@keyframes c1q{45.79%{fill:var(--c1)}45.81%,100%{fill:var(--ce)}}.c.c1q{fill:var(--c1);animation-name:c1q}@keyframes c1r{45.5%{fill:var(--c1)}45.52%,100%{fill:var(--ce)}}.c.c1r{fill:var(--c1);animation-name:c1r}@keyframes c1s{44.92%{fill:var(--c1)}44.94%,100%{fill:var(--ce)}}.c.c1s{fill:var(--c1);animation-name:c1s}@keyframes c1t{36.8%{fill:var(--c1)}36.82%,100%{fill:var(--ce)}}.c.c1t{fill:var(--c1);animation-name:c1t}@keyframes c1u{37.09%{fill:var(--c1)}37.11%,100%{fill:var(--ce)}}.c.c1u{fill:var(--c1);animation-name:c1u}@keyframes c1v{37.38%{fill:var(--c1)}37.4%,100%{fill:var(--ce)}}.c.c1v{fill:var(--c1);animation-name:c1v}@keyframes c1w{44.05%{fill:var(--c1)}44.07%,100%{fill:var(--ce)}}.c.c1w{fill:var(--c1);animation-name:c1w}@keyframes c1x{38.25%{fill:var(--c1)}38.27%,100%{fill:var(--ce)}}.c.c1x{fill:var(--c1);animation-name:c1x}@keyframes c1y{80.86%{fill:var(--c4)}80.88%,100%{fill:var(--ce)}}.c.c1y{fill:var(--c4);animation-name:c1y}@keyframes c1z{80.57%{fill:var(--c3)}80.59%,100%{fill:var(--ce)}}.c.c1z{fill:var(--c3);animation-name:c1z}@keyframes c20{43.76%{fill:var(--c1)}43.78%,100%{fill:var(--ce)}}.c.c20{fill:var(--c1);animation-name:c20}@keyframes c21{38.54%{fill:var(--c1)}38.56%,100%{fill:var(--ce)}}.c.c21{fill:var(--c1);animation-name:c21}@keyframes c22{38.83%{fill:var(--c1)}38.85%,100%{fill:var(--ce)}}.c.c22{fill:var(--c1);animation-name:c22}@keyframes c23{55.93%{fill:var(--c1)}55.95%,100%{fill:var(--ce)}}.c.c23{fill:var(--c1);animation-name:c23}@keyframes c24{56.22%{fill:var(--c2)}56.24%,100%{fill:var(--ce)}}.c.c24{fill:var(--c2);animation-name:c24}@keyframes c25{43.18%{fill:var(--c1)}43.2%,100%{fill:var(--ce)}}.c.c25{fill:var(--c1);animation-name:c25}@keyframes c26{42.89%{fill:var(--c1)}42.91%,100%{fill:var(--ce)}}.c.c26{fill:var(--c1);animation-name:c26}@keyframes c27{58.25%{fill:var(--c2)}58.27%,100%{fill:var(--ce)}}.c.c27{fill:var(--c2);animation-name:c27}@keyframes c28{81.73%{fill:var(--c4)}81.75%,100%{fill:var(--ce)}}.c.c28{fill:var(--c4);animation-name:c28}@keyframes c29{39.12%{fill:var(--c1)}39.14%,100%{fill:var(--ce)}}.c.c29{fill:var(--c1);animation-name:c29}@keyframes c2a{82.89%{fill:var(--c4)}82.91%,100%{fill:var(--ce)}}.c.c2a{fill:var(--c4);animation-name:c2a}@keyframes c2b{40.28%{fill:var(--c1)}40.3%,100%{fill:var(--ce)}}.c.c2b{fill:var(--c1);animation-name:c2b}.u{transform-origin:0 0;transform:scale(0,1);animation:none linear 34500ms infinite}@keyframes u0{4.05%{transform:scale(0.000,1)}4.07%,4.34%{transform:scale(0.014,1)}4.36%,4.63%{transform:scale(0.028,1)}4.65%,4.92%{transform:scale(0.042,1)}4.94%,6.66%{transform:scale(0.056,1)}6.68%,7.53%{transform:scale(0.069,1)}7.55%,8.4%{transform:scale(0.083,1)}8.42%,8.69%{transform:scale(0.097,1)}8.71%,9.85%{transform:scale(0.111,1)}9.87%,10.42%{transform:scale(0.125,1)}10.44%,10.71%{transform:scale(0.139,1)}10.73%,11%{transform:scale(0.153,1)}11.02%,11.29%{transform:scale(0.167,1)}11.31%,11.58%{transform:scale(0.181,1)}11.6%,12.16%{transform:scale(0.194,1)}12.18%,12.74%{transform:scale(0.208,1)}12.76%,13.03%{transform:scale(0.222,1)}13.05%,13.9%{transform:scale(0.236,1)}13.92%,15.06%{transform:scale(0.250,1)}15.08%,17.67%{transform:scale(0.264,1)}17.69%,17.96%{transform:scale(0.278,1)}17.98%,18.54%{transform:scale(0.292,1)}18.56%,18.83%{transform:scale(0.306,1)}18.85%,19.12%{transform:scale(0.319,1)}19.14%,19.41%{transform:scale(0.333,1)}19.43%,19.99%{transform:scale(0.347,1)}20.01%,20.86%{transform:scale(0.361,1)}20.88%,21.15%{transform:scale(0.375,1)}21.17%,21.44%{transform:scale(0.389,1)}21.46%,22.6%{transform:scale(0.403,1)}22.62%,25.5%{transform:scale(0.417,1)}25.52%,25.79%{transform:scale(0.431,1)}25.81%,26.37%{transform:scale(0.444,1)}26.39%,27.24%{transform:scale(0.458,1)}27.26%,27.82%{transform:scale(0.472,1)}27.84%,28.11%{transform:scale(0.486,1)}28.13%,29.85%{transform:scale(0.500,1)}29.87%,30.13%{transform:scale(0.514,1)}30.15%,30.42%{transform:scale(0.528,1)}30.44%,30.71%{transform:scale(0.542,1)}30.73%,31.29%{transform:scale(0.556,1)}31.31%,31.58%{transform:scale(0.569,1)}31.6%,31.87%{transform:scale(0.583,1)}31.89%,32.16%{transform:scale(0.597,1)}32.18%,32.45%{transform:scale(0.611,1)}32.47%,32.74%{transform:scale(0.625,1)}32.76%,33.32%{transform:scale(0.639,1)}33.34%,33.61%{transform:scale(0.653,1)}33.63%,33.9%{transform:scale(0.667,1)}33.92%,34.19%{transform:scale(0.681,1)}34.21%,34.48%{transform:scale(0.694,1)}34.5%,35.35%{transform:scale(0.708,1)}35.37%,35.93%{transform:scale(0.722,1)}35.95%,36.8%{transform:scale(0.736,1)}36.82%,37.09%{transform:scale(0.750,1)}37.11%,37.38%{transform:scale(0.764,1)}37.4%,38.25%{transform:scale(0.778,1)}38.27%,38.54%{transform:scale(0.792,1)}38.56%,38.83%{transform:scale(0.806,1)}38.85%,39.12%{transform:scale(0.819,1)}39.14%,40.28%{transform:scale(0.833,1)}40.3%,42.89%{transform:scale(0.847,1)}42.91%,43.18%{transform:scale(0.861,1)}43.2%,43.76%{transform:scale(0.875,1)}43.78%,44.05%{transform:scale(0.889,1)}44.07%,44.92%{transform:scale(0.903,1)}44.94%,45.5%{transform:scale(0.917,1)}45.52%,45.79%{transform:scale(0.931,1)}45.81%,47.24%{transform:scale(0.944,1)}47.26%,47.82%{transform:scale(0.958,1)}47.84%,50.42%{transform:scale(0.972,1)}50.44%,55.93%{transform:scale(0.986,1)}55.95%,100%{transform:scale(1.000,1)}}.u.u0{fill:var(--c1);animation-name:u0;transform-origin:0.0px 0}@keyframes u1{56.22%{transform:scale(0.000,1)}56.24%,58.25%{transform:scale(0.143,1)}58.27%,61.73%{transform:scale(0.286,1)}61.75%,67.53%{transform:scale(0.429,1)}67.55%,68.69%{transform:scale(0.571,1)}68.71%,69.27%{transform:scale(0.714,1)}69.29%,70.42%{transform:scale(0.857,1)}70.44%,100%{transform:scale(1.000,1)}}.u.u1{fill:var(--c2);animation-name:u1;transform-origin:726.9px 0}@keyframes u2{72.16%{transform:scale(0.000,1)}72.18%,80.57%{transform:scale(0.500,1)}80.59%,100%{transform:scale(1.000,1)}}.u.u2{fill:var(--c3);animation-name:u2;transform-origin:797.5px 0}@keyframes u3{80.86%{transform:scale(0.000,1)}80.88%,81.73%{transform:scale(0.333,1)}81.75%,82.89%{transform:scale(0.667,1)}82.91%,100%{transform:scale(1.000,1)}}.u.u3{fill:var(--c4);animation-name:u3;transform-origin:817.7px 0}.s{shape-rendering:geometricPrecision;fill:var(--cs);animation:none linear 34500ms infinite}@keyframes s0{0%,99.71%{transform:translate(0px,-16px)}0.29%{transform:translate(0px,0px)}3.77%{transform:translate(192px,0px)}4.06%,5.22%{transform:translate(192px,16px)}4.35%{transform:translate(208px,16px)}4.64%{transform:translate(208px,32px)}4.93%{transform:translate(192px,32px)}8.7%{transform:translate(384px,16px)}8.99%{transform:translate(384px,0px)}9.28%{transform:translate(368px,0px)}9.86%{transform:translate(368px,32px)}10.14%,69.86%{transform:translate(352px,32px)}10.43%{transform:translate(352px,48px)}10.72%{transform:translate(336px,48px)}11.3%{transform:translate(336px,80px)}11.88%{transform:translate(368px,80px)}12.17%,67.83%{transform:translate(368px,96px)}13.04%{transform:translate(320px,96px)}13.62%{transform:translate(320px,64px)}14.78%{transform:translate(256px,64px)}15.07%{transform:translate(256px,80px)}17.39%,67.25%{transform:translate(384px,80px)}17.68%,22.9%{transform:translate(384px,64px)}17.97%,71.3%{transform:translate(400px,64px)}18.26%{transform:translate(400px,48px)}18.55%,22.03%{transform:translate(416px,48px)}18.84%{transform:translate(416px,32px)}19.42%{transform:translate(448px,32px)}19.71%{transform:translate(448px,16px)}20%{transform:translate(432px,16px)}21.16%{transform:translate(432px,80px)}21.45%{transform:translate(416px,80px)}22.61%,68.99%{transform:translate(384px,48px)}25.8%{transform:translate(544px,64px)}26.09%{transform:translate(544px,80px)}26.38%{transform:translate(528px,80px)}26.96%{transform:translate(528px,48px)}27.25%{transform:translate(512px,48px)}27.54%{transform:translate(512px,32px)}27.83%{transform:translate(496px,32px)}28.12%{transform:translate(496px,16px)}29.86%{transform:translate(592px,16px)}30.43%{transform:translate(592px,48px)}32.17%{transform:translate(688px,48px)}32.46%{transform:translate(688px,64px)}33.33%{transform:translate(640px,64px)}33.62%{transform:translate(640px,80px)}34.2%,52.17%{transform:translate(672px,80px)}34.49%{transform:translate(672px,96px)}35.07%{transform:translate(704px,96px)}35.36%{transform:translate(704px,80px)}35.65%{transform:translate(720px,80px)}35.94%{transform:translate(720px,64px)}36.81%{transform:translate(768px,64px)}37.1%{transform:translate(768px,80px)}37.39%,80.29%{transform:translate(784px,80px)}37.97%{transform:translate(784px,48px)}38.55%,55.36%{transform:translate(816px,48px)}38.84%{transform:translate(816px,64px)}39.42%,82.32%{transform:translate(848px,64px)}40%,56.81%{transform:translate(848px,96px)}40.29%{transform:translate(832px,96px)}40.58%{transform:translate(832px,112px)}40.87%{transform:translate(848px,112px)}42.61%{transform:translate(848px,16px)}42.9%{transform:translate(832px,16px)}43.19%{transform:translate(832px,0px)}43.48%{transform:translate(816px,0px)}43.77%{transform:translate(816px,16px)}44.64%{transform:translate(768px,16px)}44.93%{transform:translate(768px,32px)}45.51%{transform:translate(736px,32px)}45.8%{transform:translate(736px,16px)}47.25%{transform:translate(656px,16px)}47.54%{transform:translate(656px,32px)}47.83%{transform:translate(672px,32px)}48.12%,52.75%{transform:translate(672px,48px)}49.86%{transform:translate(576px,48px)}50.43%{transform:translate(576px,80px)}56.23%{transform:translate(816px,96px)}57.97%{transform:translate(848px,32px)}60.87%{transform:translate(688px,32px)}61.74%{transform:translate(688px,80px)}67.54%{transform:translate(384px,96px)}68.7%{transform:translate(368px,48px)}69.28%{transform:translate(384px,32px)}70.43%{transform:translate(352px,64px)}72.17%{transform:translate(400px,16px)}79.13%{transform:translate(784px,16px)}80.58%{transform:translate(800px,80px)}80.87%{transform:translate(800px,64px)}81.45%,82.61%{transform:translate(832px,64px)}81.74%{transform:translate(832px,48px)}82.03%{transform:translate(848px,48px)}82.9%{transform:translate(832px,80px)}94.78%{transform:translate(176px,80px)}95.36%{transform:translate(176px,48px)}95.65%{transform:translate(160px,48px)}95.94%{transform:translate(160px,32px)}96.52%{transform:translate(128px,32px)}97.1%{transform:translate(128px,0px)}97.39%{transform:translate(112px,0px)}97.68%{transform:translate(112px,-16px)}}.s.s0{transform:translate(0px,-16px);animation-name:s0}@keyframes s1{0%,99.71%{transform:translate(16px,-16px)}0.29%{transform:translate(0px,-16px)}0.58%{transform:translate(0px,0px)}4.06%{transform:translate(192px,0px)}4.35%,5.51%{transform:translate(192px,16px)}4.64%{transform:translate(208px,16px)}4.93%{transform:translate(208px,32px)}5.22%{transform:translate(192px,32px)}8.99%{transform:translate(384px,16px)}9.28%{transform:translate(384px,0px)}9.57%{transform:translate(368px,0px)}10.14%{transform:translate(368px,32px)}10.43%,70.14%{transform:translate(352px,32px)}10.72%{transform:translate(352px,48px)}11.01%{transform:translate(336px,48px)}11.59%{transform:translate(336px,80px)}12.17%{transform:translate(368px,80px)}12.46%,68.12%{transform:translate(368px,96px)}13.33%{transform:translate(320px,96px)}13.91%{transform:translate(320px,64px)}15.07%{transform:translate(256px,64px)}15.36%{transform:translate(256px,80px)}17.68%,67.54%{transform:translate(384px,80px)}17.97%,23.19%{transform:translate(384px,64px)}18.26%,71.59%{transform:translate(400px,64px)}18.55%{transform:translate(400px,48px)}18.84%,22.32%{transform:translate(416px,48px)}19.13%{transform:translate(416px,32px)}19.71%{transform:translate(448px,32px)}20%{transform:translate(448px,16px)}20.29%{transform:translate(432px,16px)}21.45%{transform:translate(432px,80px)}21.74%{transform:translate(416px,80px)}22.9%,69.28%{transform:translate(384px,48px)}26.09%{transform:translate(544px,64px)}26.38%{transform:translate(544px,80px)}26.67%{transform:translate(528px,80px)}27.25%{transform:translate(528px,48px)}27.54%{transform:translate(512px,48px)}27.83%{transform:translate(512px,32px)}28.12%{transform:translate(496px,32px)}28.41%{transform:translate(496px,16px)}30.14%{transform:translate(592px,16px)}30.72%{transform:translate(592px,48px)}32.46%{transform:translate(688px,48px)}32.75%{transform:translate(688px,64px)}33.62%{transform:translate(640px,64px)}33.91%{transform:translate(640px,80px)}34.49%,52.46%{transform:translate(672px,80px)}34.78%{transform:translate(672px,96px)}35.36%{transform:translate(704px,96px)}35.65%{transform:translate(704px,80px)}35.94%{transform:translate(720px,80px)}36.23%{transform:translate(720px,64px)}37.1%{transform:translate(768px,64px)}37.39%{transform:translate(768px,80px)}37.68%,80.58%{transform:translate(784px,80px)}38.26%{transform:translate(784px,48px)}38.84%,55.65%{transform:translate(816px,48px)}39.13%{transform:translate(816px,64px)}39.71%,82.61%{transform:translate(848px,64px)}40.29%,57.1%{transform:translate(848px,96px)}40.58%{transform:translate(832px,96px)}40.87%{transform:translate(832px,112px)}41.16%{transform:translate(848px,112px)}42.9%{transform:translate(848px,16px)}43.19%{transform:translate(832px,16px)}43.48%{transform:translate(832px,0px)}43.77%{transform:translate(816px,0px)}44.06%{transform:translate(816px,16px)}44.93%{transform:translate(768px,16px)}45.22%{transform:translate(768px,32px)}45.8%{transform:translate(736px,32px)}46.09%{transform:translate(736px,16px)}47.54%{transform:translate(656px,16px)}47.83%{transform:translate(656px,32px)}48.12%{transform:translate(672px,32px)}48.41%,53.04%{transform:translate(672px,48px)}50.14%{transform:translate(576px,48px)}50.72%{transform:translate(576px,80px)}56.52%{transform:translate(816px,96px)}58.26%{transform:translate(848px,32px)}61.16%{transform:translate(688px,32px)}62.03%{transform:translate(688px,80px)}67.83%{transform:translate(384px,96px)}68.99%{transform:translate(368px,48px)}69.57%{transform:translate(384px,32px)}70.72%{transform:translate(352px,64px)}72.46%{transform:translate(400px,16px)}79.42%{transform:translate(784px,16px)}80.87%{transform:translate(800px,80px)}81.16%{transform:translate(800px,64px)}81.74%,82.9%{transform:translate(832px,64px)}82.03%{transform:translate(832px,48px)}82.32%{transform:translate(848px,48px)}83.19%{transform:translate(832px,80px)}95.07%{transform:translate(176px,80px)}95.65%{transform:translate(176px,48px)}95.94%{transform:translate(160px,48px)}96.23%{transform:translate(160px,32px)}96.81%{transform:translate(128px,32px)}97.39%{transform:translate(128px,0px)}97.68%{transform:translate(112px,0px)}97.97%{transform:translate(112px,-16px)}}.s.s1{transform:translate(16px,-16px);animation-name:s1}@keyframes s2{0%,99.71%{transform:translate(32px,-16px)}0.58%{transform:translate(0px,-16px)}0.87%{transform:translate(0px,0px)}4.35%{transform:translate(192px,0px)}4.64%,5.8%{transform:translate(192px,16px)}4.93%{transform:translate(208px,16px)}5.22%{transform:translate(208px,32px)}5.51%{transform:translate(192px,32px)}9.28%{transform:translate(384px,16px)}9.57%{transform:translate(384px,0px)}9.86%{transform:translate(368px,0px)}10.43%{transform:translate(368px,32px)}10.72%,70.43%{transform:translate(352px,32px)}11.01%{transform:translate(352px,48px)}11.3%{transform:translate(336px,48px)}11.88%{transform:translate(336px,80px)}12.46%{transform:translate(368px,80px)}12.75%,68.41%{transform:translate(368px,96px)}13.62%{transform:translate(320px,96px)}14.2%{transform:translate(320px,64px)}15.36%{transform:translate(256px,64px)}15.65%{transform:translate(256px,80px)}17.97%,67.83%{transform:translate(384px,80px)}18.26%,23.48%{transform:translate(384px,64px)}18.55%,71.88%{transform:translate(400px,64px)}18.84%{transform:translate(400px,48px)}19.13%,22.61%{transform:translate(416px,48px)}19.42%{transform:translate(416px,32px)}20%{transform:translate(448px,32px)}20.29%{transform:translate(448px,16px)}20.58%{transform:translate(432px,16px)}21.74%{transform:translate(432px,80px)}22.03%{transform:translate(416px,80px)}23.19%,69.57%{transform:translate(384px,48px)}26.38%{transform:translate(544px,64px)}26.67%{transform:translate(544px,80px)}26.96%{transform:translate(528px,80px)}27.54%{transform:translate(528px,48px)}27.83%{transform:translate(512px,48px)}28.12%{transform:translate(512px,32px)}28.41%{transform:translate(496px,32px)}28.7%{transform:translate(496px,16px)}30.43%{transform:translate(592px,16px)}31.01%{transform:translate(592px,48px)}32.75%{transform:translate(688px,48px)}33.04%{transform:translate(688px,64px)}33.91%{transform:translate(640px,64px)}34.2%{transform:translate(640px,80px)}34.78%,52.75%{transform:translate(672px,80px)}35.07%{transform:translate(672px,96px)}35.65%{transform:translate(704px,96px)}35.94%{transform:translate(704px,80px)}36.23%{transform:translate(720px,80px)}36.52%{transform:translate(720px,64px)}37.39%{transform:translate(768px,64px)}37.68%{transform:translate(768px,80px)}37.97%,80.87%{transform:translate(784px,80px)}38.55%{transform:translate(784px,48px)}39.13%,55.94%{transform:translate(816px,48px)}39.42%{transform:translate(816px,64px)}40%,82.9%{transform:translate(848px,64px)}40.58%,57.39%{transform:translate(848px,96px)}40.87%{transform:translate(832px,96px)}41.16%{transform:translate(832px,112px)}41.45%{transform:translate(848px,112px)}43.19%{transform:translate(848px,16px)}43.48%{transform:translate(832px,16px)}43.77%{transform:translate(832px,0px)}44.06%{transform:translate(816px,0px)}44.35%{transform:translate(816px,16px)}45.22%{transform:translate(768px,16px)}45.51%{transform:translate(768px,32px)}46.09%{transform:translate(736px,32px)}46.38%{transform:translate(736px,16px)}47.83%{transform:translate(656px,16px)}48.12%{transform:translate(656px,32px)}48.41%{transform:translate(672px,32px)}48.7%,53.33%{transform:translate(672px,48px)}50.43%{transform:translate(576px,48px)}51.01%{transform:translate(576px,80px)}56.81%{transform:translate(816px,96px)}58.55%{transform:translate(848px,32px)}61.45%{transform:translate(688px,32px)}62.32%{transform:translate(688px,80px)}68.12%{transform:translate(384px,96px)}69.28%{transform:translate(368px,48px)}69.86%{transform:translate(384px,32px)}71.01%{transform:translate(352px,64px)}72.75%{transform:translate(400px,16px)}79.71%{transform:translate(784px,16px)}81.16%{transform:translate(800px,80px)}81.45%{transform:translate(800px,64px)}82.03%,83.19%{transform:translate(832px,64px)}82.32%{transform:translate(832px,48px)}82.61%{transform:translate(848px,48px)}83.48%{transform:translate(832px,80px)}95.36%{transform:translate(176px,80px)}95.94%{transform:translate(176px,48px)}96.23%{transform:translate(160px,48px)}96.52%{transform:translate(160px,32px)}97.1%{transform:translate(128px,32px)}97.68%{transform:translate(128px,0px)}97.97%{transform:translate(112px,0px)}98.26%{transform:translate(112px,-16px)}}.s.s2{transform:translate(32px,-16px);animation-name:s2}@keyframes s3{0%,99.71%{transform:translate(48px,-16px)}0.87%{transform:translate(0px,-16px)}1.16%{transform:translate(0px,0px)}4.64%{transform:translate(192px,0px)}4.93%,6.09%{transform:translate(192px,16px)}5.22%{transform:translate(208px,16px)}5.51%{transform:translate(208px,32px)}5.8%{transform:translate(192px,32px)}9.57%{transform:translate(384px,16px)}9.86%{transform:translate(384px,0px)}10.14%{transform:translate(368px,0px)}10.72%{transform:translate(368px,32px)}11.01%,70.72%{transform:translate(352px,32px)}11.3%{transform:translate(352px,48px)}11.59%{transform:translate(336px,48px)}12.17%{transform:translate(336px,80px)}12.75%{transform:translate(368px,80px)}13.04%,68.7%{transform:translate(368px,96px)}13.91%{transform:translate(320px,96px)}14.49%{transform:translate(320px,64px)}15.65%{transform:translate(256px,64px)}15.94%{transform:translate(256px,80px)}18.26%,68.12%{transform:translate(384px,80px)}18.55%,23.77%{transform:translate(384px,64px)}18.84%,72.17%{transform:translate(400px,64px)}19.13%{transform:translate(400px,48px)}19.42%,22.9%{transform:translate(416px,48px)}19.71%{transform:translate(416px,32px)}20.29%{transform:translate(448px,32px)}20.58%{transform:translate(448px,16px)}20.87%{transform:translate(432px,16px)}22.03%{transform:translate(432px,80px)}22.32%{transform:translate(416px,80px)}23.48%,69.86%{transform:translate(384px,48px)}26.67%{transform:translate(544px,64px)}26.96%{transform:translate(544px,80px)}27.25%{transform:translate(528px,80px)}27.83%{transform:translate(528px,48px)}28.12%{transform:translate(512px,48px)}28.41%{transform:translate(512px,32px)}28.7%{transform:translate(496px,32px)}28.99%{transform:translate(496px,16px)}30.72%{transform:translate(592px,16px)}31.3%{transform:translate(592px,48px)}33.04%{transform:translate(688px,48px)}33.33%{transform:translate(688px,64px)}34.2%{transform:translate(640px,64px)}34.49%{transform:translate(640px,80px)}35.07%,53.04%{transform:translate(672px,80px)}35.36%{transform:translate(672px,96px)}35.94%{transform:translate(704px,96px)}36.23%{transform:translate(704px,80px)}36.52%{transform:translate(720px,80px)}36.81%{transform:translate(720px,64px)}37.68%{transform:translate(768px,64px)}37.97%{transform:translate(768px,80px)}38.26%,81.16%{transform:translate(784px,80px)}38.84%{transform:translate(784px,48px)}39.42%,56.23%{transform:translate(816px,48px)}39.71%{transform:translate(816px,64px)}40.29%,83.19%{transform:translate(848px,64px)}40.87%,57.68%{transform:translate(848px,96px)}41.16%{transform:translate(832px,96px)}41.45%{transform:translate(832px,112px)}41.74%{transform:translate(848px,112px)}43.48%{transform:translate(848px,16px)}43.77%{transform:translate(832px,16px)}44.06%{transform:translate(832px,0px)}44.35%{transform:translate(816px,0px)}44.64%{transform:translate(816px,16px)}45.51%{transform:translate(768px,16px)}45.8%{transform:translate(768px,32px)}46.38%{transform:translate(736px,32px)}46.67%{transform:translate(736px,16px)}48.12%{transform:translate(656px,16px)}48.41%{transform:translate(656px,32px)}48.7%{transform:translate(672px,32px)}48.99%,53.62%{transform:translate(672px,48px)}50.72%{transform:translate(576px,48px)}51.3%{transform:translate(576px,80px)}57.1%{transform:translate(816px,96px)}58.84%{transform:translate(848px,32px)}61.74%{transform:translate(688px,32px)}62.61%{transform:translate(688px,80px)}68.41%{transform:translate(384px,96px)}69.57%{transform:translate(368px,48px)}70.14%{transform:translate(384px,32px)}71.3%{transform:translate(352px,64px)}73.04%{transform:translate(400px,16px)}80%{transform:translate(784px,16px)}81.45%{transform:translate(800px,80px)}81.74%{transform:translate(800px,64px)}82.32%,83.48%{transform:translate(832px,64px)}82.61%{transform:translate(832px,48px)}82.9%{transform:translate(848px,48px)}83.77%{transform:translate(832px,80px)}95.65%{transform:translate(176px,80px)}96.23%{transform:translate(176px,48px)}96.52%{transform:translate(160px,48px)}96.81%{transform:translate(160px,32px)}97.39%{transform:translate(128px,32px)}97.97%{transform:translate(128px,0px)}98.26%{transform:translate(112px,0px)}98.55%{transform:translate(112px,-16px)}}.s.s3{transform:translate(48px,-16px);animation-name:s3}</style><rect class="c" x="2" y="2" rx="2" ry="2"/><rect class="c" x="2" y="18" rx="2" ry="2"/><rect class="c" x="2" y="34" rx="2" ry="2"/><rect class="c" x="2" y="50" rx="2" ry="2"/><rect class="c" x="2" y="66" rx="2" ry="2"/><rect class="c" x="2" y="82" rx="2" ry="2"/><rect class="c" x="2" y="98" rx="2" ry="2"/><rect class="c" x="18" y="2" rx="2" ry="2"/><rect class="c" x="18" y="18" rx="2" ry="2"/><rect class="c" x="18" y="34" rx="2" ry="2"/><rect class="c" x="18" y="50" rx="2" ry="2"/><rect class="c" x="18" y="66" rx="2" ry="2"/><rect class="c" x="18" y="82" rx="2" ry="2"/><rect class="c" x="18" y="98" rx="2" ry="2"/><rect class="c" x="34" y="2" rx="2" ry="2"/><rect class="c" x="34" y="18" rx="2" ry="2"/><rect class="c" x="34" y="34" rx="2" ry="2"/><rect class="c" x="34" y="50" rx="2" ry="2"/><rect class="c" x="34" y="66" rx="2" ry="2"/><rect class="c" x="34" y="82" rx="2" ry="2"/><rect class="c" x="34" y="98" rx="2" ry="2"/><rect class="c" x="50" y="2" rx="2" ry="2"/><rect class="c" x="50" y="18" rx="2" ry="2"/><rect class="c" x="50" y="34" rx="2" ry="2"/><rect class="c" x="50" y="50" rx="2" ry="2"/><rect class="c" x="50" y="66" rx="2" ry="2"/><rect class="c" x="50" y="82" rx="2" ry="2"/><rect class="c" x="50" y="98" rx="2" ry="2"/><rect class="c" x="66" y="2" rx="2" ry="2"/><rect class="c" x="66" y="18" rx="2" ry="2"/><rect class="c" x="66" y="34" rx="2" ry="2"/><rect class="c" x="66" y="50" rx="2" ry="2"/><rect class="c" x="66" y="66" rx="2" ry="2"/><rect class="c" x="66" y="82" rx="2" ry="2"/><rect class="c" x="66" y="98" rx="2" ry="2"/><rect class="c" x="82" y="2" rx="2" ry="2"/><rect class="c" x="82" y="18" rx="2" ry="2"/><rect class="c" x="82" y="34" rx="2" ry="2"/><rect class="c" x="82" y="50" rx="2" ry="2"/><rect class="c" x="82" y="66" rx="2" ry="2"/><rect class="c" x="82" y="82" rx="2" ry="2"/><rect class="c" x="82" y="98" rx="2" ry="2"/><rect class="c" x="98" y="2" rx="2" ry="2"/><rect class="c" x="98" y="18" rx="2" ry="2"/><rect class="c" x="98" y="34" rx="2" ry="2"/><rect class="c" x="98" y="50" rx="2" ry="2"/><rect class="c" x="98" y="66" rx="2" ry="2"/><rect class="c" x="98" y="82" rx="2" ry="2"/><rect class="c" x="98" y="98" rx="2" ry="2"/><rect class="c" x="114" y="2" rx="2" ry="2"/><rect class="c" x="114" y="18" rx="2" ry="2"/><rect class="c" x="114" y="34" rx="2" ry="2"/><rect class="c" x="114" y="50" rx="2" ry="2"/><rect class="c" x="114" y="66" rx="2" ry="2"/><rect class="c" x="114" y="82" rx="2" ry="2"/><rect class="c" x="114" y="98" rx="2" ry="2"/><rect class="c" x="130" y="2" rx="2" ry="2"/><rect class="c" x="130" y="18" rx="2" ry="2"/><rect class="c" x="130" y="34" rx="2" ry="2"/><rect class="c" x="130" y="50" rx="2" ry="2"/><rect class="c" x="130" y="66" rx="2" ry="2"/><rect class="c" x="130" y="82" rx="2" ry="2"/><rect class="c" x="130" y="98" rx="2" ry="2"/><rect class="c" x="146" y="2" rx="2" ry="2"/><rect class="c" x="146" y="18" rx="2" ry="2"/><rect class="c" x="146" y="34" rx="2" ry="2"/><rect class="c" x="146" y="50" rx="2" ry="2"/><rect class="c" x="146" y="66" rx="2" ry="2"/><rect class="c" x="146" y="82" rx="2" ry="2"/><rect class="c" x="146" y="98" rx="2" ry="2"/><rect class="c" x="162" y="2" rx="2" ry="2"/><rect class="c" x="162" y="18" rx="2" ry="2"/><rect class="c" x="162" y="34" rx="2" ry="2"/><rect class="c" x="162" y="50" rx="2" ry="2"/><rect class="c" x="162" y="66" rx="2" ry="2"/><rect class="c" x="162" y="82" rx="2" ry="2"/><rect class="c" x="162" y="98" rx="2" ry="2"/><rect class="c" x="178" y="2" rx="2" ry="2"/><rect class="c" x="178" y="18" rx="2" ry="2"/><rect class="c" x="178" y="34" rx="2" ry="2"/><rect class="c" x="178" y="50" rx="2" ry="2"/><rect class="c" x="178" y="66" rx="2" ry="2"/><rect class="c" x="178" y="82" rx="2" ry="2"/><rect class="c" x="178" y="98" rx="2" ry="2"/><rect class="c" x="194" y="2" rx="2" ry="2"/><rect class="c c0" x="194" y="18" rx="2" ry="2"/><rect class="c c1" x="194" y="34" rx="2" ry="2"/><rect class="c" x="194" y="50" rx="2" ry="2"/><rect class="c" x="194" y="66" rx="2" ry="2"/><rect class="c" x="194" y="82" rx="2" ry="2"/><rect class="c" x="194" y="98" rx="2" ry="2"/><rect class="c" x="210" y="2" rx="2" ry="2"/><rect class="c c2" x="210" y="18" rx="2" ry="2"/><rect class="c c3" x="210" y="34" rx="2" ry="2"/><rect class="c" x="210" y="50" rx="2" ry="2"/><rect class="c" x="210" y="66" rx="2" ry="2"/><rect class="c" x="210" y="82" rx="2" ry="2"/><rect class="c" x="210" y="98" rx="2" ry="2"/><rect class="c" x="226" y="2" rx="2" ry="2"/><rect class="c" x="226" y="18" rx="2" ry="2"/><rect class="c" x="226" y="34" rx="2" ry="2"/><rect class="c" x="226" y="50" rx="2" ry="2"/><rect class="c" x="226" y="66" rx="2" ry="2"/><rect class="c" x="226" y="82" rx="2" ry="2"/><rect class="c" x="226" y="98" rx="2" ry="2"/><rect class="c" x="242" y="2" rx="2" ry="2"/><rect class="c" x="242" y="18" rx="2" ry="2"/><rect class="c" x="242" y="34" rx="2" ry="2"/><rect class="c" x="242" y="50" rx="2" ry="2"/><rect class="c" x="242" y="66" rx="2" ry="2"/><rect class="c" x="242" y="82" rx="2" ry="2"/><rect class="c" x="242" y="98" rx="2" ry="2"/><rect class="c" x="258" y="2" rx="2" ry="2"/><rect class="c" x="258" y="18" rx="2" ry="2"/><rect class="c" x="258" y="34" rx="2" ry="2"/><rect class="c" x="258" y="50" rx="2" ry="2"/><rect class="c" x="258" y="66" rx="2" ry="2"/><rect class="c c4" x="258" y="82" rx="2" ry="2"/><rect class="c" x="258" y="98" rx="2" ry="2"/><rect class="c" x="274" y="2" rx="2" ry="2"/><rect class="c c5" x="274" y="18" rx="2" ry="2"/><rect class="c" x="274" y="34" rx="2" ry="2"/><rect class="c" x="274" y="50" rx="2" ry="2"/><rect class="c" x="274" y="66" rx="2" ry="2"/><rect class="c" x="274" y="82" rx="2" ry="2"/><rect class="c" x="274" y="98" rx="2" ry="2"/><rect class="c" x="290" y="2" rx="2" ry="2"/><rect class="c" x="290" y="18" rx="2" ry="2"/><rect class="c" x="290" y="34" rx="2" ry="2"/><rect class="c" x="290" y="50" rx="2" ry="2"/><rect class="c" x="290" y="66" rx="2" ry="2"/><rect class="c" x="290" y="82" rx="2" ry="2"/><rect class="c" x="290" y="98" rx="2" ry="2"/><rect class="c" x="306" y="2" rx="2" ry="2"/><rect class="c" x="306" y="18" rx="2" ry="2"/><rect class="c" x="306" y="34" rx="2" ry="2"/><rect class="c" x="306" y="50" rx="2" ry="2"/><rect class="c c6" x="306" y="66" rx="2" ry="2"/><rect class="c" x="306" y="82" rx="2" ry="2"/><rect class="c" x="306" y="98" rx="2" ry="2"/><rect class="c" x="322" y="2" rx="2" ry="2"/><rect class="c c7" x="322" y="18" rx="2" ry="2"/><rect class="c" x="322" y="34" rx="2" ry="2"/><rect class="c" x="322" y="50" rx="2" ry="2"/><rect class="c" x="322" y="66" rx="2" ry="2"/><rect class="c" x="322" y="82" rx="2" ry="2"/><rect class="c c8" x="322" y="98" rx="2" ry="2"/><rect class="c" x="338" y="2" rx="2" ry="2"/><rect class="c" x="338" y="18" rx="2" ry="2"/><rect class="c" x="338" y="34" rx="2" ry="2"/><rect class="c c9" x="338" y="50" rx="2" ry="2"/><rect class="c ca" x="338" y="66" rx="2" ry="2"/><rect class="c cb" x="338" y="82" rx="2" ry="2"/><rect class="c cc" x="338" y="98" rx="2" ry="2"/><rect class="c" x="354" y="2" rx="2" ry="2"/><rect class="c" x="354" y="18" rx="2" ry="2"/><rect class="c" x="354" y="34" rx="2" ry="2"/><rect class="c cd" x="354" y="50" rx="2" ry="2"/><rect class="c ce" x="354" y="66" rx="2" ry="2"/><rect class="c cf" x="354" y="82" rx="2" ry="2"/><rect class="c" x="354" y="98" rx="2" ry="2"/><rect class="c" x="370" y="2" rx="2" ry="2"/><rect class="c cg" x="370" y="18" rx="2" ry="2"/><rect class="c ch" x="370" y="34" rx="2" ry="2"/><rect class="c ci" x="370" y="50" rx="2" ry="2"/><rect class="c" x="370" y="66" rx="2" ry="2"/><rect class="c" x="370" y="82" rx="2" ry="2"/><rect class="c cj" x="370" y="98" rx="2" ry="2"/><rect class="c" x="386" y="2" rx="2" ry="2"/><rect class="c ck" x="386" y="18" rx="2" ry="2"/><rect class="c cl" x="386" y="34" rx="2" ry="2"/><rect class="c cm" x="386" y="50" rx="2" ry="2"/><rect class="c cn" x="386" y="66" rx="2" ry="2"/><rect class="c" x="386" y="82" rx="2" ry="2"/><rect class="c co" x="386" y="98" rx="2" ry="2"/><rect class="c" x="402" y="2" rx="2" ry="2"/><rect class="c cp" x="402" y="18" rx="2" ry="2"/><rect class="c" x="402" y="34" rx="2" ry="2"/><rect class="c" x="402" y="50" rx="2" ry="2"/><rect class="c cq" x="402" y="66" rx="2" ry="2"/><rect class="c" x="402" y="82" rx="2" ry="2"/><rect class="c" x="402" y="98" rx="2" ry="2"/><rect class="c" x="418" y="2" rx="2" ry="2"/><rect class="c" x="418" y="18" rx="2" ry="2"/><rect class="c cr" x="418" y="34" rx="2" ry="2"/><rect class="c cs" x="418" y="50" rx="2" ry="2"/><rect class="c" x="418" y="66" rx="2" ry="2"/><rect class="c ct" x="418" y="82" rx="2" ry="2"/><rect class="c" x="418" y="98" rx="2" ry="2"/><rect class="c" x="434" y="2" rx="2" ry="2"/><rect class="c cu" x="434" y="18" rx="2" ry="2"/><rect class="c cv" x="434" y="34" rx="2" ry="2"/><rect class="c" x="434" y="50" rx="2" ry="2"/><rect class="c cw" x="434" y="66" rx="2" ry="2"/><rect class="c cx" x="434" y="82" rx="2" ry="2"/><rect class="c" x="434" y="98" rx="2" ry="2"/><rect class="c" x="450" y="2" rx="2" ry="2"/><rect class="c" x="450" y="18" rx="2" ry="2"/><rect class="c cy" x="450" y="34" rx="2" ry="2"/><rect class="c" x="450" y="50" rx="2" ry="2"/><rect class="c" x="450" y="66" rx="2" ry="2"/><rect class="c" x="450" y="82" rx="2" ry="2"/><rect class="c" x="450" y="98" rx="2" ry="2"/><rect class="c" x="466" y="2" rx="2" ry="2"/><rect class="c" x="466" y="18" rx="2" ry="2"/><rect class="c" x="466" y="34" rx="2" ry="2"/><rect class="c" x="466" y="50" rx="2" ry="2"/><rect class="c" x="466" y="66" rx="2" ry="2"/><rect class="c" x="466" y="82" rx="2" ry="2"/><rect class="c" x="466" y="98" rx="2" ry="2"/><rect class="c" x="482" y="2" rx="2" ry="2"/><rect class="c" x="482" y="18" rx="2" ry="2"/><rect class="c" x="482" y="34" rx="2" ry="2"/><rect class="c" x="482" y="50" rx="2" ry="2"/><rect class="c" x="482" y="66" rx="2" ry="2"/><rect class="c" x="482" y="82" rx="2" ry="2"/><rect class="c" x="482" y="98" rx="2" ry="2"/><rect class="c" x="498" y="2" rx="2" ry="2"/><rect class="c cz" x="498" y="18" rx="2" ry="2"/><rect class="c c10" x="498" y="34" rx="2" ry="2"/><rect class="c" x="498" y="50" rx="2" ry="2"/><rect class="c" x="498" y="66" rx="2" ry="2"/><rect class="c" x="498" y="82" rx="2" ry="2"/><rect class="c" x="498" y="98" rx="2" ry="2"/><rect class="c" x="514" y="2" rx="2" ry="2"/><rect class="c" x="514" y="18" rx="2" ry="2"/><rect class="c" x="514" y="34" rx="2" ry="2"/><rect class="c c11" x="514" y="50" rx="2" ry="2"/><rect class="c" x="514" y="66" rx="2" ry="2"/><rect class="c" x="514" y="82" rx="2" ry="2"/><rect class="c" x="514" y="98" rx="2" ry="2"/><rect class="c" x="530" y="2" rx="2" ry="2"/><rect class="c" x="530" y="18" rx="2" ry="2"/><rect class="c" x="530" y="34" rx="2" ry="2"/><rect class="c" x="530" y="50" rx="2" ry="2"/><rect class="c c12" x="530" y="66" rx="2" ry="2"/><rect class="c c13" x="530" y="82" rx="2" ry="2"/><rect class="c" x="530" y="98" rx="2" ry="2"/><rect class="c" x="546" y="2" rx="2" ry="2"/><rect class="c" x="546" y="18" rx="2" ry="2"/><rect class="c" x="546" y="34" rx="2" ry="2"/><rect class="c" x="546" y="50" rx="2" ry="2"/><rect class="c c14" x="546" y="66" rx="2" ry="2"/><rect class="c" x="546" y="82" rx="2" ry="2"/><rect class="c" x="546" y="98" rx="2" ry="2"/><rect class="c" x="562" y="2" rx="2" ry="2"/><rect class="c" x="562" y="18" rx="2" ry="2"/><rect class="c" x="562" y="34" rx="2" ry="2"/><rect class="c" x="562" y="50" rx="2" ry="2"/><rect class="c" x="562" y="66" rx="2" ry="2"/><rect class="c" x="562" y="82" rx="2" ry="2"/><rect class="c" x="562" y="98" rx="2" ry="2"/><rect class="c" x="578" y="2" rx="2" ry="2"/><rect class="c" x="578" y="18" rx="2" ry="2"/><rect class="c" x="578" y="34" rx="2" ry="2"/><rect class="c" x="578" y="50" rx="2" ry="2"/><rect class="c" x="578" y="66" rx="2" ry="2"/><rect class="c c15" x="578" y="82" rx="2" ry="2"/><rect class="c" x="578" y="98" rx="2" ry="2"/><rect class="c" x="594" y="2" rx="2" ry="2"/><rect class="c c16" x="594" y="18" rx="2" ry="2"/><rect class="c c17" x="594" y="34" rx="2" ry="2"/><rect class="c c18" x="594" y="50" rx="2" ry="2"/><rect class="c" x="594" y="66" rx="2" ry="2"/><rect class="c" x="594" y="82" rx="2" ry="2"/><rect class="c" x="594" y="98" rx="2" ry="2"/><rect class="c" x="610" y="2" rx="2" ry="2"/><rect class="c" x="610" y="18" rx="2" ry="2"/><rect class="c" x="610" y="34" rx="2" ry="2"/><rect class="c c19" x="610" y="50" rx="2" ry="2"/><rect class="c" x="610" y="66" rx="2" ry="2"/><rect class="c" x="610" y="82" rx="2" ry="2"/><rect class="c" x="610" y="98" rx="2" ry="2"/><rect class="c" x="626" y="2" rx="2" ry="2"/><rect class="c" x="626" y="18" rx="2" ry="2"/><rect class="c" x="626" y="34" rx="2" ry="2"/><rect class="c" x="626" y="50" rx="2" ry="2"/><rect class="c" x="626" y="66" rx="2" ry="2"/><rect class="c" x="626" y="82" rx="2" ry="2"/><rect class="c" x="626" y="98" rx="2" ry="2"/><rect class="c" x="642" y="2" rx="2" ry="2"/><rect class="c" x="642" y="18" rx="2" ry="2"/><rect class="c" x="642" y="34" rx="2" ry="2"/><rect class="c c1a" x="642" y="50" rx="2" ry="2"/><rect class="c c1b" x="642" y="66" rx="2" ry="2"/><rect class="c c1c" x="642" y="82" rx="2" ry="2"/><rect class="c" x="642" y="98" rx="2" ry="2"/><rect class="c" x="658" y="2" rx="2" ry="2"/><rect class="c c1d" x="658" y="18" rx="2" ry="2"/><rect class="c" x="658" y="34" rx="2" ry="2"/><rect class="c c1e" x="658" y="50" rx="2" ry="2"/><rect class="c" x="658" y="66" rx="2" ry="2"/><rect class="c c1f" x="658" y="82" rx="2" ry="2"/><rect class="c" x="658" y="98" rx="2" ry="2"/><rect class="c" x="674" y="2" rx="2" ry="2"/><rect class="c" x="674" y="18" rx="2" ry="2"/><rect class="c c1g" x="674" y="34" rx="2" ry="2"/><rect class="c c1h" x="674" y="50" rx="2" ry="2"/><rect class="c c1i" x="674" y="66" rx="2" ry="2"/><rect class="c c1j" x="674" y="82" rx="2" ry="2"/><rect class="c c1k" x="674" y="98" rx="2" ry="2"/><rect class="c" x="690" y="2" rx="2" ry="2"/><rect class="c" x="690" y="18" rx="2" ry="2"/><rect class="c" x="690" y="34" rx="2" ry="2"/><rect class="c c1l" x="690" y="50" rx="2" ry="2"/><rect class="c c1m" x="690" y="66" rx="2" ry="2"/><rect class="c c1n" x="690" y="82" rx="2" ry="2"/><rect class="c" x="690" y="98" rx="2" ry="2"/><rect class="c" x="706" y="2" rx="2" ry="2"/><rect class="c" x="706" y="18" rx="2" ry="2"/><rect class="c" x="706" y="34" rx="2" ry="2"/><rect class="c" x="706" y="50" rx="2" ry="2"/><rect class="c" x="706" y="66" rx="2" ry="2"/><rect class="c c1o" x="706" y="82" rx="2" ry="2"/><rect class="c" x="706" y="98" rx="2" ry="2"/><rect class="c" x="722" y="2" rx="2" ry="2"/><rect class="c" x="722" y="18" rx="2" ry="2"/><rect class="c" x="722" y="34" rx="2" ry="2"/><rect class="c" x="722" y="50" rx="2" ry="2"/><rect class="c c1p" x="722" y="66" rx="2" ry="2"/><rect class="c" x="722" y="82" rx="2" ry="2"/><rect class="c" x="722" y="98" rx="2" ry="2"/><rect class="c" x="738" y="2" rx="2" ry="2"/><rect class="c c1q" x="738" y="18" rx="2" ry="2"/><rect class="c c1r" x="738" y="34" rx="2" ry="2"/><rect class="c" x="738" y="50" rx="2" ry="2"/><rect class="c" x="738" y="66" rx="2" ry="2"/><rect class="c" x="738" y="82" rx="2" ry="2"/><rect class="c" x="738" y="98" rx="2" ry="2"/><rect class="c" x="754" y="2" rx="2" ry="2"/><rect class="c" x="754" y="18" rx="2" ry="2"/><rect class="c" x="754" y="34" rx="2" ry="2"/><rect class="c" x="754" y="50" rx="2" ry="2"/><rect class="c" x="754" y="66" rx="2" ry="2"/><rect class="c" x="754" y="82" rx="2" ry="2"/><rect class="c" x="754" y="98" rx="2" ry="2"/><rect class="c" x="770" y="2" rx="2" ry="2"/><rect class="c" x="770" y="18" rx="2" ry="2"/><rect class="c c1s" x="770" y="34" rx="2" ry="2"/><rect class="c" x="770" y="50" rx="2" ry="2"/><rect class="c c1t" x="770" y="66" rx="2" ry="2"/><rect class="c c1u" x="770" y="82" rx="2" ry="2"/><rect class="c" x="770" y="98" rx="2" ry="2"/><rect class="c" x="786" y="2" rx="2" ry="2"/><rect class="c" x="786" y="18" rx="2" ry="2"/><rect class="c" x="786" y="34" rx="2" ry="2"/><rect class="c" x="786" y="50" rx="2" ry="2"/><rect class="c" x="786" y="66" rx="2" ry="2"/><rect class="c c1v" x="786" y="82" rx="2" ry="2"/><rect class="c" x="786" y="98" rx="2" ry="2"/><rect class="c" x="802" y="2" rx="2" ry="2"/><rect class="c c1w" x="802" y="18" rx="2" ry="2"/><rect class="c" x="802" y="34" rx="2" ry="2"/><rect class="c c1x" x="802" y="50" rx="2" ry="2"/><rect class="c c1y" x="802" y="66" rx="2" ry="2"/><rect class="c c1z" x="802" y="82" rx="2" ry="2"/><rect class="c" x="802" y="98" rx="2" ry="2"/><rect class="c" x="818" y="2" rx="2" ry="2"/><rect class="c c20" x="818" y="18" rx="2" ry="2"/><rect class="c" x="818" y="34" rx="2" ry="2"/><rect class="c c21" x="818" y="50" rx="2" ry="2"/><rect class="c c22" x="818" y="66" rx="2" ry="2"/><rect class="c c23" x="818" y="82" rx="2" ry="2"/><rect class="c c24" x="818" y="98" rx="2" ry="2"/><rect class="c c25" x="834" y="2" rx="2" ry="2"/><rect class="c c26" x="834" y="18" rx="2" ry="2"/><rect class="c c27" x="834" y="34" rx="2" ry="2"/><rect class="c c28" x="834" y="50" rx="2" ry="2"/><rect class="c c29" x="834" y="66" rx="2" ry="2"/><rect class="c c2a" x="834" y="82" rx="2" ry="2"/><rect class="c c2b" x="834" y="98" rx="2" ry="2"/><rect class="u u0" height="12" width="727.5" x="0.0" y="144"/><rect class="u u1" height="12" width="71.3" x="726.9" y="144"/><rect class="u u2" height="12" width="20.8" x="797.5" y="144"/><rect class="u u3" height="12" width="30.9" x="817.7" y="144"/><rect class="s s0" x="0.8" y="0.8" width="14.4" height="14.4" rx="4.5" ry="4.5"/><rect class="s s1" x="1.8" y="1.8" width="12.3" height="12.3" rx="4.1" ry="4.1"/><rect class="s s2" x="2.6" y="2.6" width="10.8" height="10.8" rx="3.6" ry="3.6"/><rect class="s s3" x="3.0" y="3.0" width="9.9" height="9.9" rx="3.3" ry="3.3"/></svg>