<svg xmlns="http://www.w3.org/2000/svg" width="800" height="380" viewBox="0 0 800 380">
  <defs>
    <filter id="glow">
      <feGaussianBlur stdDeviation="2.5" result="blur"/>
      <feMerge>
        <feMergeNode in="blur"/>
        <feMergeNode in="SourceGraphic"/>
      </feMerge>
    </filter>
  </defs>

  <!-- Terminal window -->
  <rect width="800" height="380" rx="10" fill="#0a0a0a"/>

  <!-- Title bar -->
  <rect width="800" height="34" rx="10" fill="#1a1a1a"/>
  <rect y="22" width="800" height="12" fill="#1a1a1a"/>

  <!-- Traffic lights -->
  <circle cx="22" cy="17" r="7" fill="#ff5f57"/>
  <circle cx="44" cy="17" r="7" fill="#febc2e"/>
  <circle cx="66" cy="17" r="7" fill="#28c840"/>

  <!-- Title bar text -->
  <text x="400" y="22" text-anchor="middle" font-family="'SF Mono', 'Fira Code', 'Courier New', monospace" font-size="12" fill="#555">anmol@mldeep: ~</text>

  <!-- ANMOL pixel art -->
  <g filter="url(#glow)" fill="#00ff41">
    <rect x="231" y="52" width="10" height="10" rx="1"/>
    <rect x="243" y="52" width="10" height="10" rx="1"/>
    <rect x="255" y="52" width="10" height="10" rx="1"/>
    <rect x="219" y="64" width="10" height="10" rx="1"/>
    <rect x="267" y="64" width="10" height="10" rx="1"/>
    <rect x="219" y="76" width="10" height="10" rx="1"/>
    <rect x="267" y="76" width="10" height="10" rx="1"/>
    <rect x="219" y="88" width="10" height="10" rx="1"/>
    <rect x="231" y="88" width="10" height="10" rx="1"/>
    <rect x="243" y="88" width="10" height="10" rx="1"/>
    <rect x="255" y="88" width="10" height="10" rx="1"/>
    <rect x="267" y="88" width="10" height="10" rx="1"/>
    <rect x="219" y="100" width="10" height="10" rx="1"/>
    <rect x="267" y="100" width="10" height="10" rx="1"/>
    <rect x="219" y="112" width="10" height="10" rx="1"/>
    <rect x="267" y="112" width="10" height="10" rx="1"/>
    <rect x="219" y="124" width="10" height="10" rx="1"/>
    <rect x="267" y="124" width="10" height="10" rx="1"/>
    <rect x="295" y="52" width="10" height="10" rx="1"/>
    <rect x="343" y="52" width="10" height="10" rx="1"/>
    <rect x="295" y="64" width="10" height="10" rx="1"/>
    <rect x="307" y="64" width="10" height="10" rx="1"/>
    <rect x="343" y="64" width="10" height="10" rx="1"/>
    <rect x="295" y="76" width="10" height="10" rx="1"/>
    <rect x="319" y="76" width="10" height="10" rx="1"/>
    <rect x="343" y="76" width="10" height="10" rx="1"/>
    <rect x="295" y="88" width="10" height="10" rx="1"/>
    <rect x="319" y="88" width="10" height="10" rx="1"/>
    <rect x="343" y="88" width="10" height="10" rx="1"/>
    <rect x="295" y="100" width="10" height="10" rx="1"/>
    <rect x="331" y="100" width="10" height="10" rx="1"/>
    <rect x="343" y="100" width="10" height="10" rx="1"/>
    <rect x="295" y="112" width="10" height="10" rx="1"/>
    <rect x="343" y="112" width="10" height="10" rx="1"/>
    <rect x="295" y="124" width="10" height="10" rx="1"/>
    <rect x="343" y="124" width="10" height="10" rx="1"/>
    <rect x="371" y="52" width="10" height="10" rx="1"/>
    <rect x="419" y="52" width="10" height="10" rx="1"/>
    <rect x="371" y="64" width="10" height="10" rx="1"/>
    <rect x="383" y="64" width="10" height="10" rx="1"/>
    <rect x="407" y="64" width="10" height="10" rx="1"/>
    <rect x="419" y="64" width="10" height="10" rx="1"/>
    <rect x="371" y="76" width="10" height="10" rx="1"/>
    <rect x="395" y="76" width="10" height="10" rx="1"/>
    <rect x="419" y="76" width="10" height="10" rx="1"/>
    <rect x="371" y="88" width="10" height="10" rx="1"/>
    <rect x="395" y="88" width="10" height="10" rx="1"/>
    <rect x="419" y="88" width="10" height="10" rx="1"/>
    <rect x="371" y="100" width="10" height="10" rx="1"/>
    <rect x="419" y="100" width="10" height="10" rx="1"/>
    <rect x="371" y="112" width="10" height="10" rx="1"/>
    <rect x="419" y="112" width="10" height="10" rx="1"/>
    <rect x="371" y="124" width="10" height="10" rx="1"/>
    <rect x="419" y="124" width="10" height="10" rx="1"/>
    <rect x="459" y="52" width="10" height="10" rx="1"/>
    <rect x="471" y="52" width="10" height="10" rx="1"/>
    <rect x="483" y="52" width="10" height="10" rx="1"/>
    <rect x="447" y="64" width="10" height="10" rx="1"/>
    <rect x="495" y="64" width="10" height="10" rx="1"/>
    <rect x="447" y="76" width="10" height="10" rx="1"/>
    <rect x="495" y="76" width="10" height="10" rx="1"/>
    <rect x="447" y="88" width="10" height="10" rx="1"/>
    <rect x="495" y="88" width="10" height="10" rx="1"/>
    <rect x="447" y="100" width="10" height="10" rx="1"/>
    <rect x="495" y="100" width="10" height="10" rx="1"/>
    <rect x="447" y="112" width="10" height="10" rx="1"/>
    <rect x="495" y="112" width="10" height="10" rx="1"/>
    <rect x="459" y="124" width="10" height="10" rx="1"/>
    <rect x="471" y="124" width="10" height="10" rx="1"/>
    <rect x="483" y="124" width="10" height="10" rx="1"/>
    <rect x="523" y="52" width="10" height="10" rx="1"/>
    <rect x="523" y="64" width="10" height="10" rx="1"/>
    <rect x="523" y="76" width="10" height="10" rx="1"/>
    <rect x="523" y="88" width="10" height="10" rx="1"/>
    <rect x="523" y="100" width="10" height="10" rx="1"/>
    <rect x="523" y="112" width="10" height="10" rx="1"/>
    <rect x="523" y="124" width="10" height="10" rx="1"/>
    <rect x="535" y="124" width="10" height="10" rx="1"/>
    <rect x="547" y="124" width="10" height="10" rx="1"/>
    <rect x="559" y="124" width="10" height="10" rx="1"/>
    <rect x="571" y="124" width="10" height="10" rx="1"/>
  </g>

  <!-- Divider -->
  <line x1="40" y1="145" x2="760" y2="145" stroke="#00ff41" stroke-opacity="0.25" stroke-width="1"/>

  <!-- Tagline -->
  <g fill="#00ff41" font-family="'SF Mono', 'Fira Code', 'Courier New', monospace" font-size="16" opacity="0.85">
    <text x="400" y="178" text-anchor="middle">founder @ mldeep systems</text>
    <text x="400" y="204" text-anchor="middle">ai agent reliability engineering</text>
  </g>

  <!-- Divider 2 -->
  <line x1="40" y1="225" x2="760" y2="225" stroke="#00ff41" stroke-opacity="0.12" stroke-width="1"/>

  <!-- Terminal lines -->
  <g font-family="'SF Mono', 'Fira Code', 'Courier New', monospace" font-size="13" fill="#00ff41">
    <text x="40" y="258" opacity="0.55">anmol@mldeep:~$</text>
    <text x="200" y="258" opacity="0.9">I diagnose why AI agents break in production</text>

    <text x="40" y="288" opacity="0.55">anmol@mldeep:~$</text>
    <text x="200" y="288" opacity="0.9">7 failure modes. most agents hit at least 3.</text>

    <text x="40" y="318" opacity="0.55">anmol@mldeep:~$</text>
    <text x="200" y="318" opacity="0.9">cat /etc/status</text>
    <text x="40" y="340" opacity="0.65">building in public | open to collabs | shipping daily</text>

    <text x="40" y="365" opacity="0.45">anmol@mldeep:~$</text>
  </g>

  <!-- Blinking cursor -->
  <rect x="200" y="353" width="9" height="16" fill="#00ff41">
    <animate attributeName="opacity" values="1;0;1" dur="1.2s" repeatCount="indefinite"/>
  </rect>

  <!-- Border glow -->
  <rect width="800" height="380" rx="10" fill="none" stroke="#00ff41" stroke-opacity="0.08" stroke-width="1"/>
</svg>